<?xml version="1.0" encoding="utf-8"?>
<!-- Generator: Adobe Illustrator 22.1.0, SVG Export Plug-In . SVG Version: 6.00 Build 0)  -->
<svg version="1.1" id="Слой_2" xmlns="http://www.w3.org/2000/svg" xmlns:xlink="http://www.w3.org/1999/xlink" x="0px" y="0px"
	 viewBox="0 0 16 20" style="enable-background:new 0 0 16 20;" xml:space="preserve">
<path d="M5.6,17.6C5.6,17.6,5.6,17.6,5.6,17.6C5.6,18.9,6.6,20,8,20s2.4-1.1,2.4-2.4c0,0,0,0,0,0H5.6z"/>
<path d="M15.8,14.6l-2.2-3.1c0-1,0-3.3,0-3.9c0-2.6-1.9-4.8-4.5-5.3V1.1C9.1,0.5,8.6,0,8,0S6.9,0.5,6.9,1.1v1.2
	C4.3,2.8,2.4,5,2.4,7.6c0,1,0,3.3,0,3.9l-2.2,3.1C0,15-0.1,15.4,0.1,15.8c0.2,0.4,0.6,0.6,1,0.6h13.8c0.4,0,0.8-0.2,1-0.6
	C16.1,15.4,16,15,15.8,14.6z"/>
</svg>
