<svg id="Слой_1" data-name="Слой 1" xmlns="http://www.w3.org/2000/svg" viewBox="0 0 712 512"><title>burger</title><g id="Canvas"><g id="Vector"><path d="M682.67,483.56A28.44,28.44,0,0,1,654.23,512H28.45a28.44,28.44,0,0,1,0-56.88H654.23A28.44,28.44,0,0,1,682.67,483.56Z"/><path d="M696.9,28.45a28.44,28.44,0,0,1-28.45,28.44h-640A28.44,28.44,0,0,1,28.45,0h640A28.44,28.44,0,0,1,696.9,28.45Z"/><path d="M483.56,256a28.44,28.44,0,0,1-28.44,28.45H28.45a28.45,28.45,0,0,1,0-56.89H455.12A28.44,28.44,0,0,1,483.56,256Z"/></g></g></svg>