<?xml version="1.0" encoding="utf-8"?>
<!-- Generator: Adobe Illustrator 22.1.0, SVG Export Plug-In . SVG Version: 6.00 Build 0)  -->
<svg version="1.2" baseProfile="tiny" id="Слой_3"
	 xmlns="http://www.w3.org/2000/svg" xmlns:xlink="http://www.w3.org/1999/xlink" x="0px" y="0px" viewBox="0 0 581 512"
	 xml:space="preserve">
<path d="M580.3,40.5v242.6c0,22.4-18.4,40.5-41,40.5h-26.8V116.4c0,0,4.9-50.6-51.7-50.4c-55.2,0.3-383.2,0-383.2,0V40.5
	c0-22.4,18.3-40.5,41-40.5h420.7C561.9,0,580.3,18.2,580.3,40.5z"/>
<path fill="none" d="M145.2,248.9h141.3c4.8,0,8.7-4.5,8.7-10.1c0-5.5-3.9-10.1-8.7-10.1H145.2c-4.8,0-8.7,4.5-8.7,10.1
	C136.5,244.4,140.4,248.9,145.2,248.9z"/>
<path fill="none" d="M224.1,286.9h-78.9c-4.8,0-8.7,4.5-8.7,10.1c0,5.6,3.9,10.1,8.7,10.1h78.9c4.8,0,8.7-4.5,8.7-10.1
	C232.8,291.4,228.9,286.9,224.1,286.9z"/>
<path fill="none" d="M145.2,190.9H196c4.8,0,8.7-4.5,8.7-10.1c0-5.6-3.9-10.1-8.7-10.1h-50.8c-4.8,0-8.7,4.5-8.7,10.1
	C136.5,186.4,140.4,190.9,145.2,190.9z"/>
<path fill="none" d="M366.8,170.7H246.9c-4.8,0-8.7,4.5-8.7,10.1c0,5.6,3.9,10.1,8.7,10.1h119.9c4.8,0,8.7-4.5,8.7-10.1
	C375.5,175.2,371.6,170.7,366.8,170.7z"/>
<path fill="none" d="M366.8,228.7h-31.5c-4.8,0-8.7,4.5-8.7,10.1c0,5.6,3.9,10.1,8.7,10.1h31.5c4.8,0,8.7-4.5,8.7-10.1
	C375.5,233.3,371.6,228.7,366.8,228.7z"/>
<path d="M461.7,77.3H41c-22.7,0-41,18.1-41,40.4v242.6c0,22.3,18.4,40.5,41,40.5h24v99.8c0,4.6,2.8,8.9,7.2,10.7
	c1.5,0.6,2.9,0.9,4.5,0.9c3,0,6-1.2,8.2-3.4l109.5-108h267.3c22.6,0,41-18.1,41-40.5V117.6c0-0.5,0-1,0-1.4c0-0.2,0-0.4,0-0.6
	C501.3,75.4,461.7,77.3,461.7,77.3z M145.2,170.7H196c4.8,0,8.7,4.5,8.7,10.1c0,5.6-3.9,10.1-8.7,10.1h-50.8
	c-4.8,0-8.7-4.5-8.7-10.1C136.5,175.2,140.4,170.7,145.2,170.7z M145.2,228.7h141.3c4.8,0,8.7,4.6,8.7,10.1c0,5.6-3.9,10.1-8.7,10.1
	H145.2c-4.8,0-8.7-4.5-8.7-10.1C136.5,233.2,140.4,228.7,145.2,228.7z M224.1,307.1h-78.9c-4.8,0-8.7-4.5-8.7-10.1
	c0-5.6,3.9-10.1,8.7-10.1h78.9c4.8,0,8.7,4.5,8.7,10.1C232.8,302.6,228.9,307.1,224.1,307.1z M366.8,307.1h-96.3
	c-4.8,0-8.7-4.5-8.7-10.1c0-5.6,3.9-10.1,8.7-10.1h96.3c4.8,0,8.7,4.5,8.7,10.1C375.5,302.6,371.6,307.1,366.8,307.1z M366.8,248.9
	h-31.5c-4.8,0-8.7-4.5-8.7-10.1c0-5.6,3.9-10.1,8.7-10.1h31.5c4.8,0,8.7,4.6,8.7,10.1C375.5,244.4,371.6,248.9,366.8,248.9z
	 M366.8,190.9H246.9c-4.8,0-8.7-4.5-8.7-10.1c0-5.6,3.9-10.1,8.7-10.1h119.9c4.8,0,8.7,4.5,8.7,10.1
	C375.5,186.4,371.6,190.9,366.8,190.9z"/>
</svg>
