<svg id="Слой_1" data-name="Слой 1" xmlns="http://www.w3.org/2000/svg" viewBox="0 0 512 512"><defs><style>.cls-1{fill:#50bced;}</style></defs><title>informations</title><g id="Canvas"><g id="Vector"><path id="path0_fill" data-name="path0 fill" class="cls-1" d="M256.05,0C114.67,0,.05,114.63.05,256s114.62,256,256,256,256-114.62,256-256S397.44,0,256.05,0Zm0,472.61c-119.63,0-216.61-97-216.61-216.61S136.42,39.4,256.05,39.4s216.62,97,216.62,216.62S375.69,472.63,256.05,472.63Zm-22.59-70.94h38.89v-177H233.46Zm0-229.5h38.89v-38.9H233.46Zm0,229.5h38.89v-177H233.46Zm0-268.4v38.9h38.89v-38.9Z"/><path id="path1_fill" data-name="path1 fill" class="cls-1" d="M233.46,133.29v38.9h38.89v-38.9Zm0,91.41v177h38.89v-177Z"/></g></g></svg>