<svg id="Layer_1" data-name="Layer 1" xmlns="http://www.w3.org/2000/svg" viewBox="0 0 100 100"><defs><style>.cls-1{fill:#fff;}.cls-2{fill:#ffdd05;}.cls-3{fill:#ffc000;}.cls-4{fill:#eba700;}.cls-5{fill:#fedc00;}</style></defs><circle class="cls-2" cx="50" cy="50" r="50"/><circle class="cls-3" cx="50" cy="50" r="40"/><path class="cls-4" d="M282.5,210.35a40,40,0,0,1,40,39c0-.33,0-.66,0-1a40,40,0,0,0-80,0c0,.34,0,.67,0,1A40,40,0,0,1,282.5,210.35Z" transform="translate(-232.5 -198.35)"/><path class="cls-4" d="M299.92,231.46l-43.56,17.09s-2.07.7-1.9,2,1.84,1.9,1.84,1.9l11,3.69s3.31,10.85,4,12.91,1.17,2.11,1.17,2.11a1.23,1.23,0,0,0,1.16-.15l7.08-6.46h0l11,8.46a2.86,2.86,0,0,0,4.07-1.41l7.76-39.11C303.5,229.88,299.92,231.46,299.92,231.46Z" transform="translate(-232.5 -198.35)"/><path class="cls-5" d="M303.5,230.49l-7.76,39.11a2.86,2.86,0,0,1-4.07,1.41l-17.9-13.72-6.51-3.15-11-3.69s-1.68-.59-1.84-1.9,1.9-2,1.9-2l43.56-17.09S303.5,227.88,303.5,230.49Z" transform="translate(-232.5 -198.35)"/><path class="cls-4" d="M272.39,269.16s-.52,0-1.17-2.11-4-12.91-4-12.91l26.31-16.71s1.52-.92,1.47,0c0,0,.27.17-.55.93S273.82,257,273.82,257" transform="translate(-232.5 -198.35)"/><path class="cls-3" d="M280.63,262.55,273.55,269a1.23,1.23,0,0,1-1.16.15l1.36-12" transform="translate(-232.5 -198.35)"/></svg>