<svg id="Слой_1" data-name="Слой 1" xmlns="http://www.w3.org/2000/svg" viewBox="0 0 512 512"><defs><style>.cls-1{fill:#c0c7da;}.cls-2{fill:#f6f7fb;}</style></defs><title>icons status </title><g id="Canvas"><g id="icons_status" data-name="icons status"><g id="Vector"><path id="path0_fill" data-name="path0 fill" d="M256,.13c-140.8,0-256,115.2-256,256s115.2,256,256,256,256-115.2,256-256S396.76.13,256,.13Zm0,460.8c-56.32,0-107.52-23-145.92-58.88L401.88,110.21c35.84,38.4,58.88,89.6,58.88,145.92C460.76,368.77,368.6,460.93,256,460.93Z"/></g><g id="Vector-2" data-name="Vector"><path id="path1_fill" data-name="path1 fill" class="cls-2" d="M232.74,102.53l-73,82.27-37.38-41.55-20,22.2,58.94,65.08L256,128.9Z"/></g><g id="Vector-3" data-name="Vector"><polygon points="351.82 332.93 393.49 374.6 374.43 393.66 332.76 351.99 291.09 393.66 272.03 374.6 313.7 332.93 272.03 291.26 291.09 272.2 332.76 313.87 374.43 272.2 393.49 291.26 351.82 332.93"/></g></g></g></svg>