<?xml version="1.0" encoding="utf-8"?>
<!-- Generator: Adobe Illustrator 22.1.0, SVG Export Plug-In . SVG Version: 6.00 Build 0)  -->
<svg version="1.2" baseProfile="tiny" id="Capa_1" xmlns="http://www.w3.org/2000/svg" xmlns:xlink="http://www.w3.org/1999/xlink"
	 x="0px" y="0px" viewBox="0 0 512 512" xml:space="preserve">
<g>
	<g>
		<path fill="#FFBF41" d="M122,402.7L5.1,278.9c-6.8-7.2-6.7-18.6,0.2-25.7L242.8,10.6c7.2-7.3,18.9-7.4,26.2-0.3
			c0.1,0.1,0.2,0.2,0.3,0.3l137.2,140.2c7.1,7.3,7,18.9-0.2,26.1l-89,89"/>
	</g>
	<g>
		<path fill="#87D0F0" d="M141.2,265.9h352.3c10.2,0,18.5,8.3,18.5,18.5v204c0,10.2-8.3,18.5-18.5,18.5H141.2
			c-10.2,0-18.5-8.3-18.5-18.5v-204C122.6,274.2,130.9,265.9,141.2,265.9z"/>
	</g>
	<g>
		<rect x="159.7" y="395.7" fill="#1E5D89" width="64.9" height="18.5"/>
	</g>
	<g>
		<rect x="243.1" y="395.7" fill="#1E5D89" width="64.9" height="18.5"/>
	</g>
	<g>
		<rect x="326.6" y="395.7" fill="#1E5D89" width="64.9" height="18.5"/>
	</g>
	<g>
		<rect x="410" y="395.7" fill="#1E5D89" width="64.9" height="18.5"/>
	</g>
	<g>
		<rect x="122.6" y="460.6" fill="#1E5D89" width="389.4" height="18.5"/>
	</g>
	<g>
		<polygon fill="#E3482C" points="55.9,332.7 318.4,60.8 286.3,28 19.8,294.5 		"/>
	</g>
	<g>
		<rect x="159.7" y="293.7" fill="#D1E3EF" width="18.5" height="18.5"/>
	</g>
	<g>
		<rect x="159.7" y="321.5" fill="#D1E3EF" width="18.8" height="18.5"/>
	</g>
	<g>
		<rect x="187.5" y="293.7" fill="#D1E3EF" width="18.5" height="46.4"/>
	</g>
	<g>
		<rect x="215.3" y="293.7" fill="#D1E3EF" width="18.5" height="18.5"/>
	</g>
	<g>
		<rect x="215.3" y="321.5" fill="#D1E3EF" width="18.5" height="18.5"/>
	</g>
	<g>
		
			<rect x="281.8" y="191.8" transform="matrix(0.7071 -0.7071 0.7071 0.7071 -51.9257 276.69)" fill="#1E5D89" width="52.4" height="18.5"/>
	</g>
	<g>
		
			<rect x="332" y="154.7" transform="matrix(0.7071 -0.7071 0.7071 0.7071 -14.8457 292.0458)" fill="#1E5D89" width="26.2" height="18.5"/>
	</g>
</g>
</svg>
