<svg width="1144" height="512" viewBox="0 0 1144 512" fill="none" xmlns="http://www.w3.org/2000/svg">
<path d="M-4.0463e-06 0.00227743H3.97082V8.87074H6.83976L11.9879 0.00227743H16.329L10.1499 10.4107V10.4836L16.6971 21.842H12.2096L6.91292 12.3129H4.04625V21.842H0.0731519V6.25686e-07H-4.0463e-06V0.00227743ZM25.5965 5.79309C30.3743 5.79309 34.2743 9.2375 34.2743 14.0009C34.2743 18.8395 30.4498 22.211 25.6697 22.211C20.8873 22.211 17.0628 18.8395 17.0628 14.0009C16.9897 9.16461 20.8142 5.79309 25.5965 5.79309V5.79309ZM37.3627 6.15757H41.114V18.4727H46.0427V6.15985H49.7917V18.4727H54.7204V6.15985H58.4718V21.842H37.509V6.15757H37.3627ZM69.5795 5.79309C74.0647 5.79309 76.5656 9.09171 76.5656 13.1968C76.5533 13.7121 76.5044 14.226 76.4193 14.7344H65.6064C65.8282 17.4453 67.961 18.9124 70.3156 18.9124C71.9318 18.9124 73.5503 18.1789 74.8008 17.2266L76.3461 20.0127C74.7276 21.4023 72.2999 22.2839 70.0207 22.2839C64.7972 22.2839 61.5624 18.5456 61.5624 14.0738C61.5624 9.16461 64.8703 5.79309 69.5795 5.79309V5.79309ZM78.4035 18.5456C80.3169 18.2518 81.7137 16.6412 81.7137 11.0691V6.15985H93.1895V21.842H89.2895V9.30812H85.465V11.0668C85.465 17.8827 83.6271 21.842 78.4035 21.9878V18.5433V18.5456ZM104.368 5.79309C108.853 5.79309 111.354 9.09171 111.354 13.1968C111.342 13.7121 111.293 14.226 111.208 14.7344H100.395C100.617 17.4453 102.75 18.9124 105.104 18.9124C106.72 18.9124 108.339 18.1789 109.589 17.2266L111.135 20.0127C109.516 21.4023 107.088 22.2839 104.809 22.2839C99.5881 22.2839 96.3511 18.5456 96.3511 14.0738C96.3511 9.16461 99.6612 5.79309 104.368 5.79309V5.79309ZM114.591 6.15757H118.489V12.1694H120.402L124.227 6.15985H128.566L123.564 13.6341V13.7093L129.153 21.842H124.595L120.475 15.468H118.418V21.842H114.516V6.15757H114.589H114.591ZM25.5965 18.8395C28.1706 18.8395 30.3035 16.8599 30.3035 13.928C30.3035 11.0691 28.1706 9.01653 25.5942 9.01653C23.0225 9.01653 20.9628 10.9984 20.9628 13.928C20.9628 16.8599 23.0202 18.8395 25.5965 18.8395ZM72.5948 12.0236C72.5948 9.97104 71.1957 8.72494 69.4309 8.72494C67.4467 8.72494 65.9745 10.0439 65.6064 12.0236H72.5948ZM107.383 12.0236C107.383 9.97104 105.987 8.72494 104.222 8.72494C102.233 8.72494 100.763 10.0439 100.395 12.0236H107.383Z" transform="translate(560.25 290.25) scale(4.51556)" fill="#2D3540"/>
<path d="M179.02 16.7095V53.7233C179.023 53.8588 178.999 53.9935 178.948 54.1193C178.898 54.245 178.822 54.3593 178.726 54.4551C178.63 54.5509 178.515 54.6263 178.389 54.6767C178.263 54.7272 178.128 54.7515 177.992 54.7484H170.416C170.28 54.7515 170.145 54.7272 170.018 54.6767C169.892 54.6263 169.778 54.5509 169.681 54.4551C169.585 54.3593 169.51 54.245 169.459 54.1193C169.408 53.9935 169.384 53.8588 169.387 53.7233V16.7095C169.384 16.574 169.408 16.4393 169.459 16.3136C169.51 16.1878 169.585 16.0735 169.681 15.9777C169.778 15.8819 169.892 15.8065 170.018 15.7561C170.145 15.7057 170.28 15.6813 170.416 15.6844H177.992C178.128 15.6813 178.263 15.7057 178.389 15.7561C178.515 15.8065 178.63 15.8819 178.726 15.9777C178.822 16.0735 178.898 16.1878 178.948 16.3136C178.999 16.4393 179.023 16.574 179.02 16.7095ZM238.155 15.6844C238.45 15.6844 238.818 15.8302 239.184 16.1241C239.405 16.3427 239.405 16.7095 239.332 17.0034L226.828 54.0901C226.752 54.282 226.621 54.4472 226.451 54.5648C226.28 54.6824 226.079 54.7471 225.872 54.7507H219.106C218.664 54.7507 218.296 54.5297 218.15 54.0901L210.865 32.4691L203.584 54.0878C203.508 54.2797 203.376 54.4449 203.206 54.5625C203.036 54.6801 202.835 54.7448 202.628 54.7484H195.861C195.42 54.7484 195.052 54.5297 194.906 54.0878L182.401 17.0011C182.328 16.7095 182.328 16.4156 182.548 16.1241C182.696 15.8302 183.064 15.6844 183.357 15.6844H191.815C192.256 15.6844 192.624 15.976 192.773 16.4156L199.464 38.3305L206.821 16.4156C206.896 16.2237 207.028 16.0585 207.198 15.941C207.368 15.8234 207.569 15.7587 207.776 15.755H213.733C214.175 15.755 214.543 15.976 214.689 16.4156L222.045 38.3305L228.739 16.4156C228.799 16.208 228.924 16.025 229.096 15.8935C229.268 15.7619 229.478 15.6886 229.694 15.6844H238.153H238.155ZM250.952 15.6844C251.466 15.6844 251.908 16.1241 251.981 16.7095V53.7233C251.984 53.8588 251.959 53.9935 251.909 54.1193C251.858 54.245 251.783 54.3593 251.686 54.4551C251.59 54.5509 251.476 54.6263 251.349 54.6767C251.223 54.7272 251.088 54.7515 250.952 54.7484H243.376C243.24 54.7515 243.105 54.7272 242.979 54.6767C242.853 54.6263 242.738 54.5509 242.642 54.4551C242.546 54.3593 242.47 54.245 242.42 54.1193C242.369 53.9935 242.344 53.8588 242.348 53.7233V16.7095C242.344 16.574 242.369 16.4393 242.42 16.3136C242.47 16.1878 242.546 16.0735 242.642 15.9777C242.738 15.8819 242.853 15.8065 242.979 15.7561C243.105 15.7057 243.24 15.6813 243.376 15.6844H250.952ZM164.973 53.4317C165.414 53.9443 165.046 54.6755 164.383 54.6755H155.115C154.933 54.6804 154.752 54.6433 154.586 54.5671C154.42 54.4908 154.274 54.3775 154.16 54.2359L152.617 52.3314C149.38 54.3817 145.553 55.63 141.509 55.63C130.184 55.63 120.99 46.4677 120.99 35.18C120.99 23.8922 130.184 14.7299 141.509 14.7299C152.836 14.7299 162.031 23.8922 162.031 35.18C162.031 39.2121 160.853 43.0233 158.794 46.2467L164.973 53.4294V53.4317ZM87.5225 71.3873C89.4359 72.1209 90.172 74.9775 90.3183 76.2236C90.6132 78.4971 89.9525 79.3765 89.2164 79.3765C88.4803 79.3765 87.4493 78.4971 86.3474 76.7385C85.2433 74.9775 84.8021 73.0002 85.3919 71.9728C85.7577 71.3122 86.5669 71.0206 87.5247 71.3873H87.5225ZM76.3438 79.6703C77.5211 79.6703 78.8447 80.1829 80.022 81.208C82.3012 83.1147 82.9641 85.3131 81.7868 86.9259C81.1239 87.7324 80.022 88.2449 78.7716 88.2449C77.5211 88.2449 76.1975 87.8053 75.3151 86.9988C73.2554 85.2402 72.6679 82.306 73.9892 80.6955C74.5059 80.0348 75.3151 79.6703 76.3438 79.6703V79.6703ZM50.6033 100.852C22.6521 100.852 -1.55333e-08 78.2762 -1.55333e-08 50.4247C-1.55333e-08 22.5732 22.6544 2.78083e-07 50.601 2.78083e-07C78.5498 2.78083e-07 101.204 22.5755 101.204 50.4247C101.204 59.8786 98.5571 68.7493 94.0719 76.2988C93.9233 76.5175 93.5553 76.4446 93.4821 76.1507C91.7173 63.765 84.1414 56.9468 73.1091 54.8965C72.1513 54.7484 72.005 54.163 73.2554 54.0172C76.6387 53.7233 81.4188 53.7962 83.9197 54.2359C84.066 52.9898 84.1414 51.6708 84.1414 50.3518C84.1414 31.9542 69.136 17.0011 50.6741 17.0011C32.2146 17.0011 17.2091 31.9542 17.2091 50.3518C17.2091 68.7493 32.2146 83.7025 50.6764 83.7025H52.2195C51.6953 80.7268 51.4732 77.706 51.5565 74.686C51.632 72.6334 52.0732 72.3396 52.9556 73.9524C57.5894 81.9416 64.2097 89.1242 77.1531 91.9832C87.7442 94.3296 98.3353 97.0405 109.736 111.479C110.764 112.725 109.221 114.044 108.044 113.019C96.4242 102.756 85.8331 99.3846 76.1975 99.3846C65.3847 99.4598 58.0306 100.852 50.601 100.852H50.6033ZM146.584 45.2216L142.538 40.3101C142.099 39.7976 142.467 38.9911 143.128 38.9911H151.659C152.1 37.8179 152.322 36.499 152.322 35.18C152.322 29.0976 147.761 23.8193 141.509 23.8193C135.259 23.8193 130.696 29.0976 130.696 35.18C130.696 41.2624 135.259 46.4677 141.509 46.4677C143.274 46.5406 145.041 46.0281 146.584 45.2216V45.2216Z" transform="scale(4.51556)" fill="#FF8C00"/>
</svg>
