<?xml version="1.0" encoding="utf-8"?>
<!-- Generator: Adobe Illustrator 22.1.0, SVG Export Plug-In . SVG Version: 6.00 Build 0)  -->
<svg version="1.1" id="Слой_1" xmlns="http://www.w3.org/2000/svg" xmlns:xlink="http://www.w3.org/1999/xlink" x="0px" y="0px"
	 viewBox="0 0 624.5 201.8" style="enable-background:new 0 0 624.5 201.8;" xml:space="preserve">
<style type="text/css">
	.st0{enable-background:new    ;}
	.st1{fill:#036CB5;}
</style>
<title>вмз</title>
<g class="st0">
	<path class="st1" d="M335.6,160.2h-13.1L293.4,55.4l-29.1,104.9h-13.1l-33.5-131h14.9l25.6,105.6l28.9-105.6h12.5l28.9,105.6
		l25.6-105.6h14.9L335.6,160.2z"/>
	<path class="st1" d="M489.2,160.2V60.7l-35.9,78.9h-12l-36.4-78.9v99.5h-14v-131h14l42.7,92.9l41.6-92.9h14v131H489.2z"/>
	<path class="st1" d="M532.6,160.2V147l65.5-105.2h-62.9V29.2H614V41l-66.1,106.7H614v12.5H532.6z"/>
</g>
<path id="Combined-Shape" class="st1" d="M99.5,0c15.2,0,30.1,3.4,43.8,10c2.1,0.9,4.2,2.1,6.3,3.2l-9,8.1L126.8,7.2l-23.6,20.7
	L89.2,13L45.8,51.5l27.8,30.3l-10.8,9.4l27.4,30.3l-10.8,9.4l39.2,43.1l23.2-21l20.2,22.6c-4.2,3.2-8.6,6.1-13.1,8.6
	c-15,8.4-31.9,12.8-49.1,12.8C44.7,197,0,152.8,0,98.4C-0.2,44.4,44.5,0,99.5,0z M81.2,92.3L105,71.3l21.3,23.5l-23.8,21.1
	L81.2,92.3z M98.2,133l23.6-21.2l21.5,23.5l-23.8,21.1L98.2,133z M64.3,52.3l23.8-21.1l21.3,23.5L85.6,75.8L64.3,52.3z M107.9,41
	l17.7-15.8l16,17.5l-17.7,16L107.9,41z M139.5,113.4l17.7-15.8l16,17.7l-17.7,15.8L139.5,113.4z M155.1,149l17.7-15.8l16,17.5
	l-17.7,16L155.1,149z M162.3,67.7l11.8-10.5l10.7,11.7l-11.8,10.5L162.3,67.7z M147.1,33l11.8-10.7l10.7,11.8l-11.8,10.5L147.1,33z
	 M177.3,102.6L189.1,92l10.8,11.7l-12,10.5L177.3,102.6z M124.2,76.4l17.7-15.8l16,17.5l-17.7,15.8L124.2,76.4z"/>
</svg>
