<svg width="478" height="512" viewBox="0 0 478 512" fill="none" xmlns="http://www.w3.org/2000/svg">
<path d="M8.34255 14.3569C9.90173 14.4921 11.3931 14.1541 12.41 13.5458L12.6133 13.343L12.8167 13.1402C13.0879 12.8699 13.2235 12.5319 13.359 12.2615V11.3152C13.1557 11.518 12.9523 11.7208 12.6811 11.9236C10.6474 13.5458 8.47813 13.681 7.25791 13.6134C6.6478 13.5458 6.24105 13.4782 6.03768 13.4106C5.08862 13.1402 4.27514 12.7347 3.59723 12.1939C3.93618 12.5319 4.41072 12.9374 4.95304 13.2754C5.9021 13.8837 7.05454 14.2217 8.34255 14.3569V14.3569ZM1.90248 3.27182C0.885622 4.2181 0.207719 5.43475 0.00434816 6.58382V7.25973C-0.131232 11.3152 2.91933 14.6948 6.98675 14.9652H7.25791C8.6815 15.1004 10.0373 14.83 11.122 14.3569C10.3085 14.5596 9.35941 14.6948 8.34255 14.6272C7.05454 14.5597 5.83431 14.1541 4.88525 13.5458C2.98712 12.3967 2.30922 10.8421 2.03806 10.1662V10.0986C1.56352 9.1523 1.36015 8.00324 1.49573 6.78659V6.65141C1.69911 4.48847 3.05491 2.5959 4.95304 1.7172C3.73281 2.05516 2.71596 2.5959 1.90248 3.27182V3.27182ZM8.6815 5.70512C8.6815 6.11067 8.41034 7.12455 6.71559 6.98937H6.51222C6.6478 7.39492 7.19012 8.13843 8.47813 8.20602C10.1051 8.3412 11.3253 7.19214 11.3931 6.11067V5.56994C11.3931 5.56994 11.3931 5.50235 11.3253 5.50235C11.3253 5.50235 11.3253 5.43475 11.2575 5.43475C11.2575 5.43475 11.2575 5.36716 11.1897 5.36716C11.1897 5.36716 11.1897 5.29957 11.122 5.29957C11.122 5.29957 11.122 5.23198 11.0542 5.23198L10.9864 5.16439L10.9186 5.09679L10.8508 5.0292L10.783 4.96161C10.783 4.96161 10.7152 4.96161 10.7152 4.89402C10.7152 4.89402 10.6474 4.89402 10.6474 4.82643C10.6474 4.82643 10.5796 4.82643 10.5796 4.75884C10.5796 4.75884 10.5118 4.75884 10.5118 4.69124C10.5118 4.69124 10.4441 4.69124 10.4441 4.62365H8.81708C8.74929 4.62365 8.61371 4.62365 8.54592 4.69124H8.47813L8.20697 4.75884H8.13918C8.13918 4.75884 8.0036 4.82643 7.86802 4.82643H7.73244C8.34255 4.89402 8.6815 5.29957 8.6815 5.70512V5.70512ZM8.20697 9.89581C8.13918 9.89581 8.0036 9.89582 7.93581 9.82822C5.35978 9.49026 4.27514 8.27361 3.8006 7.39492C3.66502 7.12455 3.59723 6.85418 3.52944 6.58382V6.44863L3.46165 5.97549C3.32607 6.31345 3.25828 6.65141 3.25828 7.12455C3.05491 9.49026 4.81746 11.518 7.19012 11.6532H7.66465C9.35941 11.4504 10.5118 10.6393 11.2575 9.76063L11.5287 9.42267L11.8676 8.88194C11.8676 8.88194 12.071 8.54398 12.1388 8.3412C11.1897 9.49026 9.69836 10.0986 8.20697 9.89581V9.89581ZM6.10547 6.78659C6.17326 6.11067 6.44442 5.43475 6.91896 5.0292L6.98675 4.96161C7.59686 4.42088 8.54592 4.08292 9.4272 4.15051H10.5118C10.5118 4.15051 10.5796 4.15051 10.5796 4.2181H10.6474C10.6474 4.2181 10.7152 4.2181 10.7152 4.28569C10.7152 4.28569 10.783 4.28569 10.783 4.35328H10.8508C10.3085 3.67737 9.4272 3.13663 8.0036 3.00145C6.30884 2.86626 4.81746 3.54218 3.93618 4.82643C3.86839 4.96161 3.8006 5.16439 3.8006 5.43475V6.11067C3.86839 6.38104 3.93618 6.719 4.07176 7.05696C4.41072 7.80047 5.2242 8.61157 6.85117 9.08471C6.37664 8.88194 6.03768 8.13843 6.10547 6.78659V6.78659ZM7.86802 1.04129H5.83431L5.49536 1.10888H5.42757C3.32607 1.51443 1.63131 2.66349 0.682251 4.08292C2.03806 1.51443 4.88525 -0.242959 8.07139 0.0274082H8.27476C9.56278 0.162592 10.783 0.703327 11.7999 1.44684H11.8676C13.359 2.66349 14.1725 4.42088 13.9691 6.24586C13.7658 8.67916 12.071 10.5717 9.76615 11.3152C10.3085 10.9773 10.8508 10.5717 11.3253 10.0986C11.5965 9.76063 11.8676 9.42267 12.071 9.08471C12.8845 7.73288 12.9523 6.65141 13.0201 6.51622C13.0879 6.24586 13.0879 6.11067 13.0879 6.04308C13.2912 3.67737 11.3931 1.58202 8.74929 1.10888L8.27476 1.04129H7.86802" transform="scale(34.1333)" fill="#E80000"/>
</svg>
