<svg xmlns="http://www.w3.org/2000/svg" xmlns:xlink="http://www.w3.org/1999/xlink" viewBox="0 0 100 56" enable-background="new 0 0 100 56"><style type="text/css">.st0{fill:#ED2024;} .st1{clip-path:url(#SVGID_2_);} .st2{clip-path:url(#SVGID_4_);fill:#FFCE07;} .st3{fill:#D1AB2B;} .st4{fill:#231F20;}</style><path class="st0" d="M8.4 18.4h-1.3c-1.9 0-3.6 1.2-3.6 4.9 0 3.4 1.6 4.6 3.6 4.6h1.2l.1-9.5zm-2 11.3l-3.6 8.3h-2.8l4-8.9c-1.9-1-3.1-2.7-3.1-6 0-4.6 2.8-6.8 6.3-6.8h3.4v21.6h-2.2v-8.3l-2 .1z"/><defs><path id="SVGID_1_" d="M0 2.9h100v38.1h-100z"/></defs><clipPath id="SVGID_2_"><use xlink:href="#SVGID_1_" overflow="visible"/></clipPath><path class="st1" d="M55.9 30.4c0-4.8 1.8-7.8 5.4-7.8 1.3 0 2.1.4 2.8.8l-.3 2.2c-.6-.5-1.5-1-2.5-1-1.7 0-2.9 1.9-2.9 5.8s.9 6 2.8 6c1.1 0 2-.4 2.5-.9l.5 1.7c-.8.7-1.8 1.1-3.1 1.1-3.3-.1-5.2-2.7-5.2-7.9zm-6.9 0v7.6h-2.3v-15.2h2.3v7.1l3.6-7.1h2.4l-3.7 7.2 4.3 8.1h-2.5l-4.1-7.7zm-11.1-1.4h3.9c0-2.6-.4-4.6-1.8-4.6-1.5.1-2 1.9-2.1 4.6zm2.6 9.2c-3.1 0-5.1-2.5-5.1-7.2 0-4.9 1.3-8.5 4.6-8.5 2.5 0 4.2 1.9 4.2 7.1v1.3h-6.4c0 3.4 1 5.3 2.8 5.3 1.3 0 2.4-.6 3-1l.5 1.8c-.8.7-2.1 1.2-3.6 1.2zm-10.1-13.5h-2.6v.3c0 3.2-.1 7.9-1.4 11.1h4v-11.4zm3.6 16.3h-2.1v-3h-6.6v3h-2.1v-5h.9c1.4-3.2 1.5-8 1.5-12v-1.3h7.1v13.2h1.2v5.1h.1zm-12.2-18.2v15.3h-2.3v-6.9h-3.5v6.9h-2.3v-15.3h2.3v6.5h3.5v-6.5h2.3z"/><defs><path id="SVGID_3_" d="M0 2.9h100v38.1h-100z"/></defs><clipPath id="SVGID_4_"><use xlink:href="#SVGID_3_" overflow="visible"/></clipPath><path class="st2" d="M72.4 20.9c0-2 .2-3.3 4.4-6.5 3.4-2.6 14.7-11.5 14.7-11.5v15h8.6v21.5h-25.1c-1.5 0-2.6-1.2-2.6-2.6v-15.9z"/><path class="st3" d="M91.5 17.8v8.7l-15.7 10.7 19.9-6.5v-12.9z"/><path class="st4" d="M84.3 17.4c.9-1.1 2.2-1.5 3-.9.7.6.6 2-.3 3.1s-2.2 1.5-3 .9c-.7-.7-.6-2 .3-3.1"/></svg>