<?xml version="1.0" encoding="utf-8"?>
<!-- Generator: Adobe Illustrator 22.1.0, SVG Export Plug-In . SVG Version: 6.00 Build 0)  -->
<svg version="1.1" id="Слой_2" xmlns="http://www.w3.org/2000/svg" xmlns:xlink="http://www.w3.org/1999/xlink" x="0px" y="0px"
	 viewBox="0 0 576 512" style="enable-background:new 0 0 576 512;" xml:space="preserve">
<style type="text/css">
	.st0{fill:#030104;}
	.st1{fill:#50BCED;}
</style>
<path id="path0_fill_1_" class="st0" d="M277.1,298.7l-27-24.3l-77.2,68.2c2.8,2.7,6.6,4.4,10.8,4.4h186.8c4.2,0,7.9-1.7,10.7-4.4
	l-77.1-68.2L277.1,298.7z"/>
<path id="path1_fill_1_" class="st0" d="M381.3,190.6c-2.8-2.7-6.6-4.4-10.8-4.4H183.7c-4.2,0-7.9,1.7-10.7,4.4l104.1,92
	L381.3,190.6z"/>
<path id="path2_fill_1_" class="st0" d="M168,200.3v133.4l75.3-66L168,200.3z"/>
<path id="path3_fill_1_" class="st0" d="M310.9,267.8l75.3,66V200.3L310.9,267.8z"/>
<path id="path4_fill_1_" class="st1" d="M559.5,44.4c-11.3-2.3-22.4,4.5-24.8,15.1L519.5,126C471.1,48.6,382.3-0.1,285-0.1
	C135.1-0.1,13.2,114.4,13.2,255.1c0,10.8,9.4,19.6,20.9,19.6c11.5,0,20.9-8.8,20.9-19.6C55,136.1,158.2,39.2,285,39.2
	c82.7,0,158.1,41.5,198.9,107.5l-69.7-14c-11.3-2.3-22.4,4.5-24.8,15.1c-2.4,10.6,4.8,21,16.1,23.3l119.7,24.1
	c2,0.4,4.1,0.5,6.1,0.4c3.4-0.3,6.7-1.3,9.6-3.1c4.7-2.8,7.9-7.3,9.1-12.4l25.6-112.3C578,57.1,570.8,46.7,559.5,44.4z"/>
<path id="path5_fill_1_" class="st1" d="M538.4,229.4c-11.5,0.4-20.6,9.4-20.2,20.3c2,57.6-20,112.6-62,154.7
	c-42,42.1-98.9,66.3-160.3,68.2c-2.6,0.1-5.1,0.1-7.7,0.1c-80.1,0-153.9-39.1-195.6-102.4l72.7,18.3c11.2,2.8,22.6-3.4,25.6-13.9
	c3-10.5-3.6-21.2-14.8-24L58,321c-5.4-1.3-11.1-0.6-15.9,2c-4.8,2.6-8.3,6.9-9.7,11.9l-31.7,111c-3,10.5,3.6,21.2,14.8,24
	c1.8,0.5,3.6,0.7,5.4,0.7c9.2,0,17.7-5.8,20.2-14.5l17.8-62.4c49.5,73.2,135.8,118.3,229.4,118.3c3,0,6,0,9-0.1
	c72.6-2.3,139.8-30.9,189.5-80.7c49.6-49.8,75.6-114.7,73.2-182.8C559.6,237.5,550,229,538.4,229.4z"/>
</svg>
