<?xml version="1.0" encoding="utf-8"?>
<!-- Generator: Adobe Illustrator 22.1.0, SVG Export Plug-In . SVG Version: 6.00 Build 0)  -->
<svg version="1.1" id="Слой_2" xmlns="http://www.w3.org/2000/svg" xmlns:xlink="http://www.w3.org/1999/xlink" x="0px" y="0px"
	 viewBox="0 0 512 512" style="enable-background:new 0 0 512 512;" xml:space="preserve">
<path id="path0_fill_1_" d="M256,0C114.6,0,0,114.6,0,256c0,141.4,114.6,256,256,256s256-114.6,256-256C512,114.6,397.4,0,256,0z
	 M154.1,349c-9.8,0-17.7-7.9-17.7-17.7c0-9.8,7.9-17.7,17.7-17.7c9.8,0,17.7,7.9,17.7,17.7C171.8,341,163.9,349,154.1,349z
	 M154.1,273.7c-9.8,0-17.7-7.9-17.7-17.7c0-9.8,7.9-17.7,17.7-17.7c9.8,0,17.7,7.9,17.7,17.7C171.8,265.8,163.9,273.7,154.1,273.7z
	 M154.1,198.4c-9.8,0-17.7-7.9-17.7-17.7c0-9.8,7.9-17.7,17.7-17.7c9.8,0,17.7,7.9,17.7,17.7C171.8,190.5,163.9,198.4,154.1,198.4z
	 M375.5,347.8H209.8c-9.8,0-17.7-7.9-17.7-17.7s7.9-17.7,17.7-17.7h165.8c9.8,0,17.7,7.9,17.7,17.7S385.3,347.8,375.5,347.8z
	 M375.5,273.1H209.8c-9.8,0-17.7-7.9-17.7-17.7c0-9.8,7.9-17.7,17.7-17.7h165.8c9.8,0,17.7,7.9,17.7,17.7
	C393.2,265.2,385.3,273.1,375.5,273.1z M375.5,198.5H209.8c-9.8,0-17.7-7.9-17.7-17.7c0-9.8,7.9-17.7,17.7-17.7h165.8
	c9.8,0,17.7,7.9,17.7,17.7C393.2,190.5,385.3,198.5,375.5,198.5z"/>
</svg>
