<svg width="581" height="512" viewBox="0 0 581 512" version="1.1" xmlns="http://www.w3.org/2000/svg" xmlns:xlink="http://www.w3.org/1999/xlink">
<title>&#208;&#186;&#208;&#176;&#208;&#189;&#208;&#176;&#208;&#187;&#209;&#139;</title>
<desc>Created using Figma</desc>
<g id="Canvas" transform="matrix(34.1333 0 0 34.1333 34201.6 8942.93)">
<g id="&#208;&#186;&#208;&#176;&#208;&#189;&#208;&#176;&#208;&#187;&#209;&#139;">
<g id="Vector">
<use xlink:href="#path0_fill" transform="translate(-1002 -262)"/>
<use xlink:href="#path1_fill" transform="translate(-1002 -262)"/>
<use xlink:href="#path2_fill" transform="translate(-1002 -262)"/>
</g>
<g id="Vector">
<use xlink:href="#path3_fill" transform="translate(-999.728 -260.065)" fill="#FFFFFF"/>
<use xlink:href="#path4_fill" transform="translate(-999.728 -260.065)" fill="#FFFFFF"/>
<use xlink:href="#path5_fill" transform="translate(-999.728 -260.065)" fill="#FFFFFF"/>
<use xlink:href="#path6_fill" transform="translate(-999.728 -260.065)" fill="#FFFFFF"/>
<use xlink:href="#path7_fill" transform="translate(-999.728 -260.065)" fill="#FFFFFF"/>
<use xlink:href="#path8_fill" transform="translate(-999.728 -260.065)" fill="#FFFFFF"/>
<use xlink:href="#path9_fill" transform="translate(-999.728 -260.065)" fill="#FFFFFF"/>
</g>
</g>
</g>
<defs>
<path id="path0_fill" d="M 3.47477 0C 2.8103 0 2.2724 0.530547 2.2724 1.18593L 2.2724 8.29299C 2.2724 8.94553 2.8103 9.47892 3.47477 9.47892L 4.17663 9.47892L 4.17663 12.404C 4.17663 12.5402 4.26005 12.665 4.38949 12.7161C 4.43264 12.7331 4.47579 12.7416 4.52181 12.7416C 4.61098 12.7416 4.69728 12.7076 4.76344 12.6423L 7.96784 9.47892L 15.7976 9.47892C 16.4592 9.47892 17 8.94837 17 8.29299L 17 1.18593C 17 0.533384 16.4621 0 15.7976 0L 3.47477 0Z"/>
<path id="path1_fill" d="M 13.5252 2.2612L 1.20237 2.2612C 0.537903 2.2612 0 2.79175 0 3.44429L 0 10.5513C 0 11.2039 0.537903 11.7373 1.20237 11.7373L 1.90423 11.7373L 1.90423 14.6624C 1.90423 14.7986 1.98765 14.9234 2.11422 14.9745C 2.15736 14.9915 2.20051 15 2.24653 15C 2.3357 15 2.422 14.966 2.48816 14.9007L 5.69544 11.7373L 13.5252 11.7373C 14.1868 11.7373 14.7276 11.2067 14.7276 10.5513L 14.7276 3.44429C 14.7276 2.79175 14.1897 2.2612 13.5252 2.2612ZM 13.5252 11.062L 5.55449 11.062C 5.46532 11.062 5.38478 11.0961 5.32437 11.15C 5.32437 11.15 5.32437 11.15 5.3215 11.1528C 5.31862 11.1557 5.31287 11.1613 5.30999 11.1642L 2.58884 13.8453L 2.58884 11.3997C 2.58884 11.3883 2.58884 11.377 2.58596 11.3684C 2.5687 11.1954 2.42488 11.062 2.24653 11.062L 1.20237 11.062C 0.917598 11.062 0.684603 10.8322 0.684603 10.5513L 0.684603 3.44429C 0.684603 3.16341 0.917598 2.93644 1.20237 2.93644L 13.5281 2.93644C 13.8129 2.93644 14.0459 3.16625 14.0459 3.44429L 14.0459 10.5513C 14.043 10.8322 13.81 11.062 13.5252 11.062Z"/>
<path id="path2_fill" d="M 0.460206 2.93646L 0.460206 11.2124L 2.30116 11.2124L 2.30116 14.5603L 5.5372 11.3685L 14.043 11.3685L 14.4054 11.0081L 14.4054 3.12655L 13.8474 2.57614L 0.891678 2.57614L 0.460206 2.93646Z"/>
<path id="path3_fill" d="M 0 0.326309L 11.2528 0.326309C 11.2528 0.326309 12.4552 0.269566 12.4552 1.51224L 12.4552 7.54402L 12.7428 7.54402L 12.7428 1.47535C 12.7428 1.47535 12.8866 -0.00847497 11.2269 3.64776e-05C 9.61033 0.00854792 0 3.64776e-05 0 3.64776e-05L 0 0.326309Z"/>
<path id="path4_fill" d="M 3.47009 3.06509L 1.98265 3.06509C 1.84119 3.06509 1.7276 3.19751 1.7276 3.36241C 1.7276 3.5273 1.84119 3.65972 1.98265 3.65972L 3.47009 3.65972C 3.61155 3.65972 3.72514 3.5273 3.72514 3.36241C 3.72514 3.19751 3.61155 3.06509 3.47009 3.06509Z"/>
<path id="path5_fill" d="M 6.12134 4.76653L 1.98265 4.76653C 1.84119 4.76653 1.7276 4.89894 1.7276 5.06384C 1.7276 5.22873 1.84119 5.36115 1.98265 5.36115L 6.12348 5.36115C 6.26494 5.36115 6.37853 5.22873 6.37853 5.06384C 6.37639 4.90144 6.2628 4.76653 6.12134 4.76653Z"/>
<path id="path6_fill" d="M 8.47255 3.06509L 4.9597 3.06509C 4.81825 3.06509 4.70465 3.19751 4.70465 3.36241C 4.70465 3.5273 4.81825 3.65972 4.9597 3.65972L 8.47255 3.65972C 8.61401 3.65972 8.7276 3.5273 8.7276 3.36241C 8.7276 3.19751 8.61401 3.06509 8.47255 3.06509Z"/>
<path id="path7_fill" d="M 8.47257 4.76653L 7.54881 4.76653C 7.40736 4.76653 7.29376 4.89894 7.29376 5.06384C 7.29376 5.22873 7.40736 5.36115 7.54881 5.36115L 8.47257 5.36115C 8.61403 5.36115 8.72762 5.22873 8.72762 5.06384C 8.72762 4.90144 8.61403 4.76653 8.47257 4.76653Z"/>
<path id="path8_fill" d="M 4.29312 6.47046L 1.98265 6.47046C 1.84119 6.47046 1.7276 6.60288 1.7276 6.76777C 1.7276 6.93267 1.84119 7.06509 1.98265 7.06509L 4.29312 7.06509C 4.43457 7.06509 4.54817 6.93267 4.54817 6.76777C 4.54817 6.60288 4.43457 6.47046 4.29312 6.47046Z"/>
<path id="path9_fill" d="M 8.47248 6.47046L 5.64977 6.47046C 5.50831 6.47046 5.39471 6.60288 5.39471 6.76777C 5.39471 6.93267 5.50831 7.06509 5.64977 7.06509L 8.47248 7.06509C 8.61393 7.06509 8.72753 6.93267 8.72753 6.76777C 8.72753 6.60288 8.61393 6.47046 8.47248 6.47046Z"/>
</defs>
</svg>
