<?xml version="1.0" encoding="utf-8"?>
<!-- Generator: Adobe Illustrator 22.1.0, SVG Export Plug-In . SVG Version: 6.00 Build 0)  -->
<svg version="1.1" id="Слой_2" xmlns="http://www.w3.org/2000/svg" xmlns:xlink="http://www.w3.org/1999/xlink" x="0px" y="0px"
	 viewBox="0 0 512 512" style="enable-background:new 0 0 512 512;" xml:space="preserve">
<style type="text/css">
	.st0{fill-opacity:0.5;}
</style>
<path id="path0_fill_1_" class="st0" d="M511.3,219.9c-0.5-1.1-1.2-2.2-2.1-3L393.3,105.1c-3.8-3.6-9.9-3.6-13.7,0
	c-3.8,3.6-3.8,9.5,0,13.2l99.4,95.8H270.6c-5.3,0-9.7,4.2-9.7,9.3c0,5.1,4.3,9.3,9.7,9.3h208.5l-99.4,95.8c-3.8,3.6-3.8,9.5,0,13.2
	c1.9,1.8,4.4,2.7,6.8,2.7c2.5,0,4.9-0.9,6.8-2.7L509.2,230c0.9-0.9,1.6-1.9,2.1-3C512.3,224.7,512.3,222.1,511.3,219.9z"/>
<path id="path1_fill_1_" class="st0" d="M338.2,270c-5.3,0-9.7,4.2-9.7,9.3v148.9h-96.6V74.5c0-4.1-2.7-7.6-6.7-8.9l-153.2-47h256.6
	v148.9c0,5.1,4.3,9.3,9.7,9.3s9.7-4.2,9.7-9.3V9.3c0-5.1-4.3-9.3-9.7-9.3H9.7C9.4,0,9.1,0.1,8.8,0.2c-0.5,0-1,0.2-1.5,0.3
	C6.4,0.7,5.6,1,4.8,1.5C4.6,1.6,4.3,1.6,4,1.8C3.7,2,3.5,2.3,3.2,2.5C3,2.7,2.9,2.8,2.7,2.9C2,3.7,1.4,4.6,0.9,5.5
	C0.9,5.7,0.8,5.9,0.7,6c-0.4,1-0.7,2.1-0.7,3.3v428.2c0,1.2,0.3,2.3,0.7,3.3c0.1,0.3,0.3,0.6,0.5,1c0.4,0.7,0.8,1.3,1.3,1.8
	c0.3,0.3,0.6,0.6,0.9,0.8c0.6,0.5,1.2,0.9,1.9,1.2c0.4,0.2,0.7,0.4,1.1,0.5c0.2,0.1,0.3,0.2,0.5,0.2l212.5,65.2
	c0.9,0.3,1.9,0.4,2.9,0.4c2,0,4-0.6,5.7-1.8c2.5-1.8,4-4.5,4-7.5v-55.9h106.3c5.3,0,9.7-4.2,9.7-9.3V279.3
	C347.8,274.1,343.5,270,338.2,270z"/>
</svg>
