<svg width="811" height="512" viewBox="0 0 811 512" version="1.1" xmlns="http://www.w3.org/2000/svg" xmlns:xlink="http://www.w3.org/1999/xlink">
<title>&#208;&#179;&#208;&#187;&#208;&#176;&#208;&#183; </title>
<desc>Created using Figma</desc>
<g id="Canvas" transform="matrix(42.6667 0 0 42.6667 7424 -81749.3)">
<g id="&#208;&#179;&#208;&#187;&#208;&#176;&#208;&#183; ">
<g id="Vector">
<use xlink:href="#path0_fill" transform="translate(-174 1916)"/>
</g>
<g id="Vector (Stroke)">
<use xlink:href="#path1_fill" transform="translate(-168.399 1917.91)" fill="#FFFFFF"/>
</g>
</g>
</g>
<defs>
<path id="path0_fill" d="M 18.9383 6.22297C 15.021 12.5209 9.3916 11.9889 9.3916 11.9889C 3.9641 11.9811 0.734507 7.29479 0.0616762 6.21515C -0.0205587 6.08215 -0.0205587 5.91003 0.0616762 5.77703C 0.734507 4.70521 3.9641 0.0111124 9.3916 0.0111124C 9.3916 0.0111124 15.021 -0.520885 18.9383 5.77703C 19.0206 5.91003 19.0206 6.08215 18.9383 6.22297Z"/>
<path id="path1_fill" fill-rule="evenodd" d="M 3.90242 1.40823C 2.49036 1.40823 1.34566 2.60615 1.34566 4.08387C 1.34566 5.56158 2.49036 6.7595 3.90242 6.7595C 5.31448 6.7595 6.45918 5.56158 6.45918 4.08387C 6.45918 2.60615 5.31448 1.40823 3.90242 1.40823ZM 0 4.08387C 0 1.82841 1.74717 0 3.90242 0C 6.05767 0 7.80484 1.82841 7.80484 4.08387C 7.80484 6.33932 6.05767 8.16773 3.90242 8.16773C 1.74717 8.16773 0 6.33932 0 4.08387Z"/>
</defs>
</svg>
