<svg width="512" height="512" viewBox="0 0 512 512" version="1.1" xmlns="http://www.w3.org/2000/svg" xmlns:xlink="http://www.w3.org/1999/xlink">
<title>Vector</title>
<desc>Created using Figma</desc>
<g id="Canvas" transform="matrix(25.6 0 0 25.6 -3968 4352)">
<g id="Vector">
<use xlink:href="#path0_fill" transform="translate(155 -170)"/>
</g>
</g>
<defs>
<path id="path0_fill" d="M 7.59591 9.45075C 7.80771 9.67914 7.924 9.9775 7.924 10.2861L 7.924 19.3809C 7.924 19.9283 8.59055 20.2061 8.98508 19.8213L 11.5454 16.9138C 11.888 16.5064 12.077 16.3047 12.077 15.9015L 12.077 10.2882C 12.077 9.97956 12.1953 9.6812 12.405 9.45278L 19.7516 1.55352C 20.3019 0.960918 19.8783 0 19.0643 0L 0.936607 0C 0.122626 0 -0.303053 0.958861 0.249291 1.55352L 7.59591 9.45075Z"/>
</defs>
</svg>
