<svg width="512" height="512" viewBox="0 0 512 512" version="1.1" xmlns="http://www.w3.org/2000/svg" xmlns:xlink="http://www.w3.org/1999/xlink">
<title>icons status </title>
<desc>Created using Figma</desc>
<g id="Canvas" transform="matrix(26.9474 0 0 26.9474 23390.3 -86716.6)">
<g id="icons status ">
<g id="Vector">
<use xlink:href="#path0_fill" transform="translate(-868 3218)" fill="#C0C7DA"/>
</g>
<g id="Vector">
<use xlink:href="#path1_fill" transform="translate(-864.2 3221.8)" fill="#F6F7FB"/>
</g>
<g id="Vector">
<use xlink:href="#path2_stroke" transform="translate(-857.55 3228.45)" fill="#C0C7DA"/>
</g>
</g>
</g>
<defs>
<path id="path0_fill" d="M 9.5 0C 4.275 0 0 4.275 0 9.5C 0 14.725 4.275 19 9.5 19C 14.725 19 19 14.725 19 9.5C 19 4.275 14.725 0 9.5 0ZM 9.5 17.1C 7.41 17.1 5.51 16.245 4.085 14.915L 14.915 4.085C 16.245 5.51 17.1 7.41 17.1 9.5C 17.1 13.68 13.68 17.1 9.5 17.1Z"/>
<path id="path1_fill" d="M 4.83855 -1.949e-07L 2.1312 3.05311L 0.743955 1.51107L 8.00187e-08 2.33475L 2.18713 4.75L 5.7 0.978495L 4.83855 -1.949e-07Z"/>
<path id="path2_stroke" d="M 3.44645 -0.353553L 1.54645 1.54645L 2.25355 2.25355L 4.15355 0.353553L 3.44645 -0.353553ZM 1.54645 1.54645L -0.353553 3.44645L 0.353553 4.15355L 2.25355 2.25355L 1.54645 1.54645ZM 2.25355 1.54645L 0.353553 -0.353553L -0.353553 0.353553L 1.54645 2.25355L 2.25355 1.54645ZM -0.353553 0.353553L 3.44645 4.15355L 4.15355 3.44645L 0.353553 -0.353553L -0.353553 0.353553Z"/>
</defs>
</svg>
