<svg width="512" height="512" viewBox="0 0 512 512" version="1.1" xmlns="http://www.w3.org/2000/svg" xmlns:xlink="http://www.w3.org/1999/xlink">
<title>Vector</title>
<desc>Created using Figma</desc>
<g id="Canvas" transform="matrix(17.0667 0 0 17.0667 -44612.3 -25975.5)">
<g id="Vector">
<use xlink:href="#path0_fill" transform="translate(2614 1522)" fill="#50BCED"/>
<use xlink:href="#path1_fill" transform="translate(2614 1522)" fill="#50BCED"/>
</g>
</g>
<defs>
<path id="path0_fill" fill-rule="evenodd" d="M 15 2.30769C 7.99023 2.30769 2.30769 7.99023 2.30769 15C 2.30769 22.0098 7.99023 27.6923 15 27.6923C 22.0098 27.6923 27.6923 22.0098 27.6923 15C 27.6923 7.99023 22.0098 2.30769 15 2.30769ZM 15 0C 6.71573 1.01453e-15 -1.01453e-15 6.71573 0 15C 1.01453e-15 23.2843 6.71573 30 15 30C 23.2843 30 30 23.2843 30 15C 30 6.71573 23.2843 -1.01453e-15 15 0Z"/>
<path id="path1_fill" fill-rule="evenodd" d="M 15.9551 23.5354L 13.6759 23.5354L 13.6759 13.1651L 15.9551 13.1651L 15.9551 23.5354ZM 13.6759 10.0881L 13.6759 7.80892L 15.9551 7.80892L 15.9551 10.0881L 13.6759 10.0881Z"/>
</defs>
</svg>
