<?xml version="1.0" encoding="utf-8"?>
<!-- Generator: Adobe Illustrator 22.1.0, SVG Export Plug-In . SVG Version: 6.00 Build 0)  -->
<svg version="1.1" id="Слой_2" xmlns="http://www.w3.org/2000/svg" xmlns:xlink="http://www.w3.org/1999/xlink" x="0px" y="0px"
	 viewBox="0 0 578 512" style="enable-background:new 0 0 578 512;" xml:space="preserve">
<style type="text/css">
	.st0{fill:#576077;}
</style>
<path id="path0_fill_1_" class="st0" d="M560.7,280.2c29.2-29.2,20.2-88.2-30.4-88.2L396.9,192c5.1-28.3,12.4-75.2,12.1-79.6
	c-2.8-42-29.5-93-30.6-95.1C373.5,8.2,349-4.1,324.3,1.2c-32,6.9-35.2,27.3-35.1,32.9c0,0,1.4,55.9,1.5,70.8
	c-15.3,33.6-68,122.1-83.9,128.9c-3.8-2.3-8.2-3.6-12.7-3.6H25.7c-14.3,0-25.8,11.6-25.8,25.9l0,233.3c1,12.6,11.7,22.4,24.3,22.4
	h151.3c13.4,0,24.3-10.9,24.3-24.4v-7.7c0,0,5.6-0.4,8.2,1.2c9.7,6.2,21.7,14,37.4,14h225.7c84.4,0,75.3-75.1,67.6-85.3
	c14.3-15.6,23.1-43,11-64.7C559,335.1,575.2,308.1,560.7,280.2z M170.2,487.5H24.1V254.6h146.1V487.5z M521.3,278.2l-1.4,5.8
	c38.9,11.1,18.2,56-9.7,58.9l-1.4,5.8c37.3,9.5,19.5,55.8-9.7,58.9l-1.4,5.7c30.4,5,23.1,57.1-23.1,57.1l-229.6,0.1
	c-16.2,0-31-18.5-42.9-18.5h-10.4V272.8c13-8.1,28.9-18.5,37.8-26.1c16.7-14.3,85.3-125.4,85.3-139.2c0-13.9-1.5-74-1.5-74
	s13.4-17.4,43.4-4.7c0,0,25.3,47.5,27.8,85.3c0,0-11.4,77.9-17.5,102.4h159.2C565.4,216.4,557.9,272.4,521.3,278.2z"/>
</svg>
