<svg width="578" height="512" viewBox="0 0 578 512" version="1.1" xmlns="http://www.w3.org/2000/svg" xmlns:xlink="http://www.w3.org/1999/xlink">
<title>Vector</title>
<desc>Created using Figma</desc>
<g id="Canvas" transform="matrix(10.8936 0 0 10.8936 -88216.5 -61254.8)">
<g id="Vector">
<use xlink:href="#path0_fill" transform="translate(8098 5623)" fill="#576077"/>
</g>
</g>
<defs>
<path id="path0_fill" d="M 51.4784 25.7286C 54.1632 23.0489 53.3336 17.6284 48.6832 17.6284L 36.4472 17.6366C 36.9118 15.0388 37.5849 10.7323 37.5582 10.3257C 37.3013 6.4748 34.8529 1.78809 34.747 1.59626C 34.3005 0.762507 32.0458 -0.367894 29.7768 0.116466C 26.8433 0.746065 26.5436 2.62219 26.5556 3.13943C 26.5556 3.13943 26.682 8.27179 26.6943 9.64129C 25.2918 12.7297 20.4558 20.846 18.9901 21.4714C 18.6396 21.2587 18.2419 21.1443 17.8281 21.1443L 2.36911 21.1443C 1.05609 21.1443 0 22.2089 0 23.5192L 0.00204999 44.9396C 0.093958 46.0943 1.07249 47 2.22834 47L 16.1136 47C 17.345 47 18.3461 45.9963 18.3461 44.7618L 18.3461 44.0507C 18.3461 44.0507 18.862 44.012 19.0964 44.163C 19.9891 44.7313 21.0924 45.4466 22.5315 45.4466L 43.2524 45.4466C 50.9994 45.4466 50.1677 38.5525 49.4602 37.6122C 50.7691 36.1834 51.5785 33.6633 50.4735 31.6725C 51.3215 30.7712 52.8139 28.2939 51.4784 25.7286ZM 15.6367 44.7577L 2.22424 44.7577L 2.22424 23.3801L 15.6367 23.3801L 15.6367 44.7577ZM 47.8639 25.5447L 47.7375 26.0739C 51.3072 27.0916 49.4072 31.2165 46.8464 31.4841L 46.72 32.0133C 50.1428 32.8861 48.51 37.1333 45.8289 37.4235L 45.7025 37.9506C 48.4977 38.4107 47.8208 43.1933 43.5862 43.1933L 22.5103 43.2015C 21.022 43.2015 19.6663 41.5011 18.5716 41.5011L 17.6163 41.5011L 17.6163 25.0459C 18.807 24.306 20.2707 23.3455 21.0842 22.6525C 22.6213 21.3382 28.9127 11.1454 28.9127 9.86977C 28.9127 8.59413 28.774 3.07572 28.774 3.07572C 28.774 3.07572 30.0074 1.48151 32.7616 2.64445C 32.7616 2.64445 35.0795 7.00198 35.3159 10.4747C 35.3159 10.4747 34.2721 17.6284 33.7114 19.8728L 48.3228 19.8728C 51.9126 19.8769 51.2276 25.0154 47.8639 25.5447Z"/>
</defs>
</svg>
