<svg width="17" height="18" viewBox="0 0 17 18" fill="none" xmlns="http://www.w3.org/2000/svg">
<path d="M9.44523 9.07013C9.17853 9.07013 8.96159 9.28024 8.96159 9.53851V11.1039C8.96159 11.3622 9.17856 11.5723 9.44523 11.5723H16V9.07016L9.44523 9.07013ZM10.2609 11.0432C9.84909 11.0432 9.51522 10.72 9.51522 10.3212C9.51522 9.92238 9.84905 9.59907 10.2609 9.59907C10.6727 9.59907 11.0066 9.92234 11.0066 10.3212C11.0065 10.72 10.6727 11.0432 10.2609 11.0432Z" fill="black"/>
<path d="M9.47457 7.97707H16.0293V5.29685C16.0293 4.43587 15.306 3.73545 14.4169 3.73545L1.6124 3.73544C0.723336 3.73544 0 4.43586 0 5.29684V16.4386C0 17.2996 0.723336 18 1.6124 18L14.4169 18C15.306 18 16.0293 17.2996 16.0293 16.4386V12.6653H9.47457C8.58547 12.6653 7.86217 11.9649 7.86217 11.1039V9.53851C7.86217 8.67753 8.58554 7.97707 9.47457 7.97707Z" fill="black"/>
<path d="M12.8166 0L5.15875 2.64234H13.7889L12.8166 0Z" fill="black"/>
</svg>
