<?xml version="1.0" encoding="utf-8"?>
<!-- Generator: Adobe Illustrator 22.1.0, SVG Export Plug-In . SVG Version: 6.00 Build 0)  -->
<svg version="1.1" id="Слой_2" xmlns="http://www.w3.org/2000/svg" xmlns:xlink="http://www.w3.org/1999/xlink" x="0px" y="0px"
	 viewBox="0 0 512 512" style="enable-background:new 0 0 512 512;" xml:space="preserve">
<style type="text/css">
	.st0{fill:#EB5757;}
	.st1{fill:#F2F2F2;}
</style>
<path id="path0_fill_1_" class="st0" d="M513,255.9c0,141.4-114.6,256-256,256c-141.4,0-256-114.6-256-256
	c0-141.4,114.6-256,256-256C398.4-0.1,513,114.5,513,255.9z"/>
<path id="path1_fill_1_" class="st1" d="M232.9,274l-99.5-116.1l27.8-23.8L257,245.9l95.8-111.8l27.8,23.8L281,274l99.5,116.1
	l-27.8,23.8L257,302.1l-95.8,111.8l-27.8-23.8L232.9,274z"/>
<path id="path0_fill_2_" class="st0" d="M513,255.9c0,141.4-114.6,256-256,256c-141.4,0-256-114.6-256-256
	c0-141.4,114.6-256,256-256C398.4-0.1,513,114.5,513,255.9z"/>
<path id="path1_fill_2_" class="st1" d="M232.9,274l-99.5-116.1l27.8-23.8L257,245.9l95.8-111.8l27.8,23.8L281,274l99.5,116.1
	l-27.8,23.8L257,302.1l-95.8,111.8l-27.8-23.8L232.9,274z"/>
</svg>
