<svg id="Слой_1" data-name="Слой 1" xmlns="http://www.w3.org/2000/svg" viewBox="0 0 396 512"><defs><style>.cls-1{fill:#eb5757;}.cls-2{fill:#fff;}</style></defs><title>no bot</title><g id="Canvas"><g id="no_bot" data-name="no bot"><g id="Vector"><path id="path0_fill" data-name="path0 fill" class="cls-1" d="M170.22,333.82l-41.07,42.94v.65l41.74-43.59Zm-58,60.67L83.35,424.64h.58l28.87-30.15Zm196-204.92-21.3,22.27.3.52,21.33-22.28Q308.38,189.83,308.2,189.57Zm19.63,38.84c-.83-.7-1.66-1.56-2.5-2.27l-20.69,21.61a30.74,30.74,0,0,1,13.22,25.4c0,16.68-13.07,30.34-29,30.34a28.75,28.75,0,0,1-24.31-13.83l-19.62,20.49a57.42,57.42,0,0,0,43.93,23.67,53.7,53.7,0,0,0,14.52-2.09v62.76H245.28V349c0-8.34-6.54-15.17-14.52-15.17h-8.53l-29,30.34h23.06v30.33h-52.1l-28.87,30.15H317.86l-34.84.19h34.84c8,0,14.51-6.83,14.51-15.17V312.78C353.42,288.13,351.24,250.4,327.83,228.41ZM286,212.77l-53,55.39c0,.28-.05.55-.06.83l53.89-56.28Z"/></g><g id="Vector_Stroke_" data-name="Vector (Stroke)"><path class="cls-1" d="M343.85,98.66l-59.39,62.09a142.92,142.92,0,0,0-82.55-38.52V88.29C224.59,80,236.38,54,228.4,30.28c-8.16-23.7-33-36-55.7-27.68s-34.48,34.31-26.5,58a44.58,44.58,0,0,0,26.5,27.68v33.94c-57,6.26-105.24,46.83-123.21,103.71-24.86,20.48-29.21,58-9.61,83.8a32.76,32.76,0,0,0,2.35,2.85v96.88a15.42,15.42,0,0,0,.52,4L0,458.14l25.66,26.8,57.68-60.3,28.84-30.15,17-17.73,41.07-42.94L233,268.16l53-55.39.89-.93,21.3-22.27,61.32-64.1ZM187.21,30.47c8,0,14.52,6.82,14.52,15.16S195.2,60.8,187.21,60.8,172.7,54,172.7,45.63,179.23,30.47,187.21,30.47ZM56.57,273.15c0-16.68,13.06-30.34,29-30.34s29,13.66,29,30.34-13.06,30.34-29,30.34S56.57,289.83,56.57,273.15ZM71.08,383.84V331.73a53.7,53.7,0,0,0,14.52,2.09c32.12-1.14,57.16-29.39,55.89-62.76-1.09-31.28-24.68-56.5-54.44-58.39,31.39-57.83,101.8-77.93,157.14-45.13a112.62,112.62,0,0,1,19.65,14.77Z"/></g><g id="Vector_Stroke_2" data-name="Vector (Stroke)"><path class="cls-2" d="M395.64,152.71l-70.31,73.43-20.69,21.61-40.13,41.91-19.62,20.49-22.66,23.67-29,30.34-29,30.33-28.87,30.15L51.62,512,26,485.18l58-60.54,28.87-30.15,16.35-17.08,41.74-43.59L233,269l53.89-56.28.51,0-.17-.31,21.33-22.28L370,125.89Z"/><path class="cls-2" d="M287.37,212.67l-.51,0,.34-.35Z"/></g></g></g></svg>