<?xml version="1.0" encoding="utf-8"?>
<!-- Generator: Adobe Illustrator 22.1.0, SVG Export Plug-In . SVG Version: 6.00 Build 0)  -->
<svg version="1.1" id="Слой_2" xmlns="http://www.w3.org/2000/svg" xmlns:xlink="http://www.w3.org/1999/xlink" x="0px" y="0px"
	 viewBox="0 0 512 512" style="enable-background:new 0 0 512 512;" xml:space="preserve">
<style type="text/css">
	.st0{fill:#ABAFBB;}
</style>
<path id="path0_fill_1_" class="st0" d="M288,421c8.3,0,15-6.7,15-15c0-8.3-6.7-15-15-15c-8.3,0-15,6.7-15,15
	C273,414.3,279.7,421,288,421z"/>
<path id="path1_fill_1_" class="st0" d="M498,90h-45V45c0-8.3-6.7-15-15-15h-60c-13.7-18.2-35.5-30-60-30s-46.3,11.8-60,30H16
	C7.7,30,1,36.7,1,45v391c0,8.3,6.7,15,15,15h45v46c0,8.3,6.7,15,15,15h307.1c20,0,38.9-7.8,53-22c0,0,0.1-0.1,0.1-0.1l54.8-55.8
	c14.1-14.2,21.9-33,21.9-53V105C513,96.7,506.3,90,498,90z M391.5,60H423v30h-31.5c1-4.8,1.5-9.9,1.5-15
	C393,69.9,392.5,64.8,391.5,60z M318,30c24.8,0,45,20.2,45,45c0,24.8-20.2,45-45,45c-24.8,0-45-20.2-45-45C273,50.2,293.2,30,318,30
	z M61,105v316H31V59.9h213.5c-1,4.8-1.5,10-1.5,15.1c0,5.1,0.5,10.2,1.5,15H76C67.7,90,61,96.7,61,105z M469.8,413
	C469.8,413,469.7,413,469.8,413l-54.9,55.9c-6.1,6.1-13.7,10.2-21.9,12V391h88.9C480.1,399.3,475.9,406.8,469.8,413z M483,361H378
	c-8.3,0-15,6.7-15,15v106H91V120h167c2.1,2.7,4.3,5.3,6.7,7.8l-19.3,28.9c-4.6,6.9-2.7,16.2,4.2,20.8c6.9,4.6,16.2,2.7,20.8-4.2
	l19.2-28.9c8.7,3.6,18.3,5.6,28.3,5.6c24.5,0,46.3-11.8,60-30h105V361z"/>
<path id="path2_fill_1_" class="st0" d="M438,211H136c-8.3,0-15,6.7-15,15c0,8.3,6.7,15,15,15h302c8.3,0,15-6.7,15-15
	C453,217.7,446.3,211,438,211z"/>
<path id="path3_fill_1_" class="st0" d="M438,271H136c-8.3,0-15,6.7-15,15c0,8.3,6.7,15,15,15h302c8.3,0,15-6.7,15-15
	C453,277.7,446.3,271,438,271z"/>
<path id="path4_fill_1_" class="st0" d="M318,331H136c-8.3,0-15,6.7-15,15c0,8.3,6.7,15,15,15h182c8.3,0,15-6.7,15-15
	C333,337.7,326.3,331,318,331z"/>
<path id="path5_fill_1_" class="st0" d="M228,391h-92c-8.3,0-15,6.7-15,15c0,8.3,6.7,15,15,15h92c8.3,0,15-6.7,15-15
	C243,397.7,236.3,391,228,391z"/>
</svg>
