<svg width="512" height="512" viewBox="0 0 512 512" version="1.1" xmlns="http://www.w3.org/2000/svg" xmlns:xlink="http://www.w3.org/1999/xlink">
<title>Vector</title>
<desc>Created using Figma</desc>
<g id="Canvas" transform="matrix(4.92308 0 0 4.92308 -20219.1 -34.4615)">
<g id="Vector">
<use xlink:href="#path0_fill" transform="translate(4107 7)" fill="#ABAFBB"/>
<use xlink:href="#path1_fill" transform="translate(4107 7)" fill="#ABAFBB"/>
<use xlink:href="#path2_fill" transform="translate(4107 7)" fill="#ABAFBB"/>
<use xlink:href="#path3_fill" transform="translate(4107 7)" fill="#ABAFBB"/>
<use xlink:href="#path4_fill" transform="translate(4107 7)" fill="#ABAFBB"/>
<use xlink:href="#path5_fill" transform="translate(4107 7)" fill="#ABAFBB"/>
</g>
</g>
<defs>
<path id="path0_fill" d="M 58.2969 85.5156C 59.9796 85.5156 61.3438 84.1515 61.3438 82.4688C 61.3438 80.786 59.9796 79.4219 58.2969 79.4219C 56.6141 79.4219 55.25 80.786 55.25 82.4688C 55.25 84.1515 56.6141 85.5156 58.2969 85.5156Z"/>
<path id="path1_fill" d="M 100.953 18.2812L 91.8125 18.2812L 91.8125 9.14062C 91.8125 7.45794 90.4483 6.09375 88.7656 6.09375L 76.5698 6.09375C 73.7876 2.39606 69.3639 0 64.3906 0C 59.4173 0 54.9937 2.39606 52.2114 6.09375L 3.04688 6.09375C 1.36419 6.09375 0 7.45794 0 9.14062L 0 88.5625C 0 90.2452 1.36419 91.6094 3.04688 91.6094L 12.1875 91.6094L 12.1875 100.953C 12.1875 102.636 13.5517 104 15.2344 104L 77.6236 104C 81.6928 104 85.5185 102.415 88.3957 99.5379C 88.4022 99.5314 88.4085 99.525 88.4152 99.5185L 99.5489 88.1821C 102.419 85.3058 104 81.4844 104 77.4205L 104 21.3281C 104 19.6454 102.636 18.2812 100.953 18.2812ZM 79.3185 12.1875L 85.7188 12.1875L 85.7188 18.2812L 79.3185 18.2812C 79.5192 17.2965 79.625 16.2776 79.625 15.2344C 79.625 14.1911 79.5192 13.1722 79.3185 12.1875ZM 64.3906 6.09375C 69.4308 6.09375 73.5312 10.1942 73.5312 15.2344C 73.5312 20.2745 69.4308 24.375 64.3906 24.375C 59.3505 24.375 55.25 20.2745 55.25 15.2344C 55.25 10.1942 59.3505 6.09375 64.3906 6.09375ZM 12.1875 21.3281L 12.1875 85.5156L 6.09375 85.5156L 6.09375 12.1672L 49.4628 12.1672C 49.2621 13.1519 49.1562 14.1911 49.1562 15.2344C 49.1562 16.2776 49.2621 17.2965 49.4628 18.2812L 15.2344 18.2812C 13.5517 18.2812 12.1875 19.6454 12.1875 21.3281ZM 95.2293 83.8839C 95.2226 83.8904 95.2163 83.8969 95.2098 83.9034L 84.0775 95.2384C 82.835 96.4775 81.2979 97.3129 79.625 97.6848L 79.625 79.4219L 97.6851 79.4219C 97.3121 81.0991 96.4734 82.6396 95.2293 83.8839ZM 97.9062 73.3281L 76.5781 73.3281C 74.8954 73.3281 73.5312 74.6923 73.5312 76.375L 73.5312 97.9062L 18.2812 97.9062L 18.2812 24.375L 52.2114 24.375C 52.6315 24.9334 53.0894 25.4617 53.5805 25.9567L 49.6681 31.8254C 48.7346 33.2256 49.113 35.1173 50.5131 36.0506C 51.9139 36.9846 53.8056 36.605 54.7383 35.2056L 58.6481 29.3412C 60.4214 30.066 62.3594 30.4688 64.3906 30.4688C 69.3639 30.4688 73.7876 28.0727 76.5698 24.375L 97.9062 24.375L 97.9062 73.3281Z"/>
<path id="path2_fill" d="M 88.7656 42.8594L 27.4219 42.8594C 25.7392 42.8594 24.375 44.2236 24.375 45.9062C 24.375 47.5889 25.7392 48.9531 27.4219 48.9531L 88.7656 48.9531C 90.4483 48.9531 91.8125 47.5889 91.8125 45.9062C 91.8125 44.2236 90.4483 42.8594 88.7656 42.8594Z"/>
<path id="path3_fill" d="M 88.7656 55.0469L 27.4219 55.0469C 25.7392 55.0469 24.375 56.4111 24.375 58.0938C 24.375 59.7764 25.7392 61.1406 27.4219 61.1406L 88.7656 61.1406C 90.4483 61.1406 91.8125 59.7764 91.8125 58.0938C 91.8125 56.4111 90.4483 55.0469 88.7656 55.0469Z"/>
<path id="path4_fill" d="M 64.3906 67.2344L 27.4219 67.2344C 25.7392 67.2344 24.375 68.5986 24.375 70.2812C 24.375 71.9639 25.7392 73.3281 27.4219 73.3281L 64.3906 73.3281C 66.0733 73.3281 67.4375 71.9639 67.4375 70.2812C 67.4375 68.5986 66.0733 67.2344 64.3906 67.2344Z"/>
<path id="path5_fill" d="M 46.1094 79.4219L 27.4219 79.4219C 25.7392 79.4219 24.375 80.7861 24.375 82.4688C 24.375 84.1514 25.7392 85.5156 27.4219 85.5156L 46.1094 85.5156C 47.7921 85.5156 49.1562 84.1514 49.1562 82.4688C 49.1562 80.7861 47.7921 79.4219 46.1094 79.4219Z"/>
</defs>
</svg>
