<svg width="472" height="512" viewBox="0 0 472 512" version="1.1" xmlns="http://www.w3.org/2000/svg" xmlns:xlink="http://www.w3.org/1999/xlink">
<title>&#208;&#184;&#208;&#186;&#208;&#190;&#208;&#189;&#208;&#186;&#208;&#176; &#208;&#190;&#208;&#189;&#208;&#187;&#208;&#176;&#208;&#185;&#208;&#189; &#208;&#191;&#208;&#187;&#208;&#176;&#209;&#130;&#208;&#181;&#208;&#182;&#208;&#176;</title>
<desc>Created using Figma</desc>
<g id="Canvas" transform="matrix(13.4737 0 0 13.4737 1886.32 -73000.4)">
<g id="&#208;&#184;&#208;&#186;&#208;&#190;&#208;&#189;&#208;&#186;&#208;&#176; &#208;&#190;&#208;&#189;&#208;&#187;&#208;&#176;&#208;&#185;&#208;&#189; &#208;&#191;&#208;&#187;&#208;&#176;&#209;&#130;&#208;&#181;&#208;&#182;&#208;&#176;">
<g id="Vector">
<use xlink:href="#path0_fill" transform="translate(-140 5425.91)" fill="#BADDFA"/>
</g>
<g id="Vector (Stroke)">
<use xlink:href="#path1_fill" transform="translate(-139.889 5425.97)" fill="#465B64"/>
</g>
<g id="Vector">
<use xlink:href="#path2_fill" transform="translate(-135.107 5433.91)" fill="#273238"/>
</g>
<g id="Vector">
<use xlink:href="#path3_fill" transform="translate(-133.233 5452.97)" fill="#465A65"/>
</g>
<g id="Vector">
<use xlink:href="#path4_fill" transform="translate(-133.233 5418)" fill="#398E3D"/>
</g>
<g id="Vector">
<use xlink:href="#path5_fill" transform="translate(-131.651 5419.4)" fill="#A4D5A6"/>
</g>
<g id="Vector">
<use xlink:href="#path6_fill" transform="translate(-124.082 5424.19)" fill="#398E3D"/>
</g>
<g id="Vector">
<use xlink:href="#path7_fill" transform="translate(-132.357 5418.45)" fill="#398E3D"/>
</g>
<g id="Vector">
<use xlink:href="#path7_fill" transform="translate(-117.56 5418.45)" fill="#398E3D"/>
</g>
<g id="Vector">
<use xlink:href="#path8_fill" transform="translate(-128.316 5430.28)" fill="#398E3D"/>
</g>
<g id="Vector" opacity="0.2">
<use xlink:href="#path9_fill" transform="translate(-133.233 5434.93)"/>
</g>
<g id="Vector">
<use xlink:href="#path10_fill" transform="translate(-125.41 5449.64)" fill="#465A65"/>
</g>
</g>
</g>
<defs>
<path id="path0_fill" d="M 35 0L 0 0L 0 23.9185L 35 23.9185L 35 0Z"/>
<path id="path1_fill" fill-rule="evenodd" d="M 0 0L 34.8491 0L 34.8491 23.8037L 0 23.8037L 0 0ZM 2.9694 3.04599L 2.9694 20.7577L 31.8797 20.7577L 31.8797 3.04599L 2.9694 3.04599Z"/>
<path id="path2_fill" d="M 24.057 6.05702L 1.15855 6.05702C 0.520862 6.05702 0 5.52273 0 4.86859L 0 1.18843C 0 0.534296 0.520862 6.09549e-07 1.15855 6.09549e-07L 24.057 6.09549e-07C 24.6947 6.09549e-07 25.2156 0.534296 25.2156 1.18843L 25.2156 4.86859C 25.2156 5.52273 24.6947 6.05702 24.057 6.05702Z"/>
<path id="path3_fill" d="M 21.4673 3.03101L 0 3.03101L 0 1.89251C 0 0.848883 0.827538 -6.09549e-07 1.84492 -6.09549e-07L 19.6224 -6.09549e-07C 20.6398 -6.09549e-07 21.4673 0.848883 21.4673 1.89251L 21.4673 3.03101Z"/>
<path id="path4_fill" d="M 21.4673 0L 0 0L 0 18.975L 21.4673 18.975L 21.4673 0Z"/>
<path id="path5_fill" d="M 18.3032 0L 0 0L 0 17.5769L 18.3032 17.5769L 18.3032 0Z"/>
<path id="path6_fill" d="M 1.53338 3.14586C 2.38024 3.14586 3.06676 2.44163 3.06676 1.57293C 3.06676 0.704224 2.38024 0 1.53338 0C 0.686518 0 0 0.704224 0 1.57293C 0 2.44163 0.686518 3.14586 1.53338 3.14586Z"/>
<path id="path7_fill" d="M 2.50695 5.14323C 3.89151 5.14323 5.01391 3.99188 5.01391 2.57161C 5.01391 1.15135 3.89151 0 2.50695 0C 1.1224 0 0 1.15135 0 2.57161C 0 3.99188 1.1224 5.14323 2.50695 5.14323Z"/>
<path id="path8_fill" d="M 11.5369 5.91721C 11.5369 6.17687 11.5223 6.43652 11.4882 6.69119L 0.0486787 6.69119C 0.0146036 6.43652 0 6.18186 0 5.91721C 0 5.47779 0.0486789 5.05335 0.136301 4.64389C 0.705842 1.98738 3.00834 0 5.76843 0C 8.52851 0 10.8359 1.98738 11.4006 4.64389C 11.4882 5.05335 11.5369 5.47779 11.5369 5.91721Z"/>
<path id="path9_fill" d="M 21.4673 0L 0 0L 0 2.0473L 21.4673 2.0473L 21.4673 0Z"/>
<path id="path10_fill" d="M 5.81224 0L 0 0L 0 3.33061L 5.81224 3.33061L 5.81224 0Z"/>
</defs>
</svg>
