<?xml version="1.0" encoding="utf-8"?>
<!-- Generator: Adobe Illustrator 22.1.0, SVG Export Plug-In . SVG Version: 6.00 Build 0)  -->
<svg version="1.1" id="Слой_1" xmlns="http://www.w3.org/2000/svg" xmlns:xlink="http://www.w3.org/1999/xlink" x="0px" y="0px"
	 viewBox="0 0 478 512" style="enable-background:new 0 0 478 512;" xml:space="preserve">
<style type="text/css">
	.st0{fill:#FFFFFF;}
</style>
<path d="M465.2,0H12.6C5.7,0,0,5.9,0,13.1c0,7.2,5.7,13.1,12.6,13.1h27.3v472.3c0,4.8,2.5,9.3,6.6,11.6c4.1,2.3,9.1,2.1,12.9-0.7
	l54.8-37.9l55,38c4.2,2.9,9.8,2.9,14,0l54.8-37.9l55,38c4.2,2.9,9.8,2.9,14,0l54.8-37.9l55.1,38c2.1,1.4,4.5,2.2,6.9,2.2
	c2,0,4.1-0.5,6-1.5c4.1-2.3,6.6-6.8,6.6-11.6l-0.2-472.3h28.7c6.9,0,12.6-5.9,12.6-13.1C477.9,6.2,472.2,0,465.2,0z"/>
<path class="st0" d="M123.3,209.3h132.3c6.9,0,12.6-5.9,12.6-13.1c0-7.2-5.7-13.1-12.6-13.1H123.3c-6.9,0-12.6,5.9-12.6,13.1
	C110.6,203.4,116.2,209.3,123.3,209.3z"/>
<path class="st0" d="M123.3,254.9h99.2c6.9,0,12.6-5.9,12.6-13.1c0-7.2-5.7-13.1-12.6-13.1h-99.2c-6.9,0-12.6,5.9-12.6,13.1
	C110.6,249,116.2,254.9,123.3,254.9z"/>
<path class="st0" d="M321.7,209.3h33.1c6.9,0,12.6-5.9,12.6-13.1c0-7.2-5.7-13.1-12.6-13.1h-33.1c-6.9,0-12.6,5.9-12.6,13.1
	C309,203.4,314.6,209.3,321.7,209.3z"/>
<path class="st0" d="M321.7,254.9h33.1c6.9,0,12.6-5.9,12.6-13.1c0-7.2-5.7-13.1-12.6-13.1h-33.1c-6.9,0-12.6,5.9-12.6,13.1
	C309,249,314.6,254.9,321.7,254.9z"/>
<path class="st0" d="M123.3,104.1h132.3c6.9,0,12.6-5.9,12.6-13.1c0-7.2-5.7-13.1-12.6-13.1H123.3c-6.9,0-12.6,5.9-12.6,13.1
	C110.6,98.2,116.2,104.1,123.3,104.1z"/>
<path class="st0" d="M123.3,149.5h99.2c6.9,0,12.6-5.9,12.6-13.1c0-7.2-5.7-13.1-12.6-13.1h-99.2c-6.9,0-12.6,5.9-12.6,13.1
	C110.6,143.6,116.2,149.5,123.3,149.5z"/>
<path class="st0" d="M321.7,104.1h33.1c6.9,0,12.6-5.9,12.6-13.1c0-7.2-5.7-13.1-12.6-13.1h-33.1c-6.9,0-12.6,5.9-12.6,13.1
	C309,98.2,314.6,104.1,321.7,104.1z"/>
<path class="st0" d="M321.7,149.5h33.1c6.9,0,12.6-5.9,12.6-13.1c0-7.2-5.7-13.1-12.6-13.1h-33.1c-6.9,0-12.6,5.9-12.6,13.1
	C309,143.6,314.6,149.5,321.7,149.5z"/>
<path class="st0" d="M123.3,315.8h132.3c6.9,0,12.6-5.9,12.6-13.1c0-7.2-5.7-13.1-12.6-13.1H123.3c-6.9,0-12.6,5.9-12.6,13.1
	C110.6,309.9,116.2,315.8,123.3,315.8z"/>
<path class="st0" d="M123.3,361.3h99.2c6.9,0,12.6-5.9,12.6-13.1c0-7.2-5.7-13.1-12.6-13.1h-99.2c-6.9,0-12.6,5.9-12.6,13.1
	C110.6,355.4,116.2,361.3,123.3,361.3z"/>
<path class="st0" d="M321.7,315.8h33.1c6.9,0,12.6-5.9,12.6-13.1c0-7.2-5.7-13.1-12.6-13.1h-33.1c-6.9,0-12.6,5.9-12.6,13.1
	C309,309.9,314.6,315.8,321.7,315.8z"/>
<path class="st0" d="M321.7,361.3h33.1c6.9,0,12.6-5.9,12.6-13.1c0-7.2-5.7-13.1-12.6-13.1h-33.1c-6.9,0-12.6,5.9-12.6,13.1
	C309,355.4,314.6,361.3,321.7,361.3z"/>
</svg>
