<?xml version="1.0" encoding="utf-8"?>
<!-- Generator: Adobe Illustrator 22.1.0, SVG Export Plug-In . SVG Version: 6.00 Build 0)  -->
<svg version="1.1" id="Слой_2" xmlns="http://www.w3.org/2000/svg" xmlns:xlink="http://www.w3.org/1999/xlink" x="0px" y="0px"
	 viewBox="0 0 578 512" style="enable-background:new 0 0 578 512;" xml:space="preserve">
<style type="text/css">
	.st0{fill:#576077;fill-opacity:0.5;}
</style>
<path id="path0_fill_1_" class="st0" d="M548.8,108.3h-28.9c0-5.3-4.3-9.7-9.6-9.7h-48.1c-5.3,0-9.6,4.3-9.6,9.7h-142L152,24
	c-6.5-17.5-25.8-26.4-43.2-19.9C95.6,9.1,86.9,21.7,86.9,35.8v120.7h-9.6c-15.9,0-28.9,13-28.9,29v38.6c0,16,12.9,29,28.9,29h9.6
	v120.7c0,18.6,15,33.8,33.5,33.8c14.1,0,26.7-8.7,31.6-22l158.6-84.3h17.8l8.7,78.3c0.5,4.9,4.7,8.6,9.6,8.6h19.2l0.1,1
	c0.3,3.3,2.3,6.2,5.3,7.7l14.9,7.5l7.9,47.3l-33.8,25.4c-2.4,1.8-3.8,4.7-3.8,7.7v19.3c0,5.3,4.3,9.7,9.6,9.7h83.4
	c16.3,0,29.4-13.2,29.4-29.5c0-1.3-0.1-2.5-0.2-3.8l-23.8-173.2c1.8,2.3,4.5,3.7,7.4,3.7h48.1c5.3,0,9.6-4.3,9.6-9.7h28.9
	c15.9,0,28.9-13,28.9-29V137.3C577.7,121.3,564.8,108.3,548.8,108.3z M86.9,233.9h-9.6c-5.3,0-9.6-4.3-9.6-9.7v-38.6
	c0-5.3,4.3-9.7,9.6-9.7h9.6V233.9z M135,373.9c0,8-6.5,14.5-14.4,14.5c-8,0-14.4-6.5-14.4-14.5V35.8c0-8,6.5-14.5,14.4-14.5
	c8,0,14.4,6.5,14.4,14.5V373.9z M298.6,286l-144.3,76.7V47.1l144.3,76.7V286z M355.4,369.1l-7.5-67.6h9.4l6.7,67.6H355.4z
	 M317.9,282.2V127.6h134.7v154.6H317.9z M459.5,483.2c0.4,2.9-0.5,5.9-2.5,8.1c-1.9,2.2-4.8,3.5-7.7,3.5h-73.7v-4.8l34.6-26.1
	c2.9-2.2,4.3-5.8,3.7-9.3l-1.7-10.2l24.1-8.1l-6.1-18.4l-21.2,7.1l-3.4-20.4l21.1-7.1l-6.1-18.4l-25.1,8.4l-10.9-5.5l-8-80.6h58
	L459.5,483.2z M500.7,291.8h-28.9V118h28.9V291.8z M558.4,146.9h-19.2v19.3h19.2v29h-19.2v19.3h19.2v29h-19.2v19.3h19.2v9.7
	c0,5.3-4.3,9.7-9.6,9.7h-28.9V127.6h28.9c5.3,0,9.6,4.3,9.6,9.7V146.9z"/>
<path id="path1_fill_1_" class="st0" d="M366,146.9h-19.2v19.3H366V146.9z"/>
<path id="path2_fill_1_" class="st0" d="M433.3,146.9h-48.1v19.3h48.1V146.9z"/>
<path id="path3_fill_1_" class="st0" d="M243.5,272.1l-5.3-18.6l-67.4,19.3l5.3,18.6L243.5,272.1z"/>
<path id="path4_fill_1_" class="st0" d="M74.5,101.5l-28.9-29L32,86.1l28.9,29L74.5,101.5z"/>
<path id="path5_fill_1_" class="st0" d="M44.2,139l-28.9-19.3L4.6,135.7L33.5,155L44.2,139z"/>
<path id="path6_fill_1_" class="st0" d="M29.2,185.6H0.3v19.3h28.9V185.6z"/>
<path id="path7_fill_1_" class="st0" d="M33.5,235.5L4.6,254.8l10.7,16.1l28.9-19.3L33.5,235.5z"/>
<path id="path8_fill_1_" class="st0" d="M32,314l13.6,13.7l28.9-29L60.9,285L32,314z"/>
</svg>
