<svg width="626" height="512" viewBox="0 0 626 512" version="1.1" xmlns="http://www.w3.org/2000/svg" xmlns:xlink="http://www.w3.org/1999/xlink">
<title>Vector</title>
<desc>Created using Figma</desc>
<g id="Canvas" transform="matrix(28.4444 0 0 28.4444 4295.11 3100.44)">
<g id="Vector">
<use xlink:href="#path0_fill" transform="translate(-151 -109)" fill="#C0C7DA"/>
</g>
</g>
<defs>
<path id="path0_fill" d="M 13.2761 3.08947C 14.2933 3.70955 15.0066 4.75886 15.1364 5.97687C 15.5513 6.16532 16.0117 6.27369 16.4999 6.27369C 18.282 6.27369 19.7264 4.86937 19.7264 3.13698C 19.7264 1.40433 18.282 1.32374e-08 16.4999 1.32374e-08C 14.7348 0.000533877 13.303 1.37977 13.2761 3.08947ZM 11.1623 9.51238C 12.9444 9.51238 14.3888 8.10778 14.3888 6.3754C 14.3888 4.64301 12.9441 3.23868 11.1623 3.23868C 9.38041 3.23868 7.93516 4.64328 7.93516 6.37566C 7.93516 8.10805 9.38041 9.51238 11.1623 9.51238ZM 12.5309 9.72619L 9.79306 9.72619C 7.51509 9.72619 5.66185 11.5282 5.66185 13.743L 5.66185 16.9982L 5.67036 17.0492L 5.90099 17.1194C 8.0749 17.7798 9.96356 18 11.5181 18C 14.5544 18 16.3143 17.1584 16.4227 17.1047L 16.6382 16.9987L 16.6613 16.9987L 16.6613 13.743C 16.6621 11.5282 14.8089 9.72619 12.5309 9.72619ZM 17.8691 6.48777L 15.1524 6.48777C 15.123 7.54456 14.659 8.49617 13.9251 9.18058C 15.9499 9.76596 17.4314 11.5915 17.4314 13.7478L 17.4314 14.7509C 20.1138 14.6553 21.6596 13.9162 21.7614 13.8666L 21.9769 13.7603L 22 13.7603L 22 10.504C 22 8.28956 20.1468 6.48777 17.8691 6.48777ZM 5.50069 6.27423C 6.13189 6.27423 6.71916 6.09512 7.21665 5.79001C 7.37479 4.78715 7.92774 3.91082 8.71763 3.31396C 8.72093 3.25523 8.72669 3.19704 8.72669 3.13778C 8.72669 1.40513 7.28199 0.00080075 5.50069 0.00080075C 3.71828 0.00080075 2.27413 1.40513 2.27413 3.13778C 2.27413 4.86963 3.71828 6.27423 5.50069 6.27423ZM 8.39833 9.18058C 7.66802 8.49964 7.20567 7.5531 7.1719 6.50272C 7.07113 6.49551 6.97147 6.48777 6.86879 6.48777L 4.13121 6.48777C 1.85324 6.48777 0 8.28956 0 10.504L 0 13.7598L 0.00851117 13.81L 0.239136 13.8807C 1.9831 14.41 3.53955 14.654 4.89145 14.7309L 4.89145 13.7478C 4.892 11.5915 6.37294 9.76649 8.39833 9.18058Z"/>
</defs>
</svg>
