<svg width="512" height="512" viewBox="0 0 512 512" version="1.1" xmlns="http://www.w3.org/2000/svg" xmlns:xlink="http://www.w3.org/1999/xlink">
<title>logotype</title>
<desc>Created using Figma</desc>
<g id="Canvas" transform="matrix(34.1333 0 0 34.1333 6007.47 -341.333)">
<g id="logotype">
<g id="Vector">
<use xlink:href="#path0_fill" transform="translate(-176 10)" fill="url(#paint0_linear)"/>
</g>
<g id="Vector">
<use xlink:href="#path1_fill" transform="translate(-173.254 13.4368)" fill="#FFFFFF"/>
</g>
</g>
</g>
<defs>
<linearGradient id="paint0_linear" x1="0" y1="0" x2="1" y2="0" gradientUnits="userSpaceOnUse" gradientTransform="matrix(-0 -15.0032 -15.0032 -0 15.0032 15.0032)">
<stop offset="0" stop-color="#1C93D2"/>
<stop offset="1" stop-color="#37ACDF"/>
</linearGradient>
<path id="path0_fill" d="M 7.5 15C 11.6421 15 15 11.6421 15 7.5C 15 3.35786 11.6421 0 7.5 0C 3.35786 0 0 3.35786 0 7.5C 0 11.6421 3.35786 15 7.5 15Z"/>
<path id="path1_fill" d="M 8.73662 0.01606L 8.57602 0.1606C 8.41542 0.1606 8.27088 0.208779 8.1424 0.305139C 7.96574 0.433619 7.48394 0.819058 7.08244 1.15632C 6.52034 1.58994 5.894 1.95931 5.23555 2.23233C 4.91435 2.34475 4.15953 2.31263 4.15953 2.31263L 3.95075 2.52141L 4.64133 2.84261L 4.52891 2.93897L 3.83833 3.05139L 0.706638 2.58565L 0.835118 2.45717C 0.963597 2.32869 1.1242 2.15203 1.10814 2.13597C 1.09208 2.11991 0.915418 2.26445 0.770878 2.40899C 0.626338 2.55353 6.12639e-08 3.17987 6.12639e-08 3.17987L 2.47323 4.85011L 1.97537 5.31585L 0.417559 5.12313L 0.289079 5.60492L 1.09208 6.26338L 1.34904 6.07066C 1.41328 6.02248 1.4454 6.03854 1.4454 6.03854C 1.4454 6.03854 0.915418 6.7773 0.899358 6.82548C 0.883298 6.87366 0.867238 6.92184 0.995717 7.03426C 1.1242 7.14668 1.15632 7.13062 1.18844 7.11456C 1.22056 7.0985 1.7666 6.72912 1.7666 6.72912C 1.7666 6.72912 1.22056 7.32334 0.995717 7.59636C 0.770878 7.86938 0.851178 7.91756 0.851178 7.91756C 0.851178 7.91756 0.867238 7.93362 0.915417 7.91756C 1.01178 7.88544 1.10814 7.83726 1.17238 7.75696C 1.4454 7.54818 2.03961 6.98608 2.03961 6.98608L 1.65418 7.56424C 1.63812 7.59636 1.62206 7.62848 1.73448 7.75696C 1.84689 7.88544 1.89508 7.86938 1.94325 7.83726C 1.99143 7.80514 2.73019 7.29122 2.73019 7.29122C 2.73019 7.29122 2.74625 7.32334 2.69807 7.38758C 2.64989 7.45182 2.50535 7.64454 2.50535 7.64454L 3.16381 8.4636L 3.64561 8.33512L 3.46895 6.7773L 3.93469 6.27944L 5.60493 8.75268C 5.60493 8.75268 6.24732 8.12634 6.3758 7.9818C 6.50428 7.83726 6.66488 7.67666 6.64882 7.64454C 6.63276 7.61242 6.44004 7.78908 6.32762 7.91756L 6.19914 8.04604L 5.71735 4.91435L 5.82976 4.22377L 5.94218 4.12741L 6.24732 4.81799L 6.4561 4.60921C 6.4561 4.60921 6.42398 3.87045 6.5364 3.51713C 6.82548 2.85867 7.1788 2.24839 7.61242 1.6863C 7.94968 1.2848 8.33512 0.802998 8.4636 0.626338C 8.55996 0.497859 8.60814 0.353319 8.60814 0.19272L 8.75268 0.01606L 8.75268 -6.12639e-08C 8.76874 -6.12639e-08 8.75268 0 8.73662 0.01606C 8.73662 0 8.73662 0 8.73662 0.01606Z"/>
</defs>
</svg>
