<svg id="Слой_1" data-name="Слой 1" xmlns="http://www.w3.org/2000/svg" viewBox="0 0 512 512"><defs><style>.cls-1{fill:#fdbe00;}</style></defs><title>time</title><g id="Canvas"><g id="Vector"><path id="path0_fill" data-name="path0 fill" class="cls-1" d="M256-.11C114.62-.11,0,114.51,0,255.89s114.62,256,256,256,256-114.61,256-256S397.39-.11,256-.11Zm0,460.8c-113.11,0-204.8-91.69-204.8-204.8S142.89,51.09,256,51.09s204.8,91.7,204.8,204.8S369.11,460.69,256,460.69ZM281.59,102.3h-51.2V266.5L340.28,376.4l36.19-36.22-94.88-94.89Zm0,143v-143h-51.2V266.5L340.28,376.4l36.19-36.22Z"/><polygon class="cls-1" points="376.47 340.18 340.28 376.4 230.39 266.5 230.39 102.3 281.59 102.3 281.59 245.29 376.47 340.18"/></g></g></svg>