<svg width="683" height="512" viewBox="0 0 683 512" version="1.1" xmlns="http://www.w3.org/2000/svg" xmlns:xlink="http://www.w3.org/1999/xlink">
<title>Vector</title>
<desc>Created using Figma</desc>
<g id="Canvas" transform="matrix(42.6667 0 0 42.6667 42709.3 9429.33)">
<g id="Vector">
<use xlink:href="#path0_fill" transform="translate(-1001 -221)" fill="#030104"/>
<use xlink:href="#path1_fill" transform="translate(-1001 -221)" fill="#030104"/>
<use xlink:href="#path2_fill" transform="translate(-1001 -221)" fill="#030104"/>
<use xlink:href="#path3_fill" transform="translate(-1001 -221)" fill="#030104"/>
</g>
</g>
<defs>
<path id="path0_fill" d="M 8 8.4L 6.02057 6.5808L 0.361145 11.6748C 0.566859 11.8752 0.844574 12 1.15086 12L 14.8491 12C 15.1543 12 15.4309 11.8752 15.6354 11.6748L 9.97943 6.5808L 8 8.4Z"/>
<path id="path1_fill" d="M 15.6388 0.3252C 15.4331 0.1236 15.1565 0 14.8491 0L 1.15083 0C 0.845689 0 0.569118 0.1248 0.363403 0.3276L 7.99997 7.2L 15.6388 0.3252Z"/>
<path id="path2_fill" d="M 0 1.0536L 0 11.0232L 5.52343 6.0948L 0 1.0536Z"/>
<path id="path3_fill" d="M 10.4766 6.0948L 16 11.0232L 16 1.05L 10.4766 6.0948Z"/>
</defs>
</svg>
