<svg width="732" height="512" viewBox="0 0 732 512" version="1.1" xmlns="http://www.w3.org/2000/svg" xmlns:xlink="http://www.w3.org/1999/xlink">
<title>Vector</title>
<desc>Created using Figma</desc>
<g id="Canvas" transform="matrix(36.5714 0 0 36.5714 -69339.4 -67218.3)">
<g id="Vector">
<use xlink:href="#path0_stroke" transform="translate(1898 1839)"/>
</g>
</g>
<defs>
<path id="path0_stroke" d="M 10.2588 6L 9.5518 5.27471L 8.80774 6L 9.5518 6.72529L 10.2588 6ZM 0 6L -0.706991 5.27471L -1.45105 6L -0.706991 6.72529L 0 6ZM 15.7071 -0.725287L 9.5518 5.27471L 10.9658 6.72529L 17.1211 0.725287L 15.7071 -0.725287ZM 9.5518 6.72529L 15.7071 12.7253L 17.1211 11.2747L 10.9658 5.27471L 9.5518 6.72529ZM 5.44828 -0.725287L -0.706991 5.27471L 0.706991 6.72529L 6.86226 0.725287L 5.44828 -0.725287ZM -0.706991 6.72529L 5.44828 12.7253L 6.86226 11.2747L 0.706991 5.27471L -0.706991 6.72529Z"/>
</defs>
</svg>
