<svg width="582" height="512" viewBox="0 0 582 512" version="1.1" xmlns="http://www.w3.org/2000/svg" xmlns:xlink="http://www.w3.org/1999/xlink">
<title>icons8-N&#204;&#131;&#194;&#130;&#195;&#144;&#194;&#181;&#195;&#144;&#194;&#187;&#195;&#144;&#194;&#181;&#195;&#144;&#194;&#179;N&#204;&#131;&#194;&#128;&#195;&#144;&#194;&#176;&#195;&#144;&#194;&#188;&#195;&#144;&#194;&#188;&#195;&#144;&#194;&#176;-app</title>
<desc>Created using Figma</desc>
<g id="Canvas" transform="matrix(23.2727 0 0 23.2727 13498.2 24506.2)">
<g id="icons8-N&#204;&#131;&#194;&#130;&#195;&#144;&#194;&#181;&#195;&#144;&#194;&#187;&#195;&#144;&#194;&#181;&#195;&#144;&#194;&#179;N&#204;&#131;&#194;&#128;&#195;&#144;&#194;&#176;&#195;&#144;&#194;&#188;&#195;&#144;&#194;&#188;&#195;&#144;&#194;&#176;-app">
<g id="Vector">
<use xlink:href="#path0_fill" transform="translate(-580 -1053)" fill="#FFFFFF"/>
</g>
<g id="Vector">
<use xlink:href="#path1_fill" transform="translate(-573.698 -1049)" fill="#D2E5F1"/>
</g>
<g id="Vector">
<use xlink:href="#path2_fill" transform="translate(-571.169 -1038.96)" fill="#B5CFE4"/>
</g>
</g>
</g>
<defs>
<path id="path0_fill" d="M 24.1355 0.748576L 20.3185 20.2406C 20.3185 20.2406 19.7845 21.5926 18.3165 20.9436L 9.5075 14.1036L 6.3045 12.5356L 0.912497 10.6976C 0.912497 10.6976 0.0844965 10.4006 0.00449655 9.75158C -0.0755035 9.10258 0.938497 8.75158 0.938497 8.75158L 22.3745 0.235577C 22.3735 0.234577 24.1355 -0.549424 24.1355 0.748576Z"/>
<path id="path1_fill" d="M 2.527 16.0174C 2.527 16.0174 2.27 15.9934 1.949 14.9654C 1.629 13.9384 4.11987e-07 8.53144 4.11987e-07 8.53144L 12.947 0.204445C 12.947 0.204445 13.694 -0.255555 13.668 0.204445C 13.668 0.204445 13.801 0.285444 13.401 0.664444C 13.001 1.04344 3.23 9.93744 3.23 9.93744"/>
<path id="path2_fill" d="M 4.054 2.681L 0.57 5.898C 0.57 5.898 0.298 6.107 2.89917e-07 5.976L 0.667 3.50952e-07"/>
</defs>
</svg>
