<svg width="598" height="512" viewBox="0 0 598 512" version="1.1" xmlns="http://www.w3.org/2000/svg" xmlns:xlink="http://www.w3.org/1999/xlink">
<title>autoposting</title>
<desc>Created using Figma</desc>
<g id="Canvas" transform="matrix(28.4444 0 0 28.4444 -25628.4 -43463.1)">
<g id="autoposting">
<g id="Vector">
<use xlink:href="#path0_fill" transform="translate(906.906 1534.55)" fill="#030104"/>
<use xlink:href="#path1_fill" transform="translate(906.906 1534.55)" fill="#030104"/>
<use xlink:href="#path2_fill" transform="translate(906.906 1534.55)" fill="#030104"/>
<use xlink:href="#path3_fill" transform="translate(906.906 1534.55)" fill="#030104"/>
</g>
<g id="Vector">
<use xlink:href="#path4_fill" transform="translate(901 1528)" fill="#50BCED"/>
<use xlink:href="#path5_fill" transform="translate(901 1528)" fill="#50BCED"/>
</g>
</g>
</g>
<defs>
<path id="path0_fill" d="M 3.83525 3.9518L 2.88631 3.09595L 0.173157 5.49244C 0.271777 5.58672 0.404914 5.64543 0.551748 5.64543L 7.11875 5.64543C 7.26504 5.64543 7.39763 5.58672 7.4957 5.49244L 4.7842 3.09595L 3.83525 3.9518Z"/>
<path id="path1_fill" d="M 7.49729 0.152992C 7.39867 0.0581481 7.26608 0 7.1187 0L 0.55169 0C 0.405404 0 0.272814 0.0587127 0.174194 0.154121L 3.83519 3.38727L 7.49729 0.152992Z"/>
<path id="path2_fill" d="M 0 0.495483L 0 5.18573L 2.64795 2.86714L 0 0.495483Z"/>
<path id="path3_fill" d="M 5.02252 2.86725L 7.67047 5.18583L 7.67047 0.493896L 5.02252 2.86725Z"/>
<path id="path4_fill" d="M 19.6687 1.56273C 19.2716 1.48274 18.881 1.72023 18.796 2.09286L 18.2618 4.43304C 16.5611 1.70924 13.4395 0 10.0181 0C 4.74921 0 0.462646 4.02419 0.462646 8.97074C 0.462646 9.35182 0.791708 9.6608 1.19768 9.6608C 1.6036 9.6608 1.93272 9.35182 1.93272 8.97074C 1.93272 4.78524 5.55981 1.38011 10.0181 1.38011C 12.9247 1.38011 15.5759 2.83768 17.0113 5.15848L 14.5607 4.66545C 14.1637 4.58557 13.773 4.823 13.688 5.19563C 13.603 5.56826 13.8559 5.93515 14.2528 6.01498L 18.4593 6.86127C 18.5308 6.87567 18.6033 6.87981 18.6749 6.87418C 18.7941 6.86474 18.9103 6.82803 19.0126 6.76587C 19.1763 6.66645 19.2912 6.51005 19.3321 6.33114L 20.2336 2.38202C 20.3185 2.00945 20.0656 1.64267 19.6687 1.56273Z"/>
<path id="path5_fill" d="M 18.9291 8.06636C 18.5234 8.07895 18.2053 8.39792 18.2187 8.77877C 18.29 10.8052 17.5165 12.7363 16.0405 14.2166C 14.5646 15.6968 12.5631 16.5489 10.4046 16.6158C 10.3146 16.6186 10.2251 16.62 10.1355 16.62C 7.31908 16.6199 4.72457 15.2467 3.25931 13.0217L 5.81413 13.6649C 6.20623 13.7635 6.60933 13.5452 6.71447 13.177C 6.81961 12.8089 6.58698 12.4306 6.19488 12.3317L 2.03962 11.2858C 1.85133 11.2385 1.65064 11.2633 1.48187 11.3547C 1.31299 11.4461 1.1898 11.5969 1.13929 11.7736L 0.0252635 15.6747C -0.0798764 16.0428 0.152748 16.4212 0.544847 16.5199C 0.608649 16.536 0.672626 16.5437 0.735663 16.5437C 1.06014 16.5437 1.35715 16.3404 1.44518 16.0322L 2.07138 13.8396C 3.81336 16.4147 6.84554 18.0002 10.1352 18.0001C 10.2408 18.0001 10.3471 17.9985 10.4532 17.9952C 13.0041 17.916 15.3696 16.9091 17.1138 15.1598C 18.8581 13.4104 19.7723 11.1281 19.688 8.73323C 19.6747 8.35243 19.3347 8.05283 18.9291 8.06636Z"/>
</defs>
</svg>
