<svg width="410" height="512" viewBox="0 0 410 512" version="1.1" xmlns="http://www.w3.org/2000/svg" xmlns:xlink="http://www.w3.org/1999/xlink">
<title>Vector</title>
<desc>Created using Figma</desc>
<g id="Canvas" transform="matrix(25.6 0 0 25.6 -3763.2 9881.6)">
<g id="Vector">
<use xlink:href="#path0_fill" transform="translate(147 -386)"/>
<use xlink:href="#path1_fill" transform="translate(147 -386)"/>
</g>
</g>
<defs>
<path id="path0_fill" d="M 5.55512 17.6131C 5.55508 17.6183 5.55472 17.6235 5.55472 17.6287C 5.55472 18.9383 6.64951 20 8.00001 20C 9.35052 20 10.4453 18.9383 10.4453 17.6287C 10.4453 17.6235 10.445 17.6183 10.4449 17.6131L 5.55512 17.6131Z"/>
<path id="path1_fill" d="M 15.8073 14.6489L 13.6065 11.5139C 13.6065 10.5542 13.6065 8.20919 13.6065 7.60257C 13.6065 4.9648 11.6693 2.76605 9.09941 2.27055L 9.09941 1.06611C 9.09936 0.477343 8.60717 0 7.99999 0C 7.39281 0 6.90061 0.477343 6.90061 1.06611L 6.90061 2.27059C 4.33067 2.76614 2.39351 4.96488 2.39351 7.60262C 2.39351 8.63524 2.39351 10.9154 2.39351 11.5139L 0.192739 14.649C -0.0390792 14.9792 -0.0635946 15.4067 0.129026 15.7598C 0.321647 16.1129 0.699794 16.3337 1.11175 16.3337L 14.8882 16.3337C 15.3002 16.3337 15.6783 16.1129 15.871 15.7598C 16.0636 15.4066 16.0391 14.9792 15.8073 14.6489Z"/>
</defs>
</svg>
