<svg width="399" height="512" viewBox="0 0 399 512" version="1.1" xmlns="http://www.w3.org/2000/svg" xmlns:xlink="http://www.w3.org/1999/xlink">
<title>Vector</title>
<desc>Created using Figma</desc>
<g id="Canvas" transform="matrix(28.4444 0 0 28.4444 -19086.2 -44999.1)">
<g id="Vector">
<use xlink:href="#path0_fill" transform="translate(671 1582)" fill="#44CD85"/>
</g>
</g>
<defs>
<path id="path0_fill" d="M 11.2005 17.992L 12.7279 17.992C 13.078 17.992 13.3644 17.7029 13.3644 17.3496L 13.3644 13.2466C 14.2872 12.2028 14.1917 10.6049 13.1655 9.67348C 13.1257 9.64137 13.0859 9.60122 13.0462 9.5691C 12.2586 7.16027 10.1424 5.44198 7.64441 5.17701L 7.64441 3.73974C 8.63884 3.38644 9.15594 2.28641 8.8059 1.28273C 8.45586 0.279056 7.35801 -0.242857 6.36358 0.110438C 5.36915 0.463733 4.84409 1.56376 5.20209 2.56744C 5.39302 3.11344 5.82261 3.54703 6.36358 3.73974L 6.36358 5.17701C 3.85762 5.45001 1.74943 7.1683 0.953882 9.57713C -0.128058 10.4443 -0.318989 12.0341 0.532244 13.1342C 0.564065 13.1743 0.595887 13.2145 0.635664 13.2546L 0.635664 17.3576C 0.635664 17.7109 0.92206 18 1.2721 18L 2.78363 18L 11.2005 18L 12.7279 18L 11.2005 17.992ZM 12.7279 11.5684C 12.7279 12.275 12.1551 12.8531 11.4551 12.8531C 10.755 12.8531 10.1822 12.275 10.1822 11.5684C 10.1822 10.8618 10.755 10.2837 11.4551 10.2837C 12.1551 10.2837 12.7279 10.8618 12.7279 11.5684ZM 7.00002 1.29076C 7.35006 1.29076 7.63645 1.57982 7.63645 1.93312C 7.63645 2.28641 7.35006 2.57547 7.00002 2.57547C 6.64998 2.57547 6.36358 2.28641 6.36358 1.93312C 6.36358 1.57982 6.64998 1.29076 7.00002 1.29076ZM 1.2721 11.5684C 1.2721 10.8618 1.84489 10.2837 2.54497 10.2837C 3.24505 10.2837 3.81784 10.8618 3.81784 11.5684C 3.81784 12.275 3.24505 12.8531 2.54497 12.8531C 1.84489 12.8531 1.2721 12.275 1.2721 11.5684ZM 1.90854 16.7073L 1.90854 14.0495C 2.11538 14.1057 2.33017 14.1378 2.54497 14.1378C 3.95308 14.0897 5.05094 12.8933 4.99525 11.4801C 4.94751 10.1553 3.91331 9.08734 2.60861 9.00704C 3.98491 6.55807 7.07162 5.70695 9.49803 7.09604C 10.2856 7.54569 10.938 8.21213 11.3914 9.00704C 9.99127 9.09537 8.91728 10.3158 9.00479 11.729C 9.08434 13.0458 10.1504 14.0897 11.4551 14.1378C 11.6699 14.1378 11.8847 14.1057 12.0915 14.0495L 12.0915 16.7073L 9.54576 16.7073L 9.54576 14.7802C 9.54576 14.4269 9.25937 14.1378 8.90933 14.1378L 5.09071 14.1378C 4.74067 14.1378 4.45428 14.4269 4.45428 14.7802L 4.45428 16.7073L 1.90854 16.7073ZM 8.27289 15.4226L 8.27289 16.7073L 5.72715 16.7073L 5.72715 15.4226L 8.27289 15.4226Z"/>
</defs>
</svg>
