<svg width="712" height="512" viewBox="0 0 712 512" version="1.1" xmlns="http://www.w3.org/2000/svg" xmlns:xlink="http://www.w3.org/1999/xlink">
<title>Vector</title>
<desc>Created using Figma</desc>
<g id="Canvas" transform="matrix(28.4444 0 0 28.4444 4920.89 10951.1)">
<g id="Vector">
<use xlink:href="#path0_stroke" transform="translate(-172 -384)"/>
</g>
</g>
<defs>
<path id="path0_stroke" d="M 0 -1C -0.552285 -1 -1 -0.552285 -1 0C -1 0.552285 -0.552285 1 0 1L 0 -1ZM 22.5 1C 23.0523 1 23.5 0.552285 23.5 0C 23.5 -0.552285 23.0523 -1 22.5 -1L 22.5 1ZM 0 7C -0.552285 7 -1 7.44772 -1 8C -1 8.55228 -0.552285 9 0 9L 0 7ZM 15 9C 15.5523 9 16 8.55228 16 8C 16 7.44772 15.5523 7 15 7L 15 9ZM 0 15C -0.552285 15 -1 15.4477 -1 16C -1 16.5523 -0.552285 17 0 17L 0 15ZM 22 17C 22.5523 17 23 16.5523 23 16C 23 15.4477 22.5523 15 22 15L 22 17ZM 0 1L 22.5 1L 22.5 -1L 0 -1L 0 1ZM 0 9L 15 9L 15 7L 0 7L 0 9ZM 0 17L 22 17L 22 15L 0 15L 0 17Z"/>
</defs>
</svg>
