<svg id="Слой_1" data-name="Слой 1" xmlns="http://www.w3.org/2000/svg" viewBox="0 0 487 512"><defs><style>.cls-1{fill:#c0c7da;}</style></defs><title>calendar</title><g id="Canvas"><g id="Vector"><path id="path0_fill" data-name="path0 fill" d="M76.8,192v76.8h76.8V192Zm0,128v76.8h76.8V320Zm128-128v76.8h76.8V192Zm0,128v76.8h76.8V320Zm128-128v76.8h76.8V192Zm-256,0v76.8h76.8V192Zm0,128v76.8h76.8V320Zm128-128v76.8h76.8V192Zm0,128v76.8h76.8V320Zm128-128v76.8h76.8V192Zm0,0v76.8h76.8V192Zm-128,204.8h76.8V320H204.8Zm0-128h76.8V192H204.8Zm-128,128h76.8V320H76.8Zm0-128h76.8V192H76.8Zm256-76.8v76.8h76.8V192Zm-128,204.8h76.8V320H204.8Zm0-128h76.8V192H204.8Zm-128,128h76.8V320H76.8Zm0-128h76.8V192H76.8Z"/><rect x="76.8" y="192" width="76.8" height="76.8"/><rect x="204.8" y="192" width="76.8" height="76.8"/><rect x="332.8" y="192" width="76.8" height="76.8"/><rect x="76.8" y="320" width="76.8" height="76.8"/><rect x="204.8" y="320" width="76.8" height="76.8"/><path d="M460.8,51.2H422.4V0H345.6V51.2H140.8V0H64V51.2H25.6A25.6,25.6,0,0,0,0,76.8V486.4A25.6,25.6,0,0,0,25.6,512H460.8a25.6,25.6,0,0,0,25.6-25.6V76.8A25.6,25.6,0,0,0,460.8,51.2ZM435.2,460.8H51.2V153.6h384Z"/></g></g></svg>