<svg width="512" height="512" viewBox="0 0 512 512" version="1.1" xmlns="http://www.w3.org/2000/svg" xmlns:xlink="http://www.w3.org/1999/xlink">
<title>Vector</title>
<desc>Created using Figma</desc>
<g id="Canvas" transform="matrix(32 0 0 32 32032 9728)">
<g id="Vector">
<use xlink:href="#path0_fill" transform="translate(-1001 -304)"/>
</g>
</g>
<defs>
<path id="path0_fill" d="M 7.99979 0C 3.58168 0 2.53321e-12 3.58192 2.53321e-12 7.99984C 2.53321e-12 12.418 3.58168 16 7.99979 16C 12.4179 16 16 12.418 16 7.99984C 16 3.58171 12.4179 0 7.99979 0ZM 4.81694 10.9047C 4.5115 10.9047 4.26435 10.6575 4.26435 10.3519C 4.26435 10.0467 4.51155 9.79947 4.81694 9.79947C 5.12222 9.79947 5.36953 10.0467 5.36953 10.3519C 5.36953 10.6575 5.12222 10.9047 4.81694 10.9047ZM 4.81694 8.55259C 4.5115 8.55259 4.26435 8.30539 4.26435 7.99968C 4.26435 7.6944 4.51155 7.4472 4.81694 7.4472C 5.12222 7.4472 5.36953 7.6944 5.36953 7.99968C 5.36953 8.30544 5.12222 8.55259 4.81694 8.55259ZM 4.81694 6.20053C 4.5115 6.20053 4.26435 5.95333 4.26435 5.64779C 4.26435 5.34251 4.51155 5.09531 4.81694 5.09531C 5.12222 5.09531 5.36953 5.34251 5.36953 5.64779C 5.36953 5.95333 5.12222 6.20053 4.81694 6.20053ZM 11.7357 10.8701L 6.55471 10.8701C 6.24916 10.8701 6.00143 10.6223 6.00143 10.3168C 6.00143 10.0113 6.24916 9.76352 6.55471 9.76352L 11.7357 9.76352C 12.0413 9.76352 12.289 10.0113 12.289 10.3168C 12.289 10.6223 12.0413 10.8701 11.7357 10.8701ZM 11.7357 8.53589L 6.55471 8.53589C 6.24916 8.53589 6.00143 8.28816 6.00143 7.98261C 6.00143 7.67707 6.24916 7.42933 6.55471 7.42933L 11.7357 7.42933C 12.0413 7.42933 12.289 7.67707 12.289 7.98261C 12.289 8.28811 12.0413 8.53589 11.7357 8.53589ZM 11.7357 6.20165L 6.55471 6.20165C 6.24916 6.20165 6.00143 5.95392 6.00143 5.64837C 6.00143 5.34283 6.24916 5.09509 6.55471 5.09509L 11.7357 5.09509C 12.0413 5.09509 12.289 5.34283 12.289 5.64837C 12.289 5.95392 12.0413 6.20165 11.7357 6.20165Z"/>
</defs>
</svg>
