<svg width="512" height="512" viewBox="0 0 512 512" version="1.1" xmlns="http://www.w3.org/2000/svg" xmlns:xlink="http://www.w3.org/1999/xlink">
<title>Vector</title>
<desc>Created using Figma</desc>
<g id="Canvas" transform="matrix(28.4444 0 0 28.4444 22755.6 10951.1)">
<g id="Vector">
<use xlink:href="#path0_stroke" transform="translate(-799 -384)"/>
</g>
</g>
<defs>
<path id="path0_stroke" d="M 0.707107 -0.707107C 0.316582 -1.09763 -0.316582 -1.09763 -0.707107 -0.707107C -1.09763 -0.316582 -1.09763 0.316582 -0.707107 0.707107L 0.707107 -0.707107ZM 15.2929 16.7071C 15.6834 17.0976 16.3166 17.0976 16.7071 16.7071C 17.0976 16.3166 17.0976 15.6834 16.7071 15.2929L 15.2929 16.7071ZM -0.707107 15.2929C -1.09763 15.6834 -1.09763 16.3166 -0.707107 16.7071C -0.316582 17.0976 0.316583 17.0976 0.707107 16.7071L -0.707107 15.2929ZM 16.7071 0.707107C 17.0976 0.316583 17.0976 -0.316582 16.7071 -0.707106C 16.3166 -1.09763 15.6834 -1.09763 15.2929 -0.707106L 16.7071 0.707107ZM -0.707107 0.707107L 15.2929 16.7071L 16.7071 15.2929L 0.707107 -0.707107L -0.707107 0.707107ZM 0.707107 16.7071L 16.7071 0.707107L 15.2929 -0.707106L -0.707107 15.2929L 0.707107 16.7071Z"/>
</defs>
</svg>
