<?xml version="1.0" encoding="utf-8"?>
<!-- Generator: Adobe Illustrator 22.1.0, SVG Export Plug-In . SVG Version: 6.00 Build 0)  -->
<svg version="1.1" id="Слой_2" xmlns="http://www.w3.org/2000/svg" xmlns:xlink="http://www.w3.org/1999/xlink" x="0px" y="0px"
	 viewBox="0 0 512 512" style="enable-background:new 0 0 512 512;" xml:space="preserve">
<style type="text/css">
	.st0{fill:#EB5757;}
</style>
<path id="path0_fill_1_" class="st0" d="M256-0.1C114.6-0.1,0,114.6,0,255.9c0,141.4,114.6,256,256,256c141.4,0,256-114.6,256-256
	C512,114.6,397.4-0.1,256-0.1z M256,465.6c-115.8,0-209.7-93.9-209.7-209.7S140.2,46.3,256,46.3c115.7,0.1,209.5,93.9,209.7,209.7
	C465.6,371.7,371.8,465.6,256,465.6z"/>
<path id="path1_fill_1_" class="st0" d="M261.1,218.8l-78.7-82.9l-37.1,35.3l80.5,84.8l-80.5,84.8l37.1,35.3l78.7-82.9l78.7,82.9
	l37.1-35.3L296.4,256l80.5-84.8l-37.1-35.3L261.1,218.8z"/>
</svg>
