<svg width="576" height="512" viewBox="0 0 576 512" version="1.1" xmlns="http://www.w3.org/2000/svg" xmlns:xlink="http://www.w3.org/1999/xlink">
<title>Vector</title>
<desc>Created using Figma</desc>
<g id="Canvas" transform="matrix(2.90909 0 0 2.90909 -6126.55 503.273)">
<g id="Vector">
<use xlink:href="#path0_fill" transform="translate(2106.31 -173)" fill="#576077" fill-opacity="0.5"/>
<use xlink:href="#path1_fill" transform="translate(2106.31 -173)" fill="#576077" fill-opacity="0.5"/>
<use xlink:href="#path2_fill" transform="translate(2106.31 -173)" fill="#576077" fill-opacity="0.5"/>
<use xlink:href="#path3_fill" transform="translate(2106.31 -173)" fill="#576077" fill-opacity="0.5"/>
<use xlink:href="#path4_fill" transform="translate(2106.31 -173)" fill="#576077" fill-opacity="0.5"/>
<use xlink:href="#path5_fill" transform="translate(2106.31 -173)" fill="#576077" fill-opacity="0.5"/>
<use xlink:href="#path6_fill" transform="translate(2106.31 -173)" fill="#576077" fill-opacity="0.5"/>
<use xlink:href="#path7_fill" transform="translate(2106.31 -173)" fill="#576077" fill-opacity="0.5"/>
<use xlink:href="#path8_fill" transform="translate(2106.31 -173)" fill="#576077" fill-opacity="0.5"/>
<use xlink:href="#path9_fill" transform="translate(2106.31 -173)" fill="#576077" fill-opacity="0.5"/>
<use xlink:href="#path10_fill" transform="translate(2106.31 -173)" fill="#576077" fill-opacity="0.5"/>
<use xlink:href="#path11_fill" transform="translate(2106.31 -173)" fill="#576077" fill-opacity="0.5"/>
<use xlink:href="#path12_fill" transform="translate(2106.31 -173)" fill="#576077" fill-opacity="0.5"/>
<use xlink:href="#path13_fill" transform="translate(2106.31 -173)" fill="#576077" fill-opacity="0.5"/>
<use xlink:href="#path14_fill" transform="translate(2106.31 -173)" fill="#576077" fill-opacity="0.5"/>
<use xlink:href="#path15_fill" transform="translate(2106.31 -173)" fill="#576077" fill-opacity="0.5"/>
<use xlink:href="#path16_fill" transform="translate(2106.31 -173)" fill="#576077" fill-opacity="0.5"/>
<use xlink:href="#path17_fill" transform="translate(2106.31 -173)" fill="#576077" fill-opacity="0.5"/>
<use xlink:href="#path18_fill" transform="translate(2106.31 -173)" fill="#576077" fill-opacity="0.5"/>
<use xlink:href="#path19_fill" transform="translate(2106.31 -173)" fill="#576077" fill-opacity="0.5"/>
<use xlink:href="#path20_fill" transform="translate(2106.31 -173)" fill="#576077" fill-opacity="0.5"/>
<use xlink:href="#path21_fill" transform="translate(2106.31 -173)" fill="#576077" fill-opacity="0.5"/>
</g>
</g>
<defs>
<path id="path0_fill" d="M 18.3448 103.685C 19.8147 104.414 21.6087 103.826 22.353 102.353C 23.1 100.883 22.5091 99.0797 21.042 98.3238C 20.6071 98.0988 10.3352 92.6387 7.64396 76.5049C 7.42494 75.1788 6.3481 74.162 5.0069 74.0179C 3.6358 73.865 2.40007 74.6388 1.89874 75.884C -4.61113 92.1648 7.6647 110.876 8.18959 111.665C 8.76545 112.532 9.71958 113 10.6857 113C 11.2556 113 11.8346 112.835 12.3475 112.496C 13.7246 111.578 14.0993 109.718 13.1846 108.338C 13.1097 108.224 8.03068 100.457 6.46447 91.3098C 11.4001 100.109 17.9577 103.49 18.3448 103.685Z"/>
<path id="path1_fill" d="M 32.274 109.94C 33.8972 109.616 34.9529 108.035 34.6292 106.412C 34.3022 104.789 32.7391 103.733 31.0981 104.06C 25.0772 105.263 13.6859 111.818 13.6859 128C 13.6859 139.742 16.1458 147.887 18.0449 152.417C 11.4777 153.692 7.68579 157.823 7.68579 164C 7.68579 170.954 13.9949 176 22.6859 176L 25.6858 176C 30.6597 176 33.7197 172.271 34.0498 171.848C 35.0697 170.543 34.8387 168.656 33.5309 167.636C 32.2259 166.613 30.339 166.85 29.322 168.152C 29.3069 168.173 27.7828 170 25.6861 170L 22.6859 170C 18.213 170 13.6859 167.939 13.6859 164C 13.6859 162.515 13.6859 158 22.6859 158C 23.787 158 24.7949 157.391 25.3198 156.422C 25.8447 155.453 25.7909 154.271 25.1908 153.35C 25.1338 153.263 19.6857 144.716 19.6857 127.999C 19.686 112.787 31.7759 110.048 32.274 109.94Z"/>
<path id="path2_fill" d="M 117.327 152.417C 119.226 147.887 121.686 139.742 121.686 128C 121.686 111.817 110.295 105.263 104.274 104.06C 102.648 103.739 101.07 104.786 100.743 106.412C 100.419 108.035 101.475 109.616 103.098 109.939C 103.614 110.045 115.686 112.637 115.686 128C 115.686 144.716 110.238 153.262 110.19 153.334C 109.578 154.256 109.518 155.44 110.04 156.416C 110.562 157.39 111.579 158 112.686 158C 121.686 158 121.686 162.515 121.686 164C 121.686 167.939 117.159 170 112.686 170L 109.686 170C 107.616 170 106.092 168.203 106.032 168.131C 105.009 166.85 103.14 166.622 101.841 167.636C 100.533 168.656 100.302 170.543 101.322 171.848C 101.652 172.271 104.712 176 109.686 176L 112.686 176C 121.38 176 127.686 170.954 127.686 164C 127.686 157.823 123.894 153.692 117.327 152.417Z"/>
<path id="path3_fill" d="M 86.19 152.228L 91.6441 119.495C 91.917 117.86 90.8131 116.315 89.1783 116.042C 87.5372 115.772 85.9984 116.873 85.7284 118.505L 80.1453 152L 79.6861 152C 78.0271 152 76.6862 153.344 76.6862 155C 76.6862 156.656 78.0271 158 79.6861 158L 82.686 158C 91.686 158 91.686 162.515 91.686 164C 91.686 167.939 87.1589 170 82.686 170L 79.6861 170C 74.7242 170 70.6861 165.962 70.6861 161L 70.6861 119C 70.6861 117.344 69.3453 116 67.6863 116C 66.0272 116 64.6864 117.344 64.6864 119L 64.6864 161C 64.6864 165.962 60.6483 170 55.6864 170L 52.6865 170C 48.2136 170 43.6865 167.939 43.6865 164C 43.6865 162.515 43.6865 158 52.6865 158L 55.6864 158C 57.3454 158 58.6863 156.656 58.6863 155C 58.6863 153.344 57.3454 152 55.6864 152L 55.2272 152L 49.6444 118.505C 49.3776 116.873 47.8325 115.772 46.1946 116.042C 44.5595 116.315 43.4555 117.86 43.7287 119.495L 49.1828 152.228C 41.9168 153.233 37.6868 157.475 37.6868 164C 37.6868 170.954 43.9959 176 52.6869 176L 55.6867 176C 60.5886 176 64.9476 173.636 67.6866 169.991C 70.4249 173.636 74.7839 176 79.6858 176L 82.6856 176C 91.3798 176 97.6857 170.954 97.6857 164C 97.6857 157.475 93.4557 153.233 86.19 152.228Z"/>
<path id="path4_fill" d="M 89.6686 41.8429C 87.993 38.8051 84.8579 36.918 81.4873 36.918C 78.1166 36.918 74.9816 38.8051 73.3059 41.8429C 72.7245 42.8975 73.0971 44.2301 74.1384 44.8194C 75.1801 45.4085 76.4956 45.0312 77.0773 43.9766C 77.9905 42.3213 79.6803 41.293 81.4875 41.293C 83.2946 41.293 84.9843 42.3213 85.8975 43.9766C 86.2932 44.6936 87.0277 45.0977 87.785 45.0977C 88.1414 45.0977 88.5031 45.008 88.8364 44.8194C 89.8777 44.2301 90.2503 42.8975 89.6686 41.8429Z"/>
<path id="path5_fill" d="M 62.0654 41.8431C 60.3895 38.8049 57.2545 36.918 53.8838 36.918C 50.5129 36.918 47.3781 38.8051 45.7025 41.8429C 45.1206 42.8977 45.4932 44.2301 46.5345 44.8194C 47.5759 45.4085 48.8919 45.0312 49.4734 43.9766C 50.3866 42.3213 52.0764 41.293 53.8838 41.293C 55.6912 41.293 57.3808 42.3213 58.2938 43.9766C 58.6895 44.6936 59.4241 45.0977 60.1815 45.0977C 60.5379 45.0977 60.8995 45.008 61.2329 44.8196C 62.2742 44.2306 62.647 42.8977 62.0654 41.8431Z"/>
<path id="path6_fill" d="M 116.427 17.7403C 115.384 16.5103 114.383 15.3002 113.415 14.1301C 109.334 9.19685 105.81 4.93628 101.864 2.40886C 97.2805 -0.526747 92.5053 -0.764089 87.2662 1.68283C 86.9448 1.8329 86.3901 2.14177 84.0188 3.78217C 79.2814 1.22127 73.8683 0 67.6857 0C 61.5032 0 56.0899 1.22127 51.3525 3.78195C 48.982 2.14221 48.4272 1.83311 48.1051 1.68262C 42.8657 -0.764308 38.0905 -0.526747 33.5071 2.40886C 29.5608 4.93628 26.0366 9.19685 21.9557 14.1303C 20.9879 15.3004 19.9868 16.5105 18.9444 17.7403C 14.504 22.9804 12.8282 29.1496 14.0984 35.5814C 15.4727 42.5405 20.2589 49.1791 26.4826 52.9114C 25.8443 56.8736 25.3141 62.626 25.5037 68.4239C 23.4171 72.4487 22.6458 77.2259 23.3341 81.887C 24.0342 86.628 26.2234 91.0535 29.4986 94.3483C 33.4974 98.3713 38.9216 100.634 45.185 100.891C 45.5943 100.908 46.0062 100.916 46.4211 100.916C 49.1457 100.916 51.992 100.553 54.9475 99.8321C 55.3406 106.608 60.9027 112 67.686 112C 74.4556 112 80.0084 106.63 80.4213 99.8728C 83.3778 100.594 86.2249 100.957 88.9506 100.957C 89.3649 100.957 89.7778 100.949 90.1865 100.932C 96.4499 100.675 101.874 98.4124 105.873 94.3894C 109.148 91.0944 111.337 86.6691 112.037 81.9282C 112.726 77.2664 111.954 72.4885 109.867 68.4633C 109.869 68.3793 109.872 68.2964 109.874 68.2177C 110.023 63.23 109.656 57.6182 108.889 52.9114C 115.113 49.1793 119.899 42.5409 121.273 35.5817C 122.543 29.1498 120.867 22.9804 116.427 17.7403ZM 67.6857 4.37497C 77.0831 4.37497 84.0633 7.40989 89.6528 13.926C 96.1388 21.487 100.949 33.9771 104.358 52.0987C 104.36 52.114 104.364 52.1294 104.366 52.1447C 104.382 52.2269 104.398 52.3072 104.413 52.3894C 104.887 54.93 105.352 58.6756 105.52 62.8006C 103.712 61.1543 101.591 59.8195 99.2084 58.8471C 94.5254 56.9364 89.0072 56.4516 82.7842 57.3905C 82.4449 56.4829 81.9134 55.633 81.187 54.9088C 79.8967 53.6225 78.1891 52.914 76.3798 52.914L 59.0066 52.9C 56.0916 52.9 53.5968 54.75 52.6002 57.3513C 46.3716 56.4098 40.8486 56.8937 36.1626 58.8058C 33.7799 59.7779 31.6597 61.1125 29.8513 62.7588C 30.0193 58.6747 30.4783 54.9602 30.958 52.3892C 30.9727 52.3105 30.988 52.2339 31.0027 52.1554C 31.0066 52.1355 31.0111 52.1153 31.0142 52.0954C 34.4222 33.9754 39.2326 21.4866 45.7183 13.926C 51.308 7.40989 58.2884 4.37497 67.6857 4.37497ZM 78.1833 61.671L 69.5065 70.6488C 69.0097 71.1491 68.3607 71.4245 67.678 71.4245C 67.0024 71.4245 66.3652 71.1513 65.8868 70.6582L 57.4405 61.919C 57.4031 61.8803 57.3642 61.8429 57.3238 61.807C 56.772 61.315 56.4556 60.6063 56.4556 59.8626C 56.4558 58.4359 57.6001 57.2752 59.0046 57.2752L 76.3787 57.2892C 77.0481 57.2892 77.6794 57.5513 78.1565 58.0268C 79.155 59.0223 79.1684 60.6557 78.1833 61.671ZM 18.3341 34.7233C 17.3341 29.659 18.6786 24.7718 22.2225 20.5899C 23.2817 19.3402 24.291 18.1201 25.267 16.9399C 33.7719 6.65806 38.2184 1.88277 46.2774 5.64656C 46.3524 5.68506 46.6062 5.83009 47.3943 6.35706C 38.021 13.5677 31.6535 27.1461 27.3567 48.2754C 22.8501 45.064 19.3596 39.9155 18.3341 34.7233ZM 76.1288 99.065C 76.1288 103.785 72.3413 107.625 67.6857 107.625C 63.0302 107.625 59.2426 103.785 59.2426 99.065L 59.2426 98.5577C 61.2917 97.8457 63.3874 96.9722 65.5259 95.9399L 65.5259 99.7273C 65.5259 100.935 66.4929 101.915 67.6857 101.915C 68.8786 101.915 69.8456 100.935 69.8456 99.7273L 69.8456 95.9815C 71.9841 97.0137 74.0798 97.8872 76.1288 98.5992L 76.1288 99.065ZM 102.828 91.2854C 95.5829 98.5747 83.2721 98.3383 69.0186 90.6567C 68.9946 90.6377 68.9696 90.6204 68.9449 90.6024C 68.9244 90.5876 68.9045 90.5716 68.8836 90.5574C 68.8527 90.5366 68.8205 90.5182 68.7888 90.499C 68.7596 90.4813 68.7309 90.4629 68.7009 90.4467C 68.6756 90.4331 68.6495 90.4218 68.624 90.4091C 68.586 90.3905 68.5484 90.3717 68.5095 90.3553C 68.4886 90.3465 68.4672 90.3397 68.446 90.3318C 68.4017 90.315 68.3574 90.2979 68.3117 90.2839C 68.2903 90.2774 68.2685 90.273 68.2469 90.2671C 68.2015 90.2546 68.1564 90.2419 68.1099 90.2325C 68.0652 90.2233 68.0201 90.2179 67.9749 90.2115C 67.9514 90.2083 67.9283 90.2034 67.9043 90.2008C 67.7605 90.1859 67.6149 90.1859 67.4693 90.2008C 67.4518 90.2026 67.4352 90.2061 67.4179 90.2083C 67.3652 90.2148 67.3127 90.222 67.2605 90.2325C 67.2259 90.2395 67.1924 90.2494 67.1585 90.2581C 67.1246 90.2669 67.0905 90.2741 67.0568 90.2846C 67.0063 90.3001 66.957 90.3192 66.908 90.3384C 66.8913 90.345 66.8743 90.35 66.8577 90.357C 66.7875 90.3868 66.7188 90.4196 66.6527 90.4561C 52.2717 98.2971 39.8393 98.5848 32.5431 91.2442C 27.1934 85.8622 25.8528 77.0973 29.3552 70.4032C 33.1721 63.1084 41.5221 59.9956 52.3944 61.7458C 52.7425 62.9994 53.4331 64.1428 54.405 65.0318L 62.8034 73.7214C 64.1034 75.0614 65.8347 75.7995 67.6786 75.7995C 69.5188 75.7995 71.2558 75.066 72.5696 73.7345C 72.5748 73.7293 72.58 73.724 72.5852 73.7185L 81.268 64.7345C 82.0957 63.8816 82.6613 62.8653 82.9659 61.7891C 93.8436 60.0352 102.198 63.1471 106.017 70.4445C 109.519 77.1382 108.178 85.9033 102.828 91.2854ZM 117.037 34.7235C 116.012 39.916 112.521 45.0644 108.014 48.2757C 103.718 27.1461 97.3499 13.5677 87.9765 6.35706C 88.7621 5.83162 89.0111 5.68878 89.075 5.65553C 97.152 1.88277 101.599 6.65784 110.104 16.9395C 111.08 18.1196 112.09 19.3398 113.149 20.5897C 116.693 24.7718 118.037 29.659 117.037 34.7235Z"/>
<path id="path7_fill" d="M 43.3334 69.7587C 42.1438 69.7587 41.1736 70.7414 41.1736 71.9462C 41.1736 73.1511 42.1438 74.1337 43.3334 74.1337C 44.5231 74.1337 45.4933 73.1511 45.4933 71.9462C 45.4933 70.7416 44.5231 69.7587 43.3334 69.7587Z"/>
<path id="path8_fill" d="M 38.7978 81.7899C 37.6081 81.7899 36.6379 82.7725 36.6379 83.9774C 36.6379 85.1823 37.6081 86.1649 38.7978 86.1649C 39.9874 86.1649 40.9577 85.1823 40.9577 83.9774C 40.9577 82.7728 39.9874 81.7899 38.7978 81.7899Z"/>
<path id="path9_fill" d="M 51.6489 78.7274C 50.4592 78.7274 49.489 79.7101 49.489 80.9149C 49.489 82.1198 50.4592 83.1024 51.6489 83.1024C 52.8385 83.1024 53.8087 82.1198 53.8087 80.9149C 53.8087 79.7103 52.8385 78.7274 51.6489 78.7274Z"/>
<path id="path10_fill" d="M 92.038 69.7587C 90.8484 69.7587 89.8782 70.7414 89.8782 71.9462C 89.8782 73.1511 90.8484 74.1337 92.038 74.1337C 93.2277 74.1337 94.1979 73.1511 94.1979 71.9462C 94.1979 70.7416 93.2277 69.7587 92.038 69.7587Z"/>
<path id="path11_fill" d="M 96.5739 81.7899C 95.3843 81.7899 94.4141 82.7725 94.4141 83.9774C 94.4141 85.1823 95.3843 86.1649 96.5739 86.1649C 97.7636 86.1649 98.7338 85.1823 98.7338 83.9774C 98.7338 82.7728 97.7636 81.7899 96.5739 81.7899Z"/>
<path id="path12_fill" d="M 83.7226 78.7274C 82.533 78.7274 81.5627 79.7101 81.5627 80.9149C 81.5627 82.1198 82.533 83.1024 83.7226 83.1024C 84.9123 83.1024 85.8825 82.1198 85.8825 80.9149C 85.8825 79.7103 84.9123 78.7274 83.7226 78.7274Z"/>
<path id="path13_fill" d="M 45.4186 23.9502C 44.3559 23.4017 43.0553 23.8298 42.5136 24.9065C 42.5125 24.9089 42.4943 24.9457 42.493 24.9481C 41.9557 26.0267 42.3833 27.3423 43.4481 27.8865C 43.7602 28.046 44.0922 28.1217 44.4194 28.1217C 45.2086 28.1215 45.9693 27.6816 46.3495 26.9192C 46.3508 26.9166 46.3616 26.8949 46.3648 26.8882C 46.903 25.8126 46.4801 24.4979 45.4186 23.9502Z"/>
<path id="path14_fill" d="M 61.2499 10.5877C 60.9674 9.41407 59.7998 8.69351 58.6399 8.98029C 53.4692 10.2565 48.0918 15.8685 45.7389 19.3293C 45.0622 20.3242 45.3104 21.6863 46.2929 22.3714C 46.667 22.6324 47.0936 22.7575 47.516 22.7575C 48.2026 22.7575 48.878 22.4266 49.2968 21.8103C 51.7148 18.2537 56.2531 14.0723 59.6628 13.2308C 60.8218 12.9447 61.5324 11.7615 61.2499 10.5877Z"/>
<path id="path15_fill" d="M 197.569 166.167C 197.534 165.946 197.495 165.695 197.457 165.412L 196.05 154.787C 195.915 152.923 195.432 151.392 194.573 150.108C 193.48 148.472 191.773 147.252 189.495 146.477C 188.35 142.708 184.896 140.123 180.903 140.123C 178.707 140.123 176.634 140.917 174.937 142.386C 173.31 139.614 170.564 138 167.355 138C 163.876 138 160.862 139.943 159.77 142.753C 159.394 142.675 159.002 142.635 158.599 142.635C 156.752 142.635 154.785 143.495 153.338 144.934C 152.045 146.22 151.269 147.842 151.109 149.563C 149.183 150.278 147.941 151.708 147.95 153.278L 147.953 153.92L 146.939 159.135C 146.938 159.137 146.938 159.139 146.937 159.141L 145.877 164.593C 145.626 165.884 145.566 166.867 146.046 167.778C 146.461 168.565 147.178 169.113 148.264 169.941L 148.483 170.108C 151.166 172.16 154.813 173.716 159.322 174.732C 163.022 175.565 167.224 176 171.545 176C 171.952 176 172.361 175.996 172.771 175.988C 182.44 175.805 191.304 173.508 195.904 169.993C 197.771 168.567 197.84 167.89 197.569 166.167ZM 152.351 151.271C 152.803 151.155 153.116 150.752 153.111 150.292C 153.095 148.833 153.689 147.43 154.784 146.341C 155.857 145.273 157.284 144.635 158.6 144.635C 159.118 144.635 159.597 144.735 160.025 144.931C 160.308 145.061 160.637 145.055 160.916 144.916C 161.194 144.776 161.392 144.518 161.452 144.215C 161.998 141.448 164.835 140 167.355 140C 170.19 140 172.566 141.67 173.71 144.468C 173.843 144.792 174.139 145.025 174.49 145.081C 174.841 145.138 175.196 145.009 175.427 144.742C 176.888 143.053 178.833 142.123 180.903 142.123C 184.139 142.123 186.92 144.328 187.666 147.486C 187.748 147.835 188.013 148.113 188.361 148.217C 192.843 149.553 193.775 152.286 193.998 154.621C 192.829 156.181 190.183 157.802 186.82 159.006C 183.814 160.083 178.774 161.365 171.835 161.365C 159.326 161.365 150.47 157.54 149.986 153.948L 149.983 153.268C 149.978 152.476 150.997 151.618 152.351 151.271ZM 195.639 167.487C 195.54 167.739 194.899 168.229 194.658 168.414C 190.001 171.972 180.766 174.01 171.529 174.01C 163.105 174.009 154.679 172.314 149.73 168.529L 149.51 168.361C 147.548 166.863 147.511 166.835 147.873 164.969L 148.6 161.236C 149.832 162.182 151.28 163.008 152.983 163.735C 153.115 163.791 153.252 163.818 153.387 163.818C 153.78 163.818 154.154 163.593 154.32 163.215C 154.544 162.709 154.307 162.12 153.792 161.9C 151.847 161.07 150.287 160.112 149.038 158.982L 149.407 157.088C 150.704 158.537 152.827 159.83 155.668 160.869C 160.072 162.479 165.813 163.365 171.835 163.365C 179.07 163.365 184.356 162.017 187.515 160.886C 190.358 159.868 192.717 158.575 194.318 157.187L 195.442 165.671C 195.483 165.977 195.524 166.241 195.561 166.473C 195.64 166.976 195.697 167.339 195.639 167.487Z"/>
<path id="path16_fill" d="M 156.541 162.912C 156.522 162.907 156.502 162.901 156.484 162.897C 155.94 162.763 155.388 163.088 155.252 163.624C 155.119 164.147 155.431 164.676 155.952 164.826C 156.048 164.854 156.145 164.868 156.241 164.868C 156.678 164.868 157.082 164.588 157.214 164.155C 157.374 163.629 157.073 163.074 156.541 162.912Z"/>
<path id="path17_fill" d="M 186.181 147.826C 185.741 145.963 184.405 144.495 182.608 143.899C 182.334 143.809 182.054 143.739 181.776 143.692C 181.67 143.675 181.563 143.66 181.456 143.649C 180.898 143.59 180.397 143.987 180.337 144.536C 180.277 145.085 180.68 145.578 181.238 145.637C 181.304 145.644 181.37 145.653 181.435 145.664C 181.609 145.693 181.786 145.737 181.959 145.795C 183.101 146.173 183.918 147.078 184.201 148.279C 184.31 148.74 184.728 149.052 185.19 149.052C 185.266 149.052 185.344 149.044 185.421 149.026C 185.968 148.901 186.308 148.364 186.181 147.826Z"/>
<path id="path18_fill" d="M 179.434 144.776C 179.134 144.309 178.506 144.17 178.032 144.465L 177.998 144.486C 177.531 144.788 177.402 145.404 177.707 145.865C 177.901 146.16 178.227 146.319 178.56 146.319C 178.75 146.319 178.941 146.268 179.112 146.159L 179.118 146.155C 179.593 145.86 179.734 145.242 179.434 144.776Z"/>
<path id="path19_fill" d="M 159.259 150.357C 157.578 150.357 156.21 151.703 156.21 153.357C 156.21 155.012 157.578 156.357 159.259 156.357C 160.94 156.357 162.308 155.012 162.308 153.357C 162.308 151.703 160.94 150.357 159.259 150.357ZM 159.259 154.358C 158.699 154.358 158.243 153.909 158.243 153.358C 158.243 152.806 158.699 152.358 159.259 152.358C 159.819 152.358 160.275 152.806 160.275 153.358C 160.275 153.909 159.819 154.358 159.259 154.358Z"/>
<path id="path20_fill" d="M 179.351 150.548C 177.388 150.548 175.792 152.12 175.792 154.051C 175.792 155.982 177.389 157.553 179.351 157.553C 181.314 157.553 182.91 155.982 182.91 154.051C 182.91 152.12 181.313 150.548 179.351 150.548ZM 179.351 155.553C 178.509 155.553 177.824 154.879 177.824 154.051C 177.824 153.223 178.509 152.549 179.351 152.549C 180.193 152.549 180.878 153.223 180.878 154.051C 180.878 154.879 180.193 155.553 179.351 155.553Z"/>
<path id="path21_fill" d="M 169.08 144.453C 167.399 144.453 166.031 145.799 166.031 147.453C 166.031 149.107 167.399 150.453 169.08 150.453C 170.761 150.453 172.129 149.107 172.129 147.453C 172.129 145.799 170.761 144.453 169.08 144.453ZM 169.08 148.453C 168.52 148.453 168.064 148.005 168.064 147.453C 168.064 146.902 168.52 146.453 169.08 146.453C 169.64 146.453 170.096 146.902 170.096 147.453C 170.096 148.005 169.64 148.453 169.08 148.453Z"/>
</defs>
</svg>
