<?xml version="1.0" encoding="utf-8"?>
<!-- Generator: Adobe Illustrator 22.1.0, SVG Export Plug-In . SVG Version: 6.00 Build 0)  -->
<svg version="1.1" id="Слой_2" xmlns="http://www.w3.org/2000/svg" xmlns:xlink="http://www.w3.org/1999/xlink" x="0px" y="0px"
	 viewBox="0 0 576 512" style="enable-background:new 0 0 576 512;" xml:space="preserve">
<style type="text/css">
	.st0{fill:#576077;fill-opacity:0.5;}
</style>
<path id="path0_fill_1_" class="st0" d="M54.3,301.6c4.3,2.1,9.5,0.4,11.7-3.9c2.2-4.3,0.5-9.5-3.8-11.7c-1.3-0.7-31.1-16.5-39-63.5
	c-0.6-3.9-3.8-6.8-7.7-7.2c-4-0.4-7.6,1.8-9,5.4c-18.9,47.4,16.8,101.8,18.3,104.1c1.7,2.5,4.5,3.9,7.3,3.9c1.7,0,3.3-0.5,4.8-1.5
	c4-2.7,5.1-8.1,2.4-12.1c-0.2-0.3-15-22.9-19.5-49.5C34.1,291.2,53.1,301.1,54.3,301.6z"/>
<path id="path1_fill_1_" class="st0" d="M94.8,319.8c4.7-0.9,7.8-5.5,6.9-10.3c-1-4.7-5.5-7.8-10.3-6.8
	c-17.5,3.5-50.7,22.6-50.7,69.6c0,34.2,7.2,57.9,12.7,71c-19.1,3.7-30.1,15.7-30.1,33.7c0,20.2,18.4,34.9,43.6,34.9h8.7
	c14.5,0,23.4-10.8,24.3-12.1c3-3.8,2.3-9.3-1.5-12.3c-3.8-3-9.3-2.3-12.2,1.5c0,0.1-4.5,5.4-10.6,5.4h-8.7c-13,0-26.2-6-26.2-17.5
	c0-4.3,0-17.5,26.2-17.5c3.2,0,6.1-1.8,7.7-4.6c1.5-2.8,1.4-6.3-0.4-8.9c-0.2-0.3-16-25.1-16-73.7C58.2,328.1,93.3,320.1,94.8,319.8
	z"/>
<path id="path2_fill_1_" class="st0" d="M342.2,443.4c5.5-13.2,12.7-36.9,12.7-71c0-47.1-33.1-66.1-50.7-69.6
	c-4.7-0.9-9.3,2.1-10.3,6.8c-0.9,4.7,2.1,9.3,6.9,10.3c1.5,0.3,36.6,7.8,36.6,52.5c0,48.6-15.8,73.5-16,73.7c-1.8,2.7-2,6.1-0.4,9
	c1.5,2.8,4.5,4.6,7.7,4.6c26.2,0,26.2,13.1,26.2,17.5c0,11.5-13.2,17.5-26.2,17.5H320c-6,0-10.5-5.2-10.6-5.4
	c-3-3.7-8.4-4.4-12.2-1.4c-3.8,3-4.5,8.5-1.5,12.3c1,1.2,9.9,12.1,24.3,12.1h8.7c25.3,0,43.6-14.7,43.6-34.9
	C372.3,459.1,361.3,447.1,342.2,443.4z"/>
<path id="path3_fill_1_" class="st0" d="M251.6,442.8l15.9-95.2c0.8-4.8-2.4-9.3-7.2-10c-4.8-0.8-9.3,2.4-10,7.2L234,442.2h-1.3
	c-4.8,0-8.7,3.9-8.7,8.7s3.9,8.7,8.7,8.7h8.7c26.2,0,26.2,13.1,26.2,17.5c0,11.5-13.2,17.5-26.2,17.5h-8.7
	c-14.4,0-26.2-11.7-26.2-26.2V346.2c0-4.8-3.9-8.7-8.7-8.7c-4.8,0-8.7,3.9-8.7,8.7v122.2c0,14.4-11.7,26.2-26.2,26.2h-8.7
	c-13,0-26.2-6-26.2-17.5c0-4.3,0-17.5,26.2-17.5h8.7c4.8,0,8.7-3.9,8.7-8.7s-3.9-8.7-8.7-8.7h-1.3l-16.2-97.4c-0.8-4.7-5.3-8-10-7.2
	c-4.8,0.8-8,5.3-7.2,10l15.9,95.2c-21.1,2.9-33.4,15.3-33.4,34.2c0,20.2,18.4,34.9,43.6,34.9h8.7c14.3,0,26.9-6.9,34.9-17.5
	c8,10.6,20.6,17.5,34.9,17.5h8.7c25.3,0,43.6-14.7,43.6-34.9C285.1,458.1,272.8,445.8,251.6,442.8z"/>
<path id="path4_fill_1_" class="st0" d="M261.7,121.7c-4.9-8.8-14-14.3-23.8-14.3c-9.8,0-18.9,5.5-23.8,14.3
	c-1.7,3.1-0.6,6.9,2.4,8.7c3,1.7,6.9,0.6,8.5-2.5c2.7-4.8,7.6-7.8,12.8-7.8c5.3,0,10.2,3,12.8,7.8c1.2,2.1,3.3,3.3,5.5,3.3
	c1,0,2.1-0.3,3.1-0.8C262.4,128.7,263.4,124.8,261.7,121.7z"/>
<path id="path5_fill_1_" class="st0" d="M181.4,121.7c-4.9-8.8-14-14.3-23.8-14.3c-9.8,0-18.9,5.5-23.8,14.3
	c-1.7,3.1-0.6,6.9,2.4,8.7c3,1.7,6.9,0.6,8.5-2.5c2.7-4.8,7.6-7.8,12.8-7.8s10.2,3,12.8,7.8c1.2,2.1,3.3,3.3,5.5,3.3
	c1,0,2.1-0.3,3.1-0.8C182.1,128.7,183.1,124.8,181.4,121.7z"/>
<path id="path6_fill_1_" class="st0" d="M339.6,51.6c-3-3.6-5.9-7.1-8.8-10.5C319,26.8,308.7,14.4,297.2,7
	c-13.3-8.5-27.2-9.2-42.5-2.1c-0.9,0.4-2.5,1.3-9.4,6.1c-13.8-7.4-29.5-11-47.5-11c-18,0-33.7,3.6-47.5,11c-6.9-4.8-8.5-5.7-9.4-6.1
	C125.6-2.2,111.7-1.5,98.4,7c-11.5,7.4-21.7,19.7-33.6,34.1C62,44.5,59,48,56,51.6c-12.9,15.2-17.8,33.2-14.1,51.9
	c4,20.2,17.9,39.6,36,50.4c-1.9,11.5-3.4,28.3-2.8,45.1c-6.1,11.7-8.3,25.6-6.3,39.2c2,13.8,8.4,26.7,17.9,36.3
	c11.6,11.7,27.4,18.3,45.6,19c1.2,0,2.4,0.1,3.6,0.1c7.9,0,16.2-1.1,24.8-3.2c1.1,19.7,17.3,35.4,37.1,35.4
	c19.7,0,35.8-15.6,37-35.3c8.6,2.1,16.9,3.2,24.8,3.2c1.2,0,2.4,0,3.6-0.1c18.2-0.7,34-7.3,45.6-19c9.5-9.6,15.9-22.5,17.9-36.3
	c2-13.6-0.2-27.5-6.3-39.2c0-0.2,0-0.5,0-0.7c0.4-14.5-0.6-30.8-2.9-44.5c18.1-10.9,32-30.2,36-50.4
	C357.4,84.8,352.5,66.9,339.6,51.6z M197.8,12.7c27.3,0,47.6,8.8,63.9,27.8c18.9,22,32.9,58.3,42.8,111c0,0,0,0.1,0,0.1
	c0,0.2,0.1,0.5,0.1,0.7c1.4,7.4,2.7,18.3,3.2,30.3c-5.3-4.8-11.4-8.7-18.4-11.5c-13.6-5.6-29.7-7-47.8-4.2c-1-2.6-2.5-5.1-4.6-7.2
	c-3.8-3.7-8.7-5.8-14-5.8l-50.5,0c-8.5,0-15.7,5.4-18.6,12.9c-18.1-2.7-34.2-1.3-47.8,4.2c-6.9,2.8-13.1,6.7-18.4,11.5
	c0.5-11.9,1.8-22.7,3.2-30.2c0-0.2,0.1-0.5,0.1-0.7c0-0.1,0-0.1,0-0.2c9.9-52.7,23.9-89,42.8-111C150.2,21.6,170.5,12.7,197.8,12.7z
	 M228.3,179.4l-25.2,26.1c-1.4,1.5-3.3,2.3-5.3,2.3c-2,0-3.8-0.8-5.2-2.2L168,180.1c-0.1-0.1-0.2-0.2-0.3-0.3
	c-1.6-1.4-2.5-3.5-2.5-5.7c0-4.2,3.3-7.5,7.4-7.5l50.5,0c1.9,0,3.8,0.8,5.2,2.1C231.2,171.7,231.2,176.5,228.3,179.4z M54.2,101
	c-2.9-14.7,1-28.9,11.3-41.1c3.1-3.6,6-7.2,8.9-10.6c24.7-29.9,37.7-43.8,61.1-32.9c0.2,0.1,1,0.5,3.2,2.1
	C111.5,39.5,93,79,80.5,140.4C67.4,131.1,57.2,116.1,54.2,101z M222.4,288.2c0,13.7-11,24.9-24.6,24.9c-13.5,0-24.6-11.2-24.6-24.9
	v-1.5c6-2.1,12.1-4.6,18.3-7.6v11c0,3.5,2.8,6.4,6.3,6.4c3.5,0,6.3-2.9,6.3-6.4v-10.9c6.2,3,12.3,5.5,18.3,7.6V288.2z M300,265.6
	c-21.1,21.2-56.9,20.5-98.4-1.8c-0.1-0.1-0.1-0.1-0.2-0.2c-0.1,0-0.1-0.1-0.2-0.1c-0.1-0.1-0.2-0.1-0.3-0.2
	c-0.1-0.1-0.2-0.1-0.3-0.2c-0.1,0-0.1-0.1-0.2-0.1c-0.1-0.1-0.2-0.1-0.3-0.2c-0.1,0-0.1,0-0.2-0.1c-0.1,0-0.3-0.1-0.4-0.1
	c-0.1,0-0.1,0-0.2,0c-0.1,0-0.3-0.1-0.4-0.1c-0.1,0-0.3,0-0.4-0.1c-0.1,0-0.1,0-0.2,0c-0.4,0-0.8,0-1.3,0c-0.1,0-0.1,0-0.1,0
	c-0.2,0-0.3,0-0.5,0.1c-0.1,0-0.2,0-0.3,0.1c-0.1,0-0.2,0-0.3,0.1c-0.1,0-0.3,0.1-0.4,0.2c0,0-0.1,0-0.1,0.1
	c-0.2,0.1-0.4,0.2-0.6,0.3c-41.8,22.8-78,23.6-99.2,2.3c-15.6-15.7-19.5-41.2-9.3-60.6c11.1-21.2,35.4-30.3,67-25.2
	c1,3.6,3,7,5.8,9.6l24.4,25.3c3.8,3.9,8.8,6,14.2,6c5.4,0,10.4-2.1,14.2-6c0,0,0,0,0,0l25.3-26.1c2.4-2.5,4.1-5.4,4.9-8.6
	c31.6-5.1,55.9,4,67.1,25.2C319.5,224.4,315.6,249.9,300,265.6z M341.4,101c-3,15.1-13.1,30.1-26.2,39.4
	c-12.5-61.5-31-101-58.3-121.9c2.3-1.5,3-1.9,3.2-2c23.5-11,36.4,2.9,61.2,32.8c2.8,3.4,5.8,7,8.9,10.6
	C340.4,72.1,344.3,86.3,341.4,101z"/>
<path id="path7_fill_1_" class="st0" d="M127,202.9c-3.5,0-6.3,2.9-6.3,6.4c0,3.5,2.8,6.4,6.3,6.4c3.5,0,6.3-2.9,6.3-6.4
	C133.2,205.8,130.4,202.9,127,202.9z"/>
<path id="path8_fill_1_" class="st0" d="M113.8,237.9c-3.5,0-6.3,2.9-6.3,6.4c0,3.5,2.8,6.4,6.3,6.4c3.5,0,6.3-2.9,6.3-6.4
	C120,240.8,117.2,237.9,113.8,237.9z"/>
<path id="path9_fill_1_" class="st0" d="M151.1,229c-3.5,0-6.3,2.9-6.3,6.4c0,3.5,2.8,6.4,6.3,6.4c3.5,0,6.3-2.9,6.3-6.4
	C157.4,231.9,154.6,229,151.1,229z"/>
<path id="path10_fill_1_" class="st0" d="M268.6,202.9c-3.5,0-6.3,2.9-6.3,6.4c0,3.5,2.8,6.4,6.3,6.4c3.5,0,6.3-2.9,6.3-6.4
	C274.9,205.8,272.1,202.9,268.6,202.9z"/>
<path id="path11_fill_1_" class="st0" d="M281.8,237.9c-3.5,0-6.3,2.9-6.3,6.4c0,3.5,2.8,6.4,6.3,6.4c3.5,0,6.3-2.9,6.3-6.4
	C288.1,240.8,285.3,237.9,281.8,237.9z"/>
<path id="path12_fill_1_" class="st0" d="M244.5,229c-3.5,0-6.3,2.9-6.3,6.4c0,3.5,2.8,6.4,6.3,6.4c3.5,0,6.3-2.9,6.3-6.4
	C250.7,231.9,247.9,229,244.5,229z"/>
<path id="path13_fill_1_" class="st0" d="M133,69.7c-3.1-1.6-6.9-0.4-8.5,2.8c0,0-0.1,0.1-0.1,0.1c-1.6,3.1-0.3,7,2.8,8.5
	c0.9,0.5,1.9,0.7,2.8,0.7c2.3,0,4.5-1.3,5.6-3.5c0,0,0-0.1,0-0.1C137.3,75.1,136.1,71.3,133,69.7z"/>
<path id="path14_fill_1_" class="st0" d="M179.1,30.8c-0.8-3.4-4.2-5.5-7.6-4.7c-15,3.7-30.7,20-37.5,30.1c-2,2.9-1.2,6.9,1.6,8.8
	c1.1,0.8,2.3,1.1,3.6,1.1c2,0,4-1,5.2-2.8c7-10.3,20.2-22.5,30.2-25C177.8,37.7,179.9,34.2,179.1,30.8z"/>
<path id="path15_fill_1_" class="st0" d="M575.6,483.4c-0.1-0.6-0.2-1.4-0.3-2.2l-4.1-30.9c-0.4-5.4-1.8-9.9-4.3-13.6
	c-3.2-4.8-8.1-8.3-14.8-10.6c-3.3-11-13.4-18.5-25-18.5c-6.4,0-12.4,2.3-17.4,6.6c-4.7-8.1-12.7-12.8-22.1-12.8
	c-10.1,0-18.9,5.7-22.1,13.8c-1.1-0.2-2.2-0.3-3.4-0.3c-5.4,0-11.1,2.5-15.3,6.7c-3.8,3.7-6,8.5-6.5,13.5c-5.6,2.1-9.2,6.2-9.2,10.8
	l0,1.9l-2.9,15.2c0,0,0,0,0,0l-3.1,15.9c-0.7,3.8-0.9,6.6,0.5,9.3c1.2,2.3,3.3,3.9,6.5,6.3l0.6,0.5c7.8,6,18.4,10.5,31.5,13.5
	c10.8,2.4,23,3.7,35.6,3.7c1.2,0,2.4,0,3.6,0c28.1-0.5,53.9-7.2,67.3-17.4C576.2,490.4,576.4,488.4,575.6,483.4z M444.1,440.1
	c1.3-0.3,2.2-1.5,2.2-2.8c0-4.2,1.7-8.3,4.9-11.5c3.1-3.1,7.3-5,11.1-5c1.5,0,2.9,0.3,4.1,0.9c0.8,0.4,1.8,0.4,2.6,0
	c0.8-0.4,1.4-1.2,1.6-2c1.6-8,9.8-12.3,17.2-12.3c8.2,0,15.2,4.9,18.5,13c0.4,0.9,1.2,1.6,2.3,1.8c1,0.2,2.1-0.2,2.7-1
	c4.3-4.9,9.9-7.6,15.9-7.6c9.4,0,17.5,6.4,19.7,15.6c0.2,1,1,1.8,2,2.1c13,3.9,15.7,11.8,16.4,18.6c-3.4,4.5-11.1,9.3-20.9,12.8
	c-8.7,3.1-23.4,6.9-43.6,6.9c-36.4,0-62.2-11.1-63.6-21.6l0-2C437.2,443.6,440.2,441.1,444.1,440.1z M570,487.2
	c-0.3,0.7-2.2,2.2-2.9,2.7c-13.5,10.4-40.4,16.3-67.3,16.3c-24.5,0-49-4.9-63.4-15.9l-0.6-0.5c-5.7-4.4-5.8-4.4-4.8-9.9l2.1-10.9
	c3.6,2.8,7.8,5.2,12.8,7.3c0.4,0.2,0.8,0.2,1.2,0.2c1.1,0,2.2-0.7,2.7-1.8c0.7-1.5,0-3.2-1.5-3.8c-5.7-2.4-10.2-5.2-13.8-8.5
	l1.1-5.5c3.8,4.2,9.9,8,18.2,11c12.8,4.7,29.5,7.3,47,7.3c21,0,36.4-3.9,45.6-7.2c8.3-3,15.1-6.7,19.8-10.8l3.3,24.7
	c0.1,0.9,0.2,1.7,0.3,2.3C570,485.7,570.2,486.8,570,487.2z"/>
<path id="path16_fill_1_" class="st0" d="M456.3,473.9c-0.1,0-0.1,0-0.2,0c-1.6-0.4-3.2,0.6-3.6,2.1c-0.4,1.5,0.5,3.1,2,3.5
	c0.3,0.1,0.6,0.1,0.8,0.1c1.3,0,2.4-0.8,2.8-2.1C458.7,476,457.8,474.4,456.3,473.9z"/>
<path id="path17_fill_1_" class="st0" d="M542.5,430c-1.3-5.4-5.2-9.7-10.4-11.4c-0.8-0.3-1.6-0.5-2.4-0.6c-0.3,0-0.6-0.1-0.9-0.1
	c-1.6-0.2-3.1,1-3.3,2.6c-0.2,1.6,1,3,2.6,3.2c0.2,0,0.4,0,0.6,0.1c0.5,0.1,1,0.2,1.5,0.4c3.3,1.1,5.7,3.7,6.5,7.2
	c0.3,1.3,1.5,2.2,2.9,2.2c0.2,0,0.4,0,0.7-0.1C541.9,433.2,542.9,431.6,542.5,430z"/>
<path id="path18_fill_1_" class="st0" d="M522.9,421.2c-0.9-1.4-2.7-1.8-4.1-0.9l-0.1,0.1c-1.4,0.9-1.7,2.7-0.8,4
	c0.6,0.9,1.5,1.3,2.5,1.3c0.6,0,1.1-0.1,1.6-0.5l0,0C523.3,424.3,523.8,422.5,522.9,421.2z"/>
<path id="path19_fill_1_" class="st0" d="M464.2,437.4c-4.9,0-8.9,3.9-8.9,8.7c0,4.8,4,8.7,8.9,8.7c4.9,0,8.9-3.9,8.9-8.7
	C473.1,441.3,469.1,437.4,464.2,437.4z M464.2,449c-1.6,0-3-1.3-3-2.9c0-1.6,1.3-2.9,3-2.9c1.6,0,3,1.3,3,2.9
	C467.2,447.7,465.8,449,464.2,449z"/>
<path id="path20_fill_1_" class="st0" d="M522.6,438c-5.7,0-10.4,4.6-10.4,10.2s4.6,10.2,10.4,10.2c5.7,0,10.4-4.6,10.4-10.2
	S528.4,438,522.6,438z M522.6,452.5c-2.4,0-4.4-2-4.4-4.4c0-2.4,2-4.4,4.4-4.4c2.4,0,4.4,2,4.4,4.4
	C527.1,450.6,525.1,452.5,522.6,452.5z"/>
<path id="path21_fill_1_" class="st0" d="M492.8,420.2c-4.9,0-8.9,3.9-8.9,8.7c0,4.8,4,8.7,8.9,8.7c4.9,0,8.9-3.9,8.9-8.7
	C501.6,424.1,497.7,420.2,492.8,420.2z M492.8,431.9c-1.6,0-3-1.3-3-2.9c0-1.6,1.3-2.9,3-2.9s3,1.3,3,2.9
	C495.7,430.6,494.4,431.9,492.8,431.9z"/>
</svg>
