<svg width="512" height="512" viewBox="0 0 512 512" version="1.1" xmlns="http://www.w3.org/2000/svg" xmlns:xlink="http://www.w3.org/1999/xlink">
<title>Vector</title>
<desc>Created using Figma</desc>
<g id="Canvas" transform="matrix(28.4444 0 0 28.4444 28472.9 625.778)">
<g id="Vector">
<use xlink:href="#path0_fill" transform="translate(-1001 -22)" fill="#000000" fill-opacity="0.5"/>
<use xlink:href="#path1_fill" transform="translate(-1001 -22)" fill="#000000" fill-opacity="0.5"/>
</g>
</g>
<defs>
<path id="path0_fill" d="M 17.9743 7.72953C 17.957 7.68927 17.9318 7.65295 17.9006 7.62251L 13.8254 3.69589C 13.6926 3.56793 13.4779 3.56793 13.3451 3.69589C 13.2123 3.82385 13.2123 4.03069 13.3451 4.15865L 16.8409 7.52727L 9.50967 7.52727C 9.32186 7.52727 9.17004 7.67356 9.17004 7.85455C 9.17004 8.03553 9.32186 8.18182 9.50967 8.18182L 16.8409 8.18182L 13.3451 11.5504C 13.2123 11.6784 13.2123 11.8852 13.3451 12.0132C 13.4114 12.077 13.4983 12.1091 13.5852 12.1091C 13.6722 12.1091 13.7591 12.077 13.8254 12.0132L 17.9006 8.08625C 17.9322 8.05615 17.957 8.01982 17.9743 7.97956C 18.0086 7.89971 18.0086 7.80938 17.9743 7.72953Z"/>
<path id="path1_fill" d="M 11.8871 9.49091C 11.6993 9.49091 11.5474 9.6372 11.5474 9.81818L 11.5474 15.0545L 8.15114 15.0545L 8.15114 2.61818C 8.15114 2.47549 8.05536 2.34949 7.91441 2.30629L 2.52719 0.654545L 11.5474 0.654545L 11.5474 5.89091C 11.5474 6.07189 11.6993 6.21818 11.8871 6.21818C 12.0749 6.21818 12.2267 6.07189 12.2267 5.89091L 12.2267 0.327273C 12.2267 0.146291 12.0749 0 11.8871 0L 0.339631 0C 0.328762 0 0.319253 0.00490909 0.308724 0.00589091C 0.289705 0.00752727 0.273063 0.0117818 0.255063 0.0163636C 0.223137 0.0245455 0.194608 0.0356727 0.167098 0.0517091C 0.158268 0.0569455 0.147739 0.0569455 0.139249 0.0628364C 0.12872 0.0703636 0.120569 0.0798545 0.111059 0.0880364C 0.105285 0.0932727 0.0991721 0.0978545 0.093738 0.103418C 0.0679261 0.130255 0.046869 0.160036 0.031246 0.192764C 0.0281893 0.199309 0.0264912 0.205855 0.0237741 0.2124C 0.00950963 0.249055 0 0.287345 0 0.327273L 0 15.3818C 0 15.4227 0.00984926 15.4613 0.0244534 15.498C 0.0292082 15.5101 0.0363405 15.5203 0.0424538 15.5317C 0.0550202 15.5549 0.0692846 15.5762 0.0872851 15.5959C 0.0971344 15.6063 0.106984 15.6158 0.117852 15.6253C 0.13755 15.642 0.159626 15.6557 0.183401 15.6679C 0.195967 15.6744 0.207514 15.6813 0.2211 15.6862C 0.226873 15.6881 0.231288 15.6921 0.237062 15.694L 7.70894 17.9849C 7.74222 17.9948 7.77686 18 7.81151 18C 7.88283 18 7.95313 17.9784 8.01189 17.9372C 8.09951 17.8756 8.15114 17.7775 8.15114 17.6727L 8.15114 15.7091L 11.8871 15.7091C 12.0749 15.7091 12.2267 15.5628 12.2267 15.3818L 12.2267 9.81818C 12.2267 9.6372 12.0745 9.49091 11.8871 9.49091Z"/>
</defs>
</svg>
