<?xml version="1.0" encoding="utf-8"?>
<!-- Generator: Adobe Illustrator 22.1.0, SVG Export Plug-In . SVG Version: 6.00 Build 0)  -->
<svg version="1.1" id="Слой_2" xmlns="http://www.w3.org/2000/svg" xmlns:xlink="http://www.w3.org/1999/xlink" x="0px" y="0px"
	 viewBox="0 0 811 512" style="enable-background:new 0 0 811 512;" xml:space="preserve">
<style type="text/css">
	.st0{fill:#FFFFFF;}
</style>
<path id="path0_fill_1_" d="M808,265.6c-167.1,268.7-407.3,246-407.3,246C169.1,511.3,31.3,311.3,2.6,265.3c-3.5-5.7-3.5-13,0-18.7
	c28.7-45.7,166.5-246,398.1-246c0,0,240.2-22.7,407.3,246C811.5,252.3,811.5,259.6,808,265.6z"/>
<path id="path1_fill_1_" class="st0" d="M405.5,141.7c-60.2,0-109.1,51.1-109.1,114.2c0,63,48.8,114.2,109.1,114.2
	s109.1-51.1,109.1-114.2C514.6,192.8,465.7,141.7,405.5,141.7z M239,255.8c0-96.2,74.5-174.2,166.5-174.2S572,159.6,572,255.8
	c0,96.2-74.5,174.2-166.5,174.2S239,352.1,239,255.8z"/>
</svg>
