<?xml version="1.0" encoding="utf-8"?>
<!-- Generator: Adobe Illustrator 22.1.0, SVG Export Plug-In . SVG Version: 6.00 Build 0)  -->
<svg version="1.1" id="Слой_2" xmlns="http://www.w3.org/2000/svg" xmlns:xlink="http://www.w3.org/1999/xlink" x="0px" y="0px"
	 viewBox="0 0 603 512" style="enable-background:new 0 0 603 512;" xml:space="preserve">
<path id="path0_fill_1_" d="M578.8,102.1c-15.7-15.4-34.6-23.1-56.8-23.1h-70.3l-16-41.8c-4-10-11.2-18.7-21.8-26
	c-10.6-7.3-21.4-10.9-32.5-10.9H220.8c-11.1,0-21.9,3.6-32.5,10.9c-10.6,7.3-17.8,16-21.8,26l-16,41.8H80.3
	c-22.2,0-41.1,7.7-56.8,23.1C7.8,117.5,0,136.1,0,157.8v275.7c0,21.7,7.8,40.3,23.5,55.7c15.7,15.4,34.6,23.1,56.8,23.1H522
	c22.2,0,41.1-7.7,56.8-23.1c15.7-15.4,23.5-33.9,23.5-55.7V157.8C602.3,136.1,594.5,117.5,578.8,102.1z M400.4,393.1
	c-27.5,27-60.6,40.5-99.3,40.5c-38.7,0-71.8-13.5-99.3-40.5c-27.5-27-41.3-59.4-41.3-97.4c0-38,13.8-70.4,41.3-97.4
	c27.5-27,60.6-40.5,99.3-40.5c38.7,0,71.8,13.5,99.3,40.5c27.5,27,41.3,59.4,41.3,97.4C441.7,333.6,427.9,366.1,400.4,393.1z"/>
<path id="path1_fill_1_" d="M301.1,207.2c-24.9,0-46.2,8.7-63.8,26c-17.7,17.3-26.5,38.2-26.5,62.6c0,24.4,8.8,45.3,26.5,62.6
	c17.7,17.3,39,26,63.8,26c24.9,0,46.2-8.7,63.8-26c17.7-17.3,26.5-38.2,26.5-62.6c0-24.4-8.8-45.3-26.5-62.6
	C347.3,215.9,326,207.2,301.1,207.2z"/>
</svg>
