<svg width="603" height="512" viewBox="0 0 603 512" version="1.1" xmlns="http://www.w3.org/2000/svg" xmlns:xlink="http://www.w3.org/1999/xlink">
<title>foto</title>
<desc>Created using Figma</desc>
<g id="Canvas" transform="matrix(30.1176 0 0 30.1176 -16022.6 -115832)">
<g id="foto">
<g id="Vector">
<use xlink:href="#path0_fill" transform="translate(532 3846)"/>
</g>
<g id="Vector">
<use xlink:href="#path1_fill" transform="translate(539 3852.87)"/>
</g>
</g>
</g>
<defs>
<path id="path0_fill" d="M 19.219 3.38168C 18.6981 2.87091 18.0698 2.61546 17.3336 2.61546L 15.0003 2.61546L 14.4691 1.22614C 14.3371 0.892466 14.0959 0.604662 13.7451 0.362769C 13.3943 0.120983 13.035 3.27604e-08 12.6669 3.27604e-08L 7.33341 3.27604e-08C 6.96535 3.27604e-08 6.60593 0.120983 6.2552 0.362769C 5.90446 0.604662 5.66322 0.892466 5.53125 1.22614L 5.00003 2.61546L 2.66668 2.61546C 1.93044 2.61546 1.30209 2.87091 0.781188 3.38168C 0.260396 3.89248 0 4.50881 0 5.23081L 0 14.3846C 0 15.1066 0.260396 15.723 0.781188 16.2337C 1.30209 16.7445 1.93048 17 2.66668 17L 17.3334 17C 18.0696 17 18.6978 16.7445 19.2188 16.2337C 19.7395 15.723 20 15.1066 20 14.3846L 20 5.23081C 20.0001 4.50881 19.7397 3.89248 19.219 3.38168ZM 13.2969 13.0412C 12.3838 13.9369 11.2849 14.3848 10.0001 14.3848C 8.71522 14.3848 7.61643 13.9369 6.70316 13.0412C 5.7899 12.1457 5.33336 11.0678 5.33336 9.80796C 5.33336 8.54775 5.79005 7.47015 6.70316 6.57446C 7.61632 5.67877 8.71526 5.23102 10.0001 5.23102C 11.2849 5.23102 12.3838 5.67888 13.2969 6.57446C 14.2102 7.47004 14.6668 8.54775 14.6668 9.80796C 14.6668 11.0678 14.2102 12.1456 13.2969 13.0412Z"/>
<path id="path1_fill" d="M 3.00012 -4.36805e-09C 2.17369 -4.36805e-09 1.46708 0.287768 0.880246 0.863374C 0.293415 1.43891 1.02437e-07 2.13181 1.02437e-07 2.94251C 1.02437e-07 3.75289 0.293415 4.4459 0.880246 5.02144C 1.46708 5.59687 2.17365 5.88463 3.00012 5.88463C 3.82644 5.88463 4.53312 5.59687 5.11996 5.02144C 5.70679 4.4459 6.00024 3.75293 6.00024 2.94251C 6.00024 2.13185 5.70679 1.43894 5.11996 0.863374C 4.53316 0.287803 3.82644 -4.36805e-09 3.00012 -4.36805e-09Z"/>
</defs>
</svg>
