<svg id="Layer_1" data-name="Layer 1" xmlns="http://www.w3.org/2000/svg" viewBox="0 0 421.65 100"><defs><style>.cls-1{fill:#333;}.cls-2{fill:#ffdd05;}.cls-3{fill:#ffc000;}.cls-4{fill:#eba700;}.cls-5{fill:#fedc00;}</style></defs><path class="cls-1" d="M360.74,227.19h8.59v9.33h10.83v8.06H369.33v12.25q0,6,4,6.05a8.66,8.66,0,0,0,5.15-1.94l2.62,6.64a15.29,15.29,0,0,1-9.93,3.29c-7.4,0-10.46-4.55-10.46-13.52Z" transform="translate(-232.5 -198.35)"/><path class="cls-1" d="M414,266.76c-3.29,2.77-7.55,4.19-12.85,4.19s-9.78-1.65-13.14-4.86-4.93-7.47-4.93-12.77a17.47,17.47,0,0,1,4.85-12.54c3.21-3.36,7.55-5.08,12.92-5.08a15.86,15.86,0,0,1,11.28,4.4,14.84,14.84,0,0,1,4.63,11.21,16.32,16.32,0,0,1-.52,4.63H392c.67,5,4.7,7.84,10.08,7.84a14.72,14.72,0,0,0,9.48-3.07Zm-22.33-16.57h16.5c.08-4.19-2.91-7.32-7.69-7.32S392.63,245.33,391.66,250.19Z" transform="translate(-232.5 -198.35)"/><path class="cls-1" d="M421.83,217.85h8.58v39.5c0,3.66,1,5.46,2.92,5.46a6.1,6.1,0,0,0,3.51-1.35l1.79,6.57a13.77,13.77,0,0,1-8.89,2.84c-5.3,0-7.91-3.36-7.91-10Z" transform="translate(-232.5 -198.35)"/><path class="cls-1" d="M471.11,266.76c-3.28,2.77-7.54,4.19-12.84,4.19s-9.78-1.65-13.14-4.86-4.93-7.47-4.93-12.77a17.47,17.47,0,0,1,4.85-12.54c3.21-3.36,7.54-5.08,12.92-5.08a15.86,15.86,0,0,1,11.28,4.4,14.84,14.84,0,0,1,4.63,11.21,15.93,15.93,0,0,1-.53,4.63H449.08c.68,5,4.71,7.84,10.09,7.84a14.74,14.74,0,0,0,9.48-3.07Zm-22.32-16.57h16.5c.07-4.19-2.91-7.32-7.69-7.32S449.76,245.33,448.79,250.19Z" transform="translate(-232.5 -198.35)"/><path class="cls-1" d="M479,285.06V236.52h8.58v3.21a14.82,14.82,0,0,1,10.38-4A13.88,13.88,0,0,1,509,240.48a19.88,19.88,0,0,1-.74,25.31A16.93,16.93,0,0,1,495.38,271c-3.36,0-6-.53-7.84-1.65v15.76Zm8.58-37.64V261a12.94,12.94,0,0,0,7.1,1.95c5.75,0,9.41-4.19,9.41-9.94,0-5.45-3.22-9.26-8.82-9.26A10,10,0,0,0,487.54,247.42Z" transform="translate(-232.5 -198.35)"/><path class="cls-1" d="M519.21,238.91a22.81,22.81,0,0,1,11.87-3.21c9.56,0,13.44,4.7,13.44,14v20.46h-7.47v-3.88c-2,2.91-5.37,4.33-9.93,4.33-6.27,0-10.53-4-10.53-10.3,0-7.1,5.08-10.91,12.25-10.91a13,13,0,0,1,7.62,2.17c.22-5.9-1.5-8.66-6.28-8.66a21.44,21.44,0,0,0-8.81,2.31Zm17.25,21.36v-3.44a9.4,9.4,0,0,0-5.9-1.64c-3.06,0-5.38,1.49-5.38,4.18,0,2.46,2,4,4.78,4A7.46,7.46,0,0,0,536.46,260.27Z" transform="translate(-232.5 -198.35)"/><path class="cls-1" d="M583.88,236.52l-13.22,33.6c-2.39,5.83-4.56,9.79-6.42,11.8a8.53,8.53,0,0,1-6.57,3.14,12.38,12.38,0,0,1-7.25-2.61l2.77-6.5a7,7,0,0,0,3.51,1.19c2,0,3.73-1.71,5.15-5.22l.74-1.8-15.53-33.6h10.31l7.84,18.37c.3.75.82,2.39,1.64,4.85a32.68,32.68,0,0,1,1.2-4.92l6-18.3Z" transform="translate(-232.5 -198.35)"/><path class="cls-1" d="M589.11,259a5.64,5.64,0,0,1,5.45,5.52c0,3.21-2.39,6-5.45,6a5.86,5.86,0,0,1-6-6A5.77,5.77,0,0,1,589.11,259Z" transform="translate(-232.5 -198.35)"/><path class="cls-1" d="M606.58,219.42a4.9,4.9,0,0,1,4.93,5,5,5,0,0,1-4.93,5.38,5.14,5.14,0,0,1-5.38-5.38C601.2,221.44,603.59,219.42,606.58,219.42Zm-4.48,50.7v-33.6h8.59v33.6Z" transform="translate(-232.5 -198.35)"/><path class="cls-1" d="M617.56,253.32a16.83,16.83,0,0,1,5-12.62c3.36-3.36,7.84-5,13.29-5s9.86,1.64,13.22,5a16.89,16.89,0,0,1,5.08,12.62,17.18,17.18,0,0,1-5.08,12.7q-5,4.92-13.22,4.93c-5.45,0-9.93-1.65-13.29-4.93A17.12,17.12,0,0,1,617.56,253.32ZM635.85,263c5.38,0,9.19-3.89,9.19-9.64,0-5.6-3.88-9.56-9.19-9.56-5.15,0-9.11,3.89-9.11,9.56S630.55,263,635.85,263Z" transform="translate(-232.5 -198.35)"/><circle class="cls-2" cx="50" cy="50" r="50"/><circle class="cls-3" cx="50" cy="50" r="40"/><path class="cls-4" d="M282.5,210.35a40,40,0,0,1,40,39c0-.33,0-.66,0-1a40,40,0,0,0-80,0c0,.34,0,.67,0,1A40,40,0,0,1,282.5,210.35Z" transform="translate(-232.5 -198.35)"/><path class="cls-4" d="M299.92,231.46l-43.56,17.09s-2.07.7-1.9,2,1.84,1.9,1.84,1.9l11,3.69s3.31,10.85,4,12.91,1.17,2.11,1.17,2.11a1.23,1.23,0,0,0,1.16-.15l7.08-6.46h0l11,8.46a2.86,2.86,0,0,0,4.07-1.41l7.76-39.11C303.5,229.88,299.92,231.46,299.92,231.46Z" transform="translate(-232.5 -198.35)"/><path class="cls-5" d="M303.5,230.49l-7.76,39.11a2.86,2.86,0,0,1-4.07,1.41l-17.9-13.72-6.51-3.15-11-3.69s-1.68-.59-1.84-1.9,1.9-2,1.9-2l43.56-17.09S303.5,227.88,303.5,230.49Z" transform="translate(-232.5 -198.35)"/><path class="cls-4" d="M272.39,269.16s-.52,0-1.17-2.11-4-12.91-4-12.91l26.31-16.71s1.52-.92,1.47,0c0,0,.27.17-.55.93S273.82,257,273.82,257" transform="translate(-232.5 -198.35)"/><path class="cls-3" d="M280.63,262.55,273.55,269a1.23,1.23,0,0,1-1.16.15l1.36-12" transform="translate(-232.5 -198.35)"/></svg>