<svg width="512" height="512" viewBox="0 0 512 512" version="1.1" xmlns="http://www.w3.org/2000/svg" xmlns:xlink="http://www.w3.org/1999/xlink">
<title>&#208;&#176;&#208;&#180;&#208;&#188;&#208;&#184;&#208;&#189;&#208;&#184;&#209;&#129;&#209;&#130;&#209;&#128;&#208;&#176;&#209;&#134;&#208;&#184;&#209;&#143;</title>
<desc>Created using Figma</desc>
<g id="Canvas" transform="matrix(36.5714 0 0 36.5714 -61293.7 -58038.9)">
<g id="&#208;&#176;&#208;&#180;&#208;&#188;&#208;&#184;&#208;&#189;&#208;&#184;&#209;&#129;&#209;&#130;&#209;&#128;&#208;&#176;&#209;&#134;&#208;&#184;&#209;&#143;">
<g id="Ellipse">
<use xlink:href="#path0_fill" transform="translate(1676 1587)" fill="#EB5757"/>
</g>
<g id="Vector 2 (Stroke)">
<use xlink:href="#path1_fill" transform="translate(1679.62 1590.67)" fill="#F2F2F2"/>
</g>
</g>
</g>
<defs>
<path id="path0_fill" d="M 14 7C 14 10.866 10.866 14 7 14C 3.13401 14 0 10.866 0 7C 0 3.13401 3.13401 0 7 0C 10.866 0 14 3.13401 14 7Z"/>
<path id="path1_fill" fill-rule="evenodd" d="M 2.72109 3.8254L 0 0.650791L 0.759257 0L 3.37963 3.0571L 6 0L 6.75926 0.650791L 4.03817 3.8254L 6.75926 7L 6 7.65079L 3.37963 4.59369L 0.759257 7.65079L 0 7L 2.72109 3.8254Z"/>
</defs>
</svg>
