<svg width="396" height="512" viewBox="0 0 396 512" version="1.1" xmlns="http://www.w3.org/2000/svg" xmlns:xlink="http://www.w3.org/1999/xlink">
<title>no bot</title>
<desc>Created using Figma</desc>
<g id="Canvas" transform="matrix(23.2727 0 0 23.2727 1326.55 -38539.6)">
<g id="no bot">
<g id="Vector">
<use xlink:href="#path0_fill" transform="translate(-55.8142 1656)" fill="#EB5757"/>
</g>
<g id="Vector (Stroke)">
<use xlink:href="#path1_fill" transform="translate(-57 1660.24)" fill="#EB5757"/>
</g>
<g id="Vector (Stroke)">
<use xlink:href="#path2_fill" transform="translate(-55.8847 1661.41)" fill="#FFFFFF"/>
</g>
</g>
</g>
<defs>
<path id="path0_fill" d="M 10.9748 18.2548L 12.4718 18.2548C 12.8149 18.2548 13.0955 17.9615 13.0955 17.603L 13.0955 13.4401C 13.9999 12.381 13.9064 10.7598 12.9006 9.81478C 12.8616 9.78219 12.8226 9.74146 12.7837 9.70887C 12.0118 7.26486 9.93789 5.52146 7.48974 5.25262L 7.48974 3.79436C 8.46432 3.43591 8.9711 2.31981 8.62805 1.30147C 8.2772 0.283132 7.20906 -0.246404 6.23448 0.112051C 5.25989 0.470506 4.75311 1.5866 5.09616 2.60494C 5.28328 3.15892 5.7043 3.59884 6.23448 3.79436L 6.23448 5.25262C 3.78633 5.52146 1.71242 7.26486 0.940547 9.70887C -0.127595 10.5887 -0.314715 12.2018 0.527324 13.3097C 0.55851 13.3504 0.589697 13.3912 0.62868 13.4319L 0.62868 17.5949C 0.62868 17.9533 0.90936 18.2466 1.25241 18.2466L 2.73378 18.2466L 10.9748 18.2466L 12.4718 18.2466L 10.9748 18.2548ZM 12.4718 11.7374C 12.4718 12.4543 11.9104 13.0409 11.2243 13.0409C 10.5382 13.0409 9.97687 12.4543 9.97687 11.7374C 9.97687 11.0205 10.5382 10.4339 11.2243 10.4339C 11.9104 10.4339 12.4718 11.0205 12.4718 11.7374ZM 6.85821 1.30962C 7.20126 1.30962 7.48194 1.6029 7.48194 1.96135C 7.48194 2.31981 7.20126 2.61309 6.85821 2.61309C 6.51516 2.61309 6.23448 2.31981 6.23448 1.96135C 6.23448 1.6029 6.51516 1.30962 6.85821 1.30962ZM 1.24462 11.7374C 1.24462 11.0205 1.80598 10.4339 2.49208 10.4339C 3.17819 10.4339 3.73955 11.0205 3.73955 11.7374C 3.73955 12.4543 3.17819 13.0409 2.49208 13.0409C 1.80598 13.0409 1.24462 12.4543 1.24462 11.7374ZM 1.86835 16.9513L 1.86835 14.2547C 2.07106 14.3118 2.28157 14.3443 2.49208 14.3443C 3.87209 14.2955 4.94803 13.0816 4.89345 11.6478C 4.84667 10.3036 3.83311 9.22007 2.55445 9.1386C 3.90328 6.65385 6.92838 5.7903 9.30636 7.19968C 10.0782 7.6559 10.7176 8.33208 11.162 9.1386C 9.78975 9.22821 8.7372 10.4665 8.82297 11.9003C 8.90093 13.2364 9.94568 14.2955 11.2243 14.3443C 11.4348 14.3443 11.6454 14.3118 11.8481 14.2547L 11.8481 16.9513L 9.35314 16.9513L 9.35314 14.9961C 9.35314 14.6376 9.07246 14.3443 8.72941 14.3443L 4.98701 14.3443C 4.64396 14.3443 4.36328 14.6376 4.36328 14.9961L 4.36328 16.9513L 1.86835 16.9513ZM 8.10567 15.6478L 8.10567 16.9513L 5.61074 16.9513L 5.61074 15.6478L 8.10567 15.6478Z"/>
<path id="path1_fill" fill-rule="evenodd" d="M 0 15.4461L 14.7747 0L 15.8776 1.15181L 1.1029 16.598L 0 15.4461Z"/>
<path id="path2_fill" fill-rule="evenodd" d="M 0 15.438L 14.7825 0L 15.8848 1.15242L 1.10232 16.5904L 0 15.438Z"/>
</defs>
</svg>
