<?xml version="1.0" encoding="utf-8"?>
<!-- Generator: Adobe Illustrator 22.1.0, SVG Export Plug-In . SVG Version: 6.00 Build 0)  -->
<svg version="1.1" id="Слой_2" xmlns="http://www.w3.org/2000/svg" xmlns:xlink="http://www.w3.org/1999/xlink" x="0px" y="0px"
	 viewBox="0 0 472 512" style="enable-background:new 0 0 472 512;" xml:space="preserve">
<style type="text/css">
	.st0{fill:#BADDFA;}
	.st1{fill:#465B64;}
	.st2{fill:#273238;}
	.st3{fill:#465A65;}
	.st4{fill:#398E3D;}
	.st5{fill:#A4D5A6;}
	.st6{opacity:0.3;}
</style>
<path id="path0_fill_1_" class="st0" d="M472.6,106.7H1V429h471.6V106.7z"/>
<path id="path1_fill_1_" class="st1" d="M2.5,107.5H472v320.7H2.5V107.5z M42.5,148.5v238.6H432V148.5H42.5z"/>
<path id="path2_fill_1_" class="st2" d="M391.1,296.1H82.5c-8.6,0-15.6-7.2-15.6-16v-49.6c0-8.8,7-16,15.6-16h308.5
	c8.6,0,15.6,7.2,15.6,16v49.6C406.7,288.9,399.7,296.1,391.1,296.1z"/>
<path id="path3_fill_1_" class="st3" d="M381.4,512.1H92.2v-15.3c0-14.1,11.2-25.5,24.9-25.5h239.5c13.7,0,24.9,11.4,24.9,25.5
	V512.1z"/>
<path id="path4_fill_1_" class="st4" d="M381.4,0.1H92.2v255.7h289.2V0.1z"/>
<path id="path5_fill_1_" class="st5" d="M360.1,19H113.5v236.8h246.6V19z"/>
<path id="path6_fill_1_" class="st4" d="M236.1,125.9c11.4,0,20.7-9.5,20.7-21.2c0-11.7-9.2-21.2-20.7-21.2
	c-11.4,0-20.7,9.5-20.7,21.2C215.5,116.4,224.7,125.9,236.1,125.9z"/>
<path id="path7_fill_3_" class="st4" d="M137.8,75.5c18.7,0,33.8-15.5,33.8-34.6c0-19.1-15.1-34.6-33.8-34.6
	c-18.7,0-33.8,15.5-33.8,34.6C104,60,119.1,75.5,137.8,75.5z"/>
<path id="path7_fill_2_" class="st4" d="M337.1,75.5c18.7,0,33.8-15.5,33.8-34.6c0-19.1-15.1-34.6-33.8-34.6
	c-18.7,0-33.8,15.5-33.8,34.6C303.4,60,318.5,75.5,337.1,75.5z"/>
<path id="path8_fill_1_" class="st4" d="M313.9,245.3c0,3.5-0.2,7-0.7,10.4H159.1c-0.5-3.4-0.7-6.9-0.7-10.4
	c0-5.9,0.7-11.6,1.8-17.2c7.7-35.8,38.7-62.6,75.9-62.6c37.2,0,68.3,26.8,75.9,62.6C313.2,233.6,313.9,239.4,313.9,245.3z"/>
<path id="path10_fill_1_" class="st3" d="M275.9,426.4h-78.3v44.9h78.3V426.4z"/>
<path id="path9_fill_1_" class="st6" d="M381.4,228.2H92.2v27.6h289.2V228.2z"/>
</svg>
