<?xml version="1.0" encoding="utf-8"?>
<!-- Generator: Adobe Illustrator 22.1.0, SVG Export Plug-In . SVG Version: 6.00 Build 0)  -->
<svg version="1.2" baseProfile="tiny" id="Слой_2"
	 xmlns="http://www.w3.org/2000/svg" xmlns:xlink="http://www.w3.org/1999/xlink" x="0px" y="0px" viewBox="0 0 478 512"
	 xml:space="preserve">
<path d="M465.2,0H12.6C5.7,0,0,5.9,0,13.1c0,7.2,5.7,13.1,12.6,13.1h27.3v472.3c0,4.8,2.5,9.3,6.6,11.6
	c4.1,2.3,9.1,2.1,12.9-0.7l54.8-37.9l55,38c4.2,2.9,9.8,2.9,14,0l54.8-37.9l55,38c4.2,2.9,9.8,2.9,14,0l54.8-37.9l55.1,38
	c2.1,1.4,4.5,2.2,6.9,2.2c2,0,4.1-0.5,6-1.5c4.1-2.3,6.6-6.8,6.6-11.6l-0.2-472.3h28.7c6.9,0,12.6-5.9,12.6-13.1
	C477.9,6.2,472.2,0,465.2,0z M222.5,361.3h-99.2c-7.1,0-12.7-5.9-12.6-13.1c0-7.2,5.7-13.1,12.6-13.1h99.2c6.9,0,12.6,5.9,12.6,13.1
	S229.4,361.3,222.5,361.3z M255.6,315.8H123.3c-7.1,0-12.7-5.9-12.6-13.1c0-7.2,5.7-13.1,12.6-13.1h132.3c6.9,0,12.6,5.9,12.6,13.1
	S262.5,315.8,255.6,315.8z M110.7,241.8c0-7.2,5.7-13.1,12.6-13.1h99.2c6.9,0,12.6,5.9,12.6,13.1s-5.7,13.1-12.6,13.1h-99.2
	C116.2,254.9,110.6,249,110.7,241.8z M255.6,209.3H123.3c-7.1,0-12.7-5.9-12.6-13.1c0-7.2,5.7-13.1,12.6-13.1h132.3
	c6.9,0,12.6,5.9,12.6,13.1S262.5,209.3,255.6,209.3z M110.7,136.4c0-7.2,5.7-13.1,12.6-13.1h99.2c6.9,0,12.6,5.9,12.6,13.1
	c0,7.2-5.7,13.1-12.6,13.1h-99.2C116.2,149.5,110.6,143.6,110.7,136.4z M255.6,104.1H123.3c-7.1,0-12.7-5.9-12.6-13.1
	c0-7.2,5.7-13.1,12.6-13.1h132.3c6.9,0,12.6,5.9,12.6,13.1S262.5,104.1,255.6,104.1z M354.8,361.3h-33.1c-7.1,0-12.7-5.9-12.6-13.1
	c0-7.2,5.7-13.1,12.6-13.1h33.1c6.9,0,12.6,5.9,12.6,13.1S361.7,361.3,354.8,361.3z M354.8,315.8h-33.1c-7.1,0-12.7-5.9-12.6-13.1
	c0-7.2,5.7-13.1,12.6-13.1h33.1c6.9,0,12.6,5.9,12.6,13.1S361.7,315.8,354.8,315.8z M354.8,254.9h-33.1c-7.1,0-12.7-5.9-12.6-13.1
	c0-7.2,5.7-13.1,12.6-13.1h33.1c6.9,0,12.6,5.9,12.6,13.1S361.7,254.9,354.8,254.9z M354.8,209.3h-33.1c-7.1,0-12.7-5.9-12.6-13.1
	c0-7.2,5.7-13.1,12.6-13.1h33.1c6.9,0,12.6,5.9,12.6,13.1S361.7,209.3,354.8,209.3z M354.8,149.5h-33.1c-7.1,0-12.7-5.9-12.6-13.1
	c0-7.2,5.7-13.1,12.6-13.1h33.1c6.9,0,12.6,5.9,12.6,13.1C367.4,143.6,361.7,149.5,354.8,149.5z M354.8,104.1h-33.1
	c-7.1,0-12.7-5.9-12.6-13.1c0-7.2,5.7-13.1,12.6-13.1h33.1c6.9,0,12.6,5.9,12.6,13.1S361.7,104.1,354.8,104.1z"/>
</svg>
