<svg width="488" height="512" viewBox="0 0 488 512" version="1.1" xmlns="http://www.w3.org/2000/svg" xmlns:xlink="http://www.w3.org/1999/xlink">
<title>Vector</title>
<desc>Created using Figma</desc>
<g id="Canvas" transform="matrix(24.381 0 0 24.381 -39033.9 -46421.3)">
<g id="Vector">
<use xlink:href="#path0_fill" transform="translate(1601 1904)" fill="#50BCED"/>
</g>
</g>
<defs>
<path id="path0_fill" d="M 2.5 0L 2 6.5L 8.5 6L 6.03125 3.53125C 7.20703 2.86719 8.58594 2.5 10 2.5C 14.3984 2.5 18 6.10156 18 10.5L 18 11.1875L 19.6875 12.9062C 19.8867 12.1055 20 11.3008 20 10.5C 20 5 15.5 0.5 10 0.5C 8 0.5 6.14453 1.08203 4.59375 2.09375L 2.5 0ZM 0.3125 8.09375C 0.113281 8.89453 0 9.69922 0 10.5C 0 16 4.5 20.5 10 20.5C 11.9922 20.5 13.8281 19.875 15.375 18.875L 17.5 21L 18 14.5L 11.5 15L 13.9688 17.4688C 12.7969 18.1328 11.4141 18.5 10 18.5C 5.60156 18.5 2 14.8984 2 10.5L 2 9.8125L 0.3125 8.09375Z"/>
</defs>
</svg>
