<?xml version="1.0" encoding="utf-8"?>
<!-- Generator: Adobe Illustrator 22.1.0, SVG Export Plug-In . SVG Version: 6.00 Build 0)  -->
<svg version="1.1" id="Слой_2" xmlns="http://www.w3.org/2000/svg" xmlns:xlink="http://www.w3.org/1999/xlink" x="0px" y="0px"
	 viewBox="0 0 488 512" style="enable-background:new 0 0 488 512;" xml:space="preserve">
<style type="text/css">
	.st0{fill:#50BCED;}
</style>
<path id="path0_fill_1_" class="st0" d="M62,0.1L49.8,158.6l158.5-12.2l-60.2-60.2c28.7-16.2,62.3-25.1,96.8-25.1
	c107.2,0,195,87.8,195,195v16.8l41.1,41.9c4.9-19.5,7.6-39.1,7.6-58.7C488.7,122,379,12.3,244.9,12.3c-48.8,0-94,14.2-131.8,38.9
	L62,0.1z M8.7,197.5c-4.9,19.5-7.6,39.1-7.6,58.7c0,134.1,109.7,243.8,243.8,243.8c48.6,0,93.3-15.2,131-39.6l51.8,51.8l12.2-158.5
	l-158.5,12.2l60.2,60.2c-28.6,16.2-62.3,25.1-96.8,25.1c-107.2,0-195-87.8-195-195v-16.8L8.7,197.5z"/>
</svg>
