<svg width="578" height="512" viewBox="0 0 578 512" version="1.1" xmlns="http://www.w3.org/2000/svg" xmlns:xlink="http://www.w3.org/1999/xlink">
<title>Vector</title>
<desc>Created using Figma</desc>
<g id="Canvas" transform="matrix(5.44681 0 0 5.44681 -11443.7 -34641.7)">
<g id="Vector">
<use xlink:href="#path0_fill" transform="translate(2101 6360)" fill="#576077" fill-opacity="0.5"/>
<use xlink:href="#path1_fill" transform="translate(2101 6360)" fill="#576077" fill-opacity="0.5"/>
<use xlink:href="#path2_fill" transform="translate(2101 6360)" fill="#576077" fill-opacity="0.5"/>
<use xlink:href="#path3_fill" transform="translate(2101 6360)" fill="#576077" fill-opacity="0.5"/>
<use xlink:href="#path4_fill" transform="translate(2101 6360)" fill="#576077" fill-opacity="0.5"/>
<use xlink:href="#path5_fill" transform="translate(2101 6360)" fill="#576077" fill-opacity="0.5"/>
<use xlink:href="#path6_fill" transform="translate(2101 6360)" fill="#576077" fill-opacity="0.5"/>
<use xlink:href="#path7_fill" transform="translate(2101 6360)" fill="#576077" fill-opacity="0.5"/>
<use xlink:href="#path8_fill" transform="translate(2101 6360)" fill="#576077" fill-opacity="0.5"/>
</g>
</g>
<defs>
<path id="path0_fill" d="M 100.7 19.5131L 95.3999 19.5131C 95.3999 18.5337 94.6089 17.7396 93.6332 17.7396L 84.7999 17.7396C 83.8243 17.7396 83.0332 18.5337 83.0332 19.5131L 56.9714 19.5131L 27.855 4.03755C 26.6673 0.830618 23.1148 -0.80233 19.9202 0.390126C 17.4981 1.29417 15.8935 3.61767 15.8999 6.21185L 15.8999 28.3806L 14.1333 28.3806C 11.2061 28.3806 8.83325 30.7626 8.83325 33.7011L 8.83325 40.7951C 8.83325 43.7335 11.2061 46.1156 14.1333 46.1156L 15.8999 46.1156L 15.8999 68.2843C 15.8915 71.7056 18.6475 74.486 22.0556 74.4944C 24.6398 74.5008 26.9544 72.8901 27.855 70.4586L 56.9714 54.983L 60.2432 54.983L 61.8333 69.3661C 61.9328 70.2686 62.6954 70.9501 63.5999 70.9445L 67.1244 70.9445L 67.1421 71.1219C 67.1995 71.7309 67.5654 72.2669 68.1102 72.5407L 70.8397 73.9098L 72.2813 82.6L 66.0733 87.2607C 65.6285 87.5957 65.3666 88.1213 65.3666 88.6795L 65.3666 92.2265C 65.3666 93.2059 66.1576 94 67.1333 94L 82.4432 94C 85.428 94.0004 87.8479 91.5719 87.8483 88.5758C 87.8483 88.3419 87.8333 88.1082 87.8033 87.8761L 83.4413 56.0773C 83.7662 56.5014 84.267 56.7519 84.7999 56.7565L 93.6332 56.7565C 94.6089 56.7565 95.3999 55.9625 95.3999 54.983L 100.7 54.983C 103.627 54.983 106 52.601 106 49.6626L 106 24.8336C 106 21.8953 103.627 19.5131 100.7 19.5131ZM 15.8999 42.5686L 14.1333 42.5686C 13.1576 42.5686 12.3666 41.7745 12.3666 40.7951L 12.3666 33.7011C 12.3666 32.7217 13.1576 31.9276 14.1333 31.9276L 15.8999 31.9276L 15.8999 42.5686ZM 24.7333 68.2843C 24.7333 69.7534 23.5467 70.9445 22.0833 70.9445C 20.6198 70.9445 19.4333 69.7534 19.4333 68.2843L 19.4333 6.21185C 19.4333 4.74273 20.6198 3.55161 22.0833 3.55161C 23.5467 3.55161 24.7333 4.74273 24.7333 6.21185L 24.7333 68.2843ZM 54.7666 52.1454L 28.2666 66.2252L 28.2666 8.27088L 54.7666 22.3507L 54.7666 52.1454ZM 65.1899 67.3975L 63.8155 54.983L 65.5432 54.983L 66.7799 67.3975L 65.1899 67.3975ZM 58.2999 51.4361L 58.2999 23.0601L 83.0332 23.0601L 83.0332 51.4361L 58.2999 51.4361ZM 84.3035 88.339C 84.3724 88.875 84.2061 89.4146 83.8477 89.8181C 83.4919 90.2271 82.9754 90.4592 82.4343 90.453L 68.8999 90.453L 68.8999 89.5663L 75.2599 84.7778C 75.7873 84.3803 76.0503 83.7212 75.9418 83.0682L 75.6327 81.2007L 80.0582 79.7198L 78.9417 76.3502L 75.0444 77.6537L 74.4243 73.9134L 78.2915 72.6187L 77.175 69.2491L 72.5693 70.7902L 70.5606 69.7829L 69.0854 54.983L 79.726 54.983L 84.3035 88.339ZM 91.8666 53.2095L 86.5666 53.2095L 86.5666 21.2866L 91.8666 21.2866L 91.8666 53.2095ZM 102.467 26.6071L 98.9333 26.6071L 98.9333 30.1541L 102.467 30.1541L 102.467 35.4746L 98.9333 35.4746L 98.9333 39.0216L 102.467 39.0216L 102.467 44.3421L 98.9333 44.3421L 98.9333 47.8891L 102.467 47.8891L 102.467 49.6626C 102.467 50.642 101.676 51.4361 100.7 51.4361L 95.3999 51.4361L 95.3999 23.0601L 100.7 23.0601C 101.676 23.0601 102.467 23.8542 102.467 24.8336L 102.467 26.6071Z"/>
<path id="path1_fill" d="M 67.1334 26.6069L 63.6001 26.6069L 63.6001 30.1539L 67.1334 30.1539L 67.1334 26.6069Z"/>
<path id="path2_fill" d="M 79.5001 26.6069L 70.6667 26.6069L 70.6667 30.1539L 79.5001 30.1539L 79.5001 26.6069Z"/>
<path id="path3_fill" d="M 44.652 49.5945L 43.6814 46.1841L 31.3152 49.7308L 32.2858 53.1412L 44.652 49.5945Z"/>
<path id="path4_fill" d="M 13.6105 18.2594L 8.31006 12.9385L 5.81164 15.4466L 11.112 20.7675L 13.6105 18.2594Z"/>
<path id="path5_fill" d="M 8.04922 25.1434L 2.74878 21.5942L 0.787887 24.5454L 6.08832 28.0946L 8.04922 25.1434Z"/>
<path id="path6_fill" d="M 5.3 33.7012L 0 33.7012L 0 37.2482L 5.3 37.2482L 5.3 33.7012Z"/>
<path id="path7_fill" d="M 6.08735 42.8696L 0.786377 46.417L 2.74632 49.3685L 8.04729 45.821L 6.08735 42.8696Z"/>
<path id="path8_fill" d="M 5.8175 57.2766L 8.31592 59.7847L 13.6163 54.4638L 11.1179 51.9557L 5.8175 57.2766Z"/>
</defs>
</svg>
