<?xml version="1.0" encoding="utf-8"?>
<!-- Generator: Adobe Illustrator 22.1.0, SVG Export Plug-In . SVG Version: 6.00 Build 0)  -->
<svg version="1.1" id="Слой_2" xmlns="http://www.w3.org/2000/svg" xmlns:xlink="http://www.w3.org/1999/xlink" x="0px" y="0px"
	 viewBox="0 0 589 512" style="enable-background:new 0 0 589 512;" xml:space="preserve">
<path id="path0_fill_1_" d="M584.4,212.1L584.4,212.1l-75.2-46.7V9.1c0-5-4.4-9.1-9.8-9.1H89.3c-5.4,0-9.8,4.1-9.8,9.1v156.2
	L4.4,212.1l0,0c-2.6,1.6-4.4,4.4-4.4,7.6v283.1c0,5.1,4.4,9.1,9.8,9.1H579c5.4,0,9.8-4.1,9.8-9.1V219.7
	C588.8,216.5,587.1,213.7,584.4,212.1L584.4,212.1z M79.5,244.1l-30.6-15.2h30.6V244.1z M19.5,234.9l224.3,111.5L19.5,485.8V234.9
	L19.5,234.9z M294.4,336.9l252.3,156.8H42.1L294.4,336.9L294.4,336.9z M345,346.4l224.3-111.5v250.9L345,346.4L345,346.4z
	 M509.3,228.9h30.6l-30.6,15.2V228.9z M546.7,210.6h-37.4v-23.3L546.7,210.6z M489.7,18.3v235.5l-163.2,81.2l-26.7-16.6
	c-3.3-2-7.5-2-10.8,0l-26.7,16.6L99,253.8V18.3H489.7L489.7,18.3z M79.5,210.6H42.1l37.4-23.3V210.6z"/>
</svg>
