<svg width="589" height="512" viewBox="0 0 589 512" version="1.1" xmlns="http://www.w3.org/2000/svg" xmlns:xlink="http://www.w3.org/1999/xlink">
<title>Vector</title>
<desc>Created using Figma</desc>
<g id="Canvas" transform="matrix(25.6 0 0 25.6 -22553.6 -98585.6)">
<g id="Vector">
<use xlink:href="#path0_fill" transform="translate(881 3851)"/>
</g>
</g>
<defs>
<path id="path0_fill" d="M 22.8295 8.28468L 22.8295 8.28463L 19.8926 6.45907L 19.8926 0.35716C 19.8926 0.159912 19.7221 1.45329e-08 19.5117 1.45329e-08L 3.48779 1.45329e-08C 3.27741 1.45329e-08 3.10686 0.159912 3.10686 0.35716L 3.10686 6.4595L 0.170453 8.28463L 0.170504 8.28473C 0.0678054 8.34868 0 8.45802 0 8.58231L 0 19.6428C 0 19.8401 0.170555 20 0.380929 20L 22.6191 20C 22.8294 20 23 19.8401 23 19.6428L 23 8.58231C 23 8.45802 22.9322 8.34868 22.8295 8.28468L 22.8295 8.28468ZM 3.10686 9.53374L 1.91201 8.93947L 3.10686 8.93947L 3.10686 9.53374ZM 0.761858 9.17606L 9.52196 13.5329L 0.761858 18.9773L 0.761858 9.17606L 0.761858 9.17606ZM 11.4998 13.1606L 21.3551 19.2857L 1.64465 19.2857L 11.4998 13.1606L 11.4998 13.1606ZM 13.4779 13.533L 22.2381 9.17606L 22.2381 18.9775L 13.4779 13.533L 13.4779 13.533ZM 19.8926 8.93947L 21.088 8.93947L 19.8926 9.53398L 19.8926 8.93947ZM 21.3551 8.22515L 19.8926 8.22515L 19.8926 7.31606L 21.3551 8.22515ZM 19.1308 0.71432L 19.1308 9.9129L 12.7552 13.0838L 11.7103 12.4344C 11.5827 12.3551 11.4169 12.3551 11.2894 12.4344L 10.2446 13.0837L 3.86872 9.91266L 3.86872 0.71432L 19.1308 0.71432L 19.1308 0.71432ZM 3.10686 8.22515L 1.645 8.22515L 3.10686 7.31654L 3.10686 8.22515Z"/>
</defs>
</svg>
