<svg width="512" height="512" viewBox="0 0 512 512" version="1.1" xmlns="http://www.w3.org/2000/svg" xmlns:xlink="http://www.w3.org/1999/xlink">
<title>Vector</title>
<desc>Created using Figma</desc>
<g id="Canvas" transform="matrix(25.6 0 0 25.6 -14412.8 -98406.4)">
<g id="Vector">
<use xlink:href="#path0_fill" transform="translate(563 3844)"/>
</g>
</g>
<defs>
<path id="path0_fill" d="M 17.0748 2.92631C 13.1735 -0.975279 6.82633 -0.975279 2.92579 2.92537C -0.975513 6.82601 -0.975136 13.1734 2.92616 17.0746C 6.82633 20.9753 13.1735 20.9753 17.0744 17.0739C 20.9753 13.1734 20.9749 6.82639 17.0748 2.92631ZM 15.9831 15.983C 12.6843 19.2819 7.31588 19.2822 4.0169 15.9835C 0.717162 12.6841 0.717727 7.31555 4.0169 4.01664C 7.31588 0.717923 12.6839 0.717546 15.9835 4.01702C 19.2825 7.31593 19.2821 12.6844 15.9831 15.983ZM 14.8118 11.5153C 14.862 11.5915 14.8705 11.6876 14.8341 11.771C 14.026 13.6384 12.134 14.8455 10.0135 14.8455C 7.84748 14.8455 5.94397 13.6328 5.16439 11.7563C 5.12951 11.6727 5.13893 11.5775 5.1891 11.5021C 5.23945 11.4272 5.32374 11.3818 5.41388 11.3818C 5.41388 11.3818 5.41407 11.3818 5.41426 11.3818L 14.5861 11.3933C 14.6774 11.3935 14.7621 11.4393 14.8118 11.5153ZM 6.40391 7.97895C 6.26361 7.78604 6.1797 7.54919 6.1797 7.29198C 6.1797 6.64611 6.70338 6.12263 7.34888 6.12263C 7.99457 6.12263 8.51806 6.64611 8.51806 7.29198C 8.51806 7.53976 8.44037 7.76945 8.30874 7.95877C 8.09621 7.66667 7.75262 7.47584 7.36378 7.47584C 6.96607 7.47621 6.61512 7.67554 6.40391 7.97895ZM 11.7063 7.97895C 11.566 7.78604 11.4821 7.54919 11.4821 7.29198C 11.4821 6.64611 12.0058 6.12263 12.6513 6.12263C 13.297 6.12263 13.8205 6.64611 13.8205 7.29198C 13.8205 7.53976 13.7428 7.76945 13.6112 7.95877C 13.3986 7.66667 13.0552 7.47584 12.6662 7.47584C 12.2683 7.47621 11.9176 7.67554 11.7063 7.97895Z"/>
</defs>
</svg>
