<?xml version="1.0" encoding="utf-8"?>
<!-- Generator: Adobe Illustrator 22.1.0, SVG Export Plug-In . SVG Version: 6.00 Build 0)  -->
<svg version="1.1" id="Слой_2" xmlns="http://www.w3.org/2000/svg" xmlns:xlink="http://www.w3.org/1999/xlink" x="0px" y="0px"
	 viewBox="0 0 512 512" style="enable-background:new 0 0 512 512;" xml:space="preserve">
<path id="path0_fill_1_" d="M438.1,74.9C338.2-25,175.8-25,75.9,74.9c-99.9,99.9-99.9,262.3,0,362.2c99.8,99.9,262.3,99.9,362.2,0
	C538,337.2,538,174.8,438.1,74.9z M410.2,409.2c-84.4,84.5-221.9,84.5-306.3,0c-84.5-84.5-84.5-221.9,0-306.4
	c84.5-84.4,221.9-84.5,306.3,0C494.6,187.3,494.6,324.7,410.2,409.2z M380.2,294.8c1.3,2,1.5,4.4,0.6,6.5
	c-20.7,47.8-69.1,78.7-123.4,78.7c-55.5,0-104.2-31-124.1-79.1c-0.9-2.1-0.7-4.6,0.6-6.5c1.3-1.9,3.4-3.1,5.8-3.1c0,0,0,0,0,0
	l234.8,0.3C376.7,291.7,378.9,292.8,380.2,294.8z M164.9,204.3c-3.6-4.9-5.7-11-5.7-17.6c0-16.5,13.4-29.9,29.9-29.9
	c16.5,0,29.9,13.4,29.9,29.9c0,6.3-2,12.2-5.4,17.1c-5.4-7.5-14.2-12.4-24.2-12.4C179.3,191.4,170.3,196.5,164.9,204.3z
	 M300.7,204.3c-3.6-4.9-5.7-11-5.7-17.6c0-16.5,13.4-29.9,29.9-29.9c16.5,0,29.9,13.4,29.9,29.9c0,6.3-2,12.2-5.4,17.1
	c-5.4-7.5-14.2-12.4-24.2-12.4C315.1,191.4,306.1,196.5,300.7,204.3z"/>
</svg>
