<?xml version="1.0" encoding="utf-8"?>
<!-- Generator: Adobe Illustrator 22.1.0, SVG Export Plug-In . SVG Version: 6.00 Build 0)  -->
<svg version="1.0" id="Слой_2" xmlns="http://www.w3.org/2000/svg" xmlns:xlink="http://www.w3.org/1999/xlink" x="0px" y="0px"
	 viewBox="0 0 626 512" style="enable-background:new 0 0 626 512;" xml:space="preserve">
<style type="text/css">
	.st0{fill:#C0C7DA;}
</style>
<path id="path0_fill_1_" class="st0" d="M378.6,87.9c28.9,17.6,49.2,47.5,52.9,82.1c11.8,5.4,24.9,8.4,38.8,8.4
	c50.7,0,91.8-39.9,91.8-89.2C562.1,39.9,521,0,470.3,0C420.1,0,379.4,39.2,378.6,87.9z M318.5,270.6c50.7,0,91.8-40,91.8-89.2
	c0-49.3-41.1-89.2-91.8-89.2c-50.7,0-91.8,40-91.8,89.2C226.7,230.6,267.8,270.6,318.5,270.6z M357.4,276.7h-77.9
	c-64.8,0-117.5,51.3-117.5,114.3v92.6l0.2,1.5l6.6,2c61.8,18.8,115.6,25,159.8,25c86.4,0,136.4-23.9,139.5-25.5l6.1-3h0.7v-92.6
	C474.9,327.9,422.2,276.7,357.4,276.7z M509.3,184.5H432c-0.8,30.1-14,57.1-34.9,76.6c57.6,16.7,99.7,68.6,99.7,129.9v28.5
	c76.3-2.7,120.3-23.7,123.2-25.2l6.1-3h0.7v-92.6C626.8,235.8,574.1,184.5,509.3,184.5z M157.5,178.5c18,0,34.7-5.1,48.8-13.8
	c4.5-28.5,20.2-53.5,42.7-70.4c0.1-1.7,0.3-3.3,0.3-5C249.2,40,208.1,0,157.5,0C106.8,0,65.7,40,65.7,89.3
	C65.7,138.5,106.8,178.5,157.5,178.5z M239.9,261.1C219.1,241.8,206,214.8,205,185c-2.9-0.2-5.7-0.4-8.6-0.4h-77.9
	C53.7,184.5,1,235.8,1,298.8v92.6l0.2,1.4l6.6,2c49.6,15.1,93.9,22,132.3,24.2v-28C140.2,329.7,182.3,277.8,239.9,261.1z"/>
</svg>
