<svg width="427" height="512" viewBox="0 0 427 512" version="1.1" xmlns="http://www.w3.org/2000/svg" xmlns:xlink="http://www.w3.org/1999/xlink">
<title>Vector</title>
<desc>Created using Figma</desc>
<g id="Canvas" transform="matrix(28.4444 0 0 28.4444 28472.9 2929.78)">
<g id="Vector">
<use xlink:href="#path0_fill" transform="translate(-1001 -103)"/>
<use xlink:href="#path1_fill" transform="translate(-1001 -103)"/>
<use xlink:href="#path2_fill" transform="translate(-1001 -103)"/>
</g>
</g>
<defs>
<path id="path0_fill" d="M 3.91994 8.01921C 4.77162 9.83827 6.59499 10.6301 7.50002 10.6301C 8.0951 10.6301 9.0872 10.2875 9.93908 9.53592C 9.6276 9.55696 9.29469 9.56762 8.93894 9.56762C 8.85546 9.56762 8.76789 9.56688 8.6743 9.56546C 8.49496 9.69913 8.27282 9.7745 8.04229 9.7745L 7.2843 9.7745C 6.71308 9.7745 6.24838 9.32474 6.24838 8.77189C 6.24838 8.21904 6.71308 7.76929 7.2843 7.76929L 8.04229 7.76929C 8.31613 7.76929 8.57222 7.87258 8.76218 8.05075C 8.82529 8.05144 8.8875 8.05173 8.94854 8.05173C 9.92705 8.05173 10.5719 7.96487 10.9937 7.86011C 10.939 7.73124 10.9092 7.59024 10.9092 7.44303L 10.9092 4.90096C 10.9092 4.63652 11.0106 4.38303 11.186 4.18721C 11.0924 3.48221 10.9225 2.94398 10.6691 2.54695C 10.1468 1.72878 9.13976 1.34774 7.50002 1.34774C 6.13974 1.34774 5.20039 1.62104 4.62836 2.18323C 4.18494 2.61904 3.92798 3.2409 3.80786 4.18007C 3.98715 4.37663 4.09084 4.63271 4.09084 4.90096L 4.09084 7.44303C 4.09089 7.65455 4.02808 7.85194 3.91994 8.01921Z"/>
<path id="path1_fill" d="M 2.05623 8.04317L 2.96552 8.04317C 3.30782 8.04317 3.58555 7.77448 3.58555 7.44303L 3.58555 4.90097C 3.58555 4.67951 3.46129 4.48658 3.27695 4.3826C 3.47999 2.30105 4.30993 0.858619 7.50006 0.858619C 9.33201 0.858619 10.4756 1.31346 11.099 2.2899C 11.4617 2.8581 11.6362 3.59201 11.7177 4.38573C 11.5363 4.49044 11.4145 4.68167 11.4145 4.90092L 11.4145 7.44298C 11.4145 7.72875 11.6211 7.96737 11.8975 8.02787C 11.4966 8.2816 10.6668 8.54076 8.94852 8.54076C 8.80936 8.54076 8.66428 8.53905 8.51318 8.53553C 8.42475 8.37095 8.24728 8.25832 8.04232 8.25832L 7.28438 8.25832C 6.9914 8.25832 6.75379 8.48823 6.75379 8.77185C 6.75379 9.05546 6.9914 9.28538 7.28438 9.28538L 8.04232 9.28538C 8.21939 9.28538 8.37584 9.20111 8.47215 9.07214C 8.63173 9.07605 8.78798 9.0785 8.93897 9.0785C 10.8758 9.07845 12.107 8.7585 12.6057 8.12368C 12.6269 8.09668 12.6462 8.06978 12.6639 8.04317L 12.944 8.04317C 13.2863 8.04317 13.564 7.77448 13.564 7.44303L 13.564 4.90097C 13.564 4.56957 13.2864 4.30087 12.944 4.30087L 12.602 4.30087C 12.5058 3.3419 12.2925 2.52553 11.8537 1.83848C 11.064 0.601366 9.63981 0 7.50001 0C 5.36005 0 3.93599 0.601366 3.14622 1.83853C 2.70755 2.52558 2.49435 3.34185 2.39808 4.30092L 2.05618 4.30092C 1.71372 4.30092 1.4361 4.56957 1.4361 4.90102L 1.4361 7.44308C 1.4361 7.77448 1.71377 8.04317 2.05623 8.04317Z"/>
<path id="path2_fill" d="M 14.9964 15.5183C 14.7902 14.2777 14.3658 12.6796 13.5146 12.1117C 12.9342 11.7243 10.9078 10.6765 10.0425 10.2291L 10.0244 10.2197C 9.92531 10.1685 9.80449 10.1788 9.71621 10.2458C 9.26227 10.5907 8.76534 10.823 8.23924 10.9363C 8.14626 10.9563 8 11 8 11L 7 11C 7 11 6.85374 10.9563 6.76076 10.9363C 6.23466 10.823 5.73763 10.5907 5.28364 10.2458C 5.19541 10.1787 5.07454 10.1684 4.97554 10.2197C 4.11993 10.6621 2.06734 11.732 1.48784 12.1101C 0.507555 12.7492 0.0794428 15.0613 0.00359343 15.5183C -0.00393592 15.5637 0.000409883 15.61 0.0162266 15.6533C 0.0512962 15.7491 0.950473 18 7.49995 18C 14.0493 18 14.9486 15.7491 14.9837 15.6533C 14.9996 15.61 15.0039 15.5636 14.9964 15.5183Z"/>
</defs>
</svg>
