<?xml version="1.0" encoding="utf-8"?>
<!-- Generator: Adobe Illustrator 22.1.0, SVG Export Plug-In . SVG Version: 6.00 Build 0)  -->
<svg version="1.1" id="Слой_1" xmlns="http://www.w3.org/2000/svg" xmlns:xlink="http://www.w3.org/1999/xlink" x="0px" y="0px"
	 viewBox="0 0 427 512" style="enable-background:new 0 0 427 512;" xml:space="preserve">
<path id="path0_fill" d="M111.6,228.1c24.2,51.7,76.1,74.3,101.8,74.3c16.9,0,45.1-9.7,69.4-31.1c-8.9,0.6-18.3,0.9-28.4,0.9
	c-2.4,0-4.9,0-7.5-0.1c-5.1,3.8-11.4,5.9-18,5.9h-21.6c-16.2,0-29.5-12.8-29.5-28.5c0-15.7,13.2-28.5,29.5-28.5h21.6
	c7.8,0,15.1,2.9,20.5,8c1.8,0,3.6,0,5.3,0c27.8,0,46.2-2.5,58.2-5.5c-1.6-3.7-2.4-7.7-2.4-11.9v-72.3c0-7.5,2.9-14.7,7.9-20.3
	c-2.7-20.1-7.5-35.4-14.7-46.7c-14.9-23.3-43.5-34.1-90.1-34.1c-38.7,0-65.4,7.8-81.7,23.8c-12.6,12.4-19.9,30.1-23.3,56.8
	c5.1,5.6,8,12.9,8,20.5v72.3C116.4,217.7,114.6,223.4,111.6,228.1z"/>
<path id="path1_fill" d="M58.5,228.8h25.9c9.7,0,17.6-7.6,17.6-17.1v-72.3c0-6.3-3.5-11.8-8.8-14.7C99,65.5,122.6,24.4,213.4,24.4
	c52.1,0,84.6,12.9,102.4,40.7c10.3,16.2,15.3,37,17.6,59.6c-5.2,3-8.6,8.4-8.6,14.7v72.3c0,8.1,5.9,14.9,13.7,16.6
	c-11.4,7.2-35,14.6-83.9,14.6c-4,0-8.1,0-12.4-0.1c-2.5-4.7-7.6-7.9-13.4-7.9h-21.6c-8.3,0-15.1,6.5-15.1,14.6
	c0,8.1,6.8,14.6,15.1,14.6h21.6c5,0,9.5-2.4,12.2-6.1c4.5,0.1,9,0.2,13.3,0.2c55.1,0,90.1-9.1,104.3-27.2c0.6-0.8,1.2-1.5,1.7-2.3h8
	c9.7,0,17.6-7.6,17.6-17.1v-72.3c0-9.4-7.9-17.1-17.6-17.1h-9.7c-2.7-27.3-8.8-50.5-21.3-70C314.8,17.1,274.3,0,213.4,0
	C152.5,0,112,17.1,89.5,52.3c-12.5,19.5-18.5,42.8-21.3,70h-9.7c-9.7,0-17.6,7.6-17.6,17.1v72.3C40.9,221.1,48.8,228.8,58.5,228.8z"
	/>
<path id="path2_fill" d="M426.6,441.4c-5.9-35.3-17.9-80.7-42.1-96.9c-16.5-11-74.1-40.8-98.8-53.5l-0.5-0.3
	c-2.8-1.5-6.3-1.2-8.8,0.7c-12.9,9.8-27,16.4-42,19.6c-2.6,0.6-6.8,1.8-6.8,1.8h-28.4c0,0-4.2-1.2-6.8-1.8c-15-3.2-29.1-9.8-42-19.6
	c-2.5-1.9-5.9-2.2-8.8-0.7c-24.3,12.6-82.7,43-99.2,53.8c-27.9,18.2-40.1,83.9-42.2,96.9c-0.2,1.3-0.1,2.6,0.4,3.8
	c1,2.7,26.6,66.8,212.9,66.8c186.3,0,211.9-64,212.9-66.8C426.7,444,426.8,442.7,426.6,441.4z"/>
</svg>
