<svg width="512" height="512" viewBox="0 0 512 512" version="1.1" xmlns="http://www.w3.org/2000/svg" xmlns:xlink="http://www.w3.org/1999/xlink">
<title>Vector</title>
<desc>Created using Figma</desc>
<g id="Canvas" transform="matrix(25.6 0 0 25.6 3276.8 9881.6)">
<g id="Vector">
<use xlink:href="#path0_fill" transform="translate(-128 -386)"/>
</g>
</g>
<defs>
<path id="path0_fill" d="M 18.6592 4.98037C 17.765 3.44835 16.552 2.23536 15.0199 1.34115C 13.4875 0.446989 11.8148 0 10.0003 0C 8.18604 0 6.51277 0.446989 4.98071 1.34115C 3.44855 2.23522 2.23555 3.44822 1.34129 4.98037C 0.446991 6.51261 0 8.18586 0 10C 0 11.8142 0.447128 13.4872 1.34116 15.0195C 2.23537 16.5516 3.44837 17.7646 4.98053 18.6588C 6.51277 19.553 8.1859 20 10.0001 20C 11.8144 20 13.4877 19.553 15.0198 18.6588C 16.5519 17.7649 17.7649 16.5516 18.659 15.0195C 19.5531 13.4873 20 11.8141 20 10C 20 8.18568 19.5531 6.51238 18.6592 4.98037ZM 11.6671 16.25C 11.6671 16.3714 11.6278 16.4713 11.5498 16.5493C 11.472 16.6274 11.3721 16.6664 11.2507 16.6664L 8.75042 16.6664C 8.62893 16.6664 8.52905 16.6274 8.45092 16.5493C 8.37275 16.4713 8.33371 16.3714 8.33371 16.25L 8.33371 13.7497C 8.33371 13.6283 8.37271 13.5284 8.45092 13.4504C 8.52905 13.3725 8.62893 13.3335 8.75042 13.3335L 11.2507 13.3335C 11.3721 13.3335 11.472 13.3725 11.5498 13.4504C 11.6278 13.5284 11.6671 13.6283 11.6671 13.7497L 11.6671 16.25ZM 14.8376 8.55459C 14.729 8.8758 14.6076 9.13854 14.473 9.34245C 14.3385 9.54644 14.1452 9.75482 13.8934 9.96739C 13.6421 10.1801 13.4423 10.3321 13.2944 10.4234C 13.147 10.5144 12.9342 10.6383 12.6567 10.7944C 12.3701 10.9591 12.1338 11.1741 11.9473 11.439C 11.7606 11.7037 11.6673 11.9184 11.6673 12.0832C 11.6673 12.205 11.628 12.3048 11.5499 12.3829C 11.472 12.4609 11.3722 12.4999 11.2507 12.4999L 8.75056 12.4999C 8.62906 12.4999 8.52918 12.4609 8.45106 12.3829C 8.37284 12.3048 8.33394 12.205 8.33394 12.0832L 8.33394 11.6144C 8.33394 11.0329 8.56166 10.4879 9.01745 9.98025C 9.47324 9.47238 9.97455 9.09695 10.5215 8.85386C 10.9379 8.66296 11.2332 8.46758 11.4067 8.26796C 11.5806 8.06834 11.6674 7.80332 11.6674 7.47363C 11.6674 7.18708 11.5045 6.93105 11.1789 6.7052C 10.8533 6.47959 10.4825 6.36676 10.0657 6.36676C 9.61417 6.36676 9.24101 6.47097 8.9458 6.67939C 8.65925 6.88758 8.2861 7.28696 7.82597 7.87715C 7.74785 7.98141 7.63931 8.03363 7.50039 8.03363C 7.39622 8.03363 7.31372 8.00764 7.25302 7.95569L 5.53437 6.65353C 5.33475 6.49724 5.30005 6.31504 5.43012 6.10666C 6.54137 4.25769 8.15156 3.3332 10.2609 3.3332C 11.0163 3.3332 11.7542 3.5112 12.4747 3.86716C 13.1951 4.22293 13.7963 4.72648 14.2782 5.3776C 14.7596 6.0285 15.0009 6.73608 15.0009 7.49999C 15.0002 7.8819 14.9458 8.2333 14.8376 8.55459Z"/>
</defs>
</svg>
